<mxfile host="65bd71144e" scale="2" border="0">
    <diagram id="cok1Ox7YAF49fjNycUp0" name="Page-1">
        <mxGraphModel dx="1833" dy="805" grid="1" gridSize="10" guides="1" tooltips="1" connect="1" arrows="1" fold="1" page="1" pageScale="1" pageWidth="850" pageHeight="1100" math="0" shadow="0">
            <root>
                <mxCell id="0"/>
                <mxCell id="1" parent="0"/>
                <mxCell id="63" value="" style="rounded=0;whiteSpace=wrap;html=1;fillColor=none;dashed=1;dashPattern=1 4;" vertex="1" parent="1">
                    <mxGeometry x="340" y="290" width="460" height="270" as="geometry"/>
                </mxCell>
                <mxCell id="12" value="" style="rounded=0;whiteSpace=wrap;html=1;fillColor=none;" parent="1" vertex="1">
                    <mxGeometry x="135.16" y="670" width="280" height="130" as="geometry"/>
                </mxCell>
                <mxCell id="24" value="" style="rounded=0;whiteSpace=wrap;html=1;fillColor=none;" parent="1" vertex="1">
                    <mxGeometry x="1051.29" y="670" width="190" height="130" as="geometry"/>
                </mxCell>
                <mxCell id="20" value="" style="rounded=0;whiteSpace=wrap;html=1;fontFamily=Helvetica;fontSize=12;fontColor=rgb(240, 240, 240);align=center;strokeColor=#000000;fillColor=none;" parent="1" vertex="1">
                    <mxGeometry x="842.22" y="435.75" width="180" height="48.5" as="geometry"/>
                </mxCell>
                <mxCell id="2" value="" style="strokeColor=#dddddd;shadow=1;strokeWidth=1;rounded=1;absoluteArcSize=1;arcSize=2;" parent="1" vertex="1">
                    <mxGeometry x="570" y="430" width="120" height="60" as="geometry"/>
                </mxCell>
                <mxCell id="3" value="Cloud Run" style="sketch=0;dashed=0;connectable=0;html=1;fillColor=#5184F3;strokeColor=none;shape=mxgraph.gcp2.hexIcon;prIcon=cloud_run;part=1;labelPosition=right;verticalLabelPosition=middle;align=left;verticalAlign=middle;spacingLeft=5;fontColor=#999999;fontSize=12;" parent="2" vertex="1">
                    <mxGeometry y="0.5" width="44" height="39" relative="1" as="geometry">
                        <mxPoint x="5" y="-19.5" as="offset"/>
                    </mxGeometry>
                </mxCell>
                <mxCell id="5" value="" style="dashed=0;outlineConnect=0;html=1;align=center;labelPosition=center;verticalLabelPosition=bottom;verticalAlign=top;shape=mxgraph.weblogos.github" parent="1" vertex="1">
                    <mxGeometry x="237.58" y="422.5" width="75" height="75" as="geometry"/>
                </mxCell>
                <mxCell id="8" value="" style="shape=mxgraph.cisco.computers_and_peripherals.laptop;html=1;pointerEvents=1;dashed=0;fillColor=#036897;strokeColor=#ffffff;strokeWidth=2;verticalLabelPosition=bottom;verticalAlign=top;align=center;outlineConnect=0;" parent="1" vertex="1">
                    <mxGeometry x="115.16" y="650" width="60" height="41" as="geometry"/>
                </mxCell>
                <mxCell id="9" value="" style="strokeColor=#dddddd;shadow=1;strokeWidth=1;rounded=1;absoluteArcSize=1;arcSize=2;" parent="1" vertex="1">
                    <mxGeometry x="390" y="430" width="120" height="60" as="geometry"/>
                </mxCell>
                <mxCell id="10" value="Container&#10;Registry" style="sketch=0;dashed=0;connectable=0;html=1;fillColor=#5184F3;strokeColor=none;shape=mxgraph.gcp2.hexIcon;prIcon=container_registry;part=1;labelPosition=right;verticalLabelPosition=middle;align=left;verticalAlign=middle;spacingLeft=5;fontColor=#999999;fontSize=12;" parent="9" vertex="1">
                    <mxGeometry y="0.5" width="44" height="39" relative="1" as="geometry">
                        <mxPoint x="5" y="-19.5" as="offset"/>
                    </mxGeometry>
                </mxCell>
                <mxCell id="13" value="" style="endArrow=classic;html=1;exitX=0.5;exitY=0;exitDx=0;exitDy=0;shape=flexArrow;" parent="1" source="12" target="5" edge="1">
                    <mxGeometry width="50" height="50" relative="1" as="geometry">
                        <mxPoint x="270.08000000000004" y="607.5" as="sourcePoint"/>
                        <mxPoint x="330.08000000000004" y="570" as="targetPoint"/>
                    </mxGeometry>
                </mxCell>
                <mxCell id="14" value="" style="endArrow=classic;html=1;entryX=0;entryY=0.5;entryDx=0;entryDy=0;shape=flexArrow;" parent="1" source="5" target="9" edge="1">
                    <mxGeometry width="50" height="50" relative="1" as="geometry">
                        <mxPoint x="54.92" y="330" as="sourcePoint"/>
                        <mxPoint x="350" y="460" as="targetPoint"/>
                    </mxGeometry>
                </mxCell>
                <mxCell id="15" value="" style="endArrow=classic;html=1;entryX=0;entryY=0.5;entryDx=0;entryDy=0;exitX=1;exitY=0.5;exitDx=0;exitDy=0;shape=flexArrow;" parent="1" source="9" target="2" edge="1">
                    <mxGeometry width="50" height="50" relative="1" as="geometry">
                        <mxPoint x="60" y="390" as="sourcePoint"/>
                        <mxPoint x="110" y="340" as="targetPoint"/>
                    </mxGeometry>
                </mxCell>
                <mxCell id="16" value="" style="sketch=0;pointerEvents=1;shadow=0;dashed=0;html=1;strokeColor=none;labelPosition=center;verticalLabelPosition=bottom;verticalAlign=top;align=center;fillColor=#505050;shape=mxgraph.mscae.intune.user_group" parent="1" vertex="1">
                    <mxGeometry x="907.22" y="310" width="50" height="37" as="geometry"/>
                </mxCell>
                <mxCell id="23" value="" style="shape=mxgraph.cisco.computers_and_peripherals.laptop;html=1;pointerEvents=1;dashed=0;fillColor=#036897;strokeColor=#ffffff;strokeWidth=2;verticalLabelPosition=bottom;verticalAlign=top;align=center;outlineConnect=0;" parent="1" vertex="1">
                    <mxGeometry x="1031.29" y="650" width="60" height="41" as="geometry"/>
                </mxCell>
                <mxCell id="26" value="" style="dashed=0;outlineConnect=0;html=1;align=center;labelPosition=center;verticalLabelPosition=bottom;verticalAlign=top;shape=mxgraph.weblogos.github" parent="1" vertex="1">
                    <mxGeometry x="1108.79" y="422.5" width="75" height="75" as="geometry"/>
                </mxCell>
                <mxCell id="28" value="" style="endArrow=classic;html=1;exitX=0.5;exitY=0;exitDx=0;exitDy=0;shape=flexArrow;" parent="1" source="24" target="26" edge="1">
                    <mxGeometry width="50" height="50" relative="1" as="geometry">
                        <mxPoint x="1321.29" y="620" as="sourcePoint"/>
                        <mxPoint x="1321.29" y="467.5" as="targetPoint"/>
                    </mxGeometry>
                </mxCell>
                <mxCell id="29" value="" style="endArrow=classic;html=1;entryX=1;entryY=0.5;entryDx=0;entryDy=0;shape=flexArrow;" parent="1" source="26" target="20" edge="1">
                    <mxGeometry width="50" height="50" relative="1" as="geometry">
                        <mxPoint x="1050" y="460" as="sourcePoint"/>
                        <mxPoint x="1020" y="370" as="targetPoint"/>
                    </mxGeometry>
                </mxCell>
                <mxCell id="30" value="" style="endArrow=classic;startArrow=classic;html=1;dashed=1;exitX=1;exitY=0.75;exitDx=0;exitDy=0;entryX=0;entryY=0.75;entryDx=0;entryDy=0;" parent="1" source="12" target="24" edge="1">
                    <mxGeometry width="50" height="50" relative="1" as="geometry">
                        <mxPoint x="450" y="737.91" as="sourcePoint"/>
                        <mxPoint x="1010" y="738.29" as="targetPoint"/>
                    </mxGeometry>
                </mxCell>
                <mxCell id="31" value="&lt;font style=&quot;font-size: 14px&quot;&gt;Backend&lt;/font&gt;" style="text;html=1;strokeColor=none;fillColor=none;align=center;verticalAlign=middle;whiteSpace=wrap;rounded=0;" parent="1" vertex="1">
                    <mxGeometry x="340.08000000000004" y="670" width="75.08" height="30" as="geometry"/>
                </mxCell>
                <mxCell id="32" value="&lt;font style=&quot;font-size: 14px&quot;&gt;Frontend&lt;/font&gt;" style="text;html=1;strokeColor=none;fillColor=none;align=center;verticalAlign=middle;whiteSpace=wrap;rounded=0;" parent="1" vertex="1">
                    <mxGeometry x="1161.29" y="670" width="80" height="30" as="geometry"/>
                </mxCell>
                <mxCell id="33" value="&lt;font style=&quot;font-size: 16px&quot;&gt;OpenAPI定義を用いてスキーマ共有&lt;/font&gt;" style="text;html=1;strokeColor=none;fillColor=none;align=center;verticalAlign=middle;whiteSpace=wrap;rounded=0;" parent="1" vertex="1">
                    <mxGeometry x="570" y="742.29" width="300" height="30" as="geometry"/>
                </mxCell>
                <mxCell id="34" value="" style="endArrow=classic;html=1;entryX=0.5;entryY=0;entryDx=0;entryDy=0;exitX=0.5;exitY=1;exitDx=0;exitDy=0;exitPerimeter=0;startArrow=classic;startFill=1;" parent="1" source="16" target="20" edge="1">
                    <mxGeometry width="50" height="50" relative="1" as="geometry">
                        <mxPoint x="931.7200000000003" y="331.4999999999998" as="sourcePoint"/>
                        <mxPoint x="500" y="250" as="targetPoint"/>
                    </mxGeometry>
                </mxCell>
                <mxCell id="35" value="" style="endArrow=classic;startArrow=classic;html=1;entryX=0;entryY=0.5;entryDx=0;entryDy=0;exitX=1;exitY=0.5;exitDx=0;exitDy=0;" parent="1" source="2" target="20" edge="1">
                    <mxGeometry width="50" height="50" relative="1" as="geometry">
                        <mxPoint x="660" y="410" as="sourcePoint"/>
                        <mxPoint x="710" y="360" as="targetPoint"/>
                    </mxGeometry>
                </mxCell>
                <mxCell id="37" value="" style="endArrow=classic;startArrow=classic;html=1;entryX=0.5;entryY=1;entryDx=0;entryDy=0;exitX=0;exitY=0.5;exitDx=0;exitDy=0;" parent="1" source="24" target="61" edge="1">
                    <mxGeometry width="50" height="50" relative="1" as="geometry">
                        <mxPoint x="540" y="350" as="sourcePoint"/>
                        <mxPoint x="760.0025" y="206.5" as="targetPoint"/>
                    </mxGeometry>
                </mxCell>
                <mxCell id="40" value="" style="endArrow=classic;startArrow=classic;html=1;exitX=0;exitY=0.87;exitDx=0;exitDy=0;entryX=1;entryY=0.5;entryDx=0;entryDy=0;entryPerimeter=0;exitPerimeter=0;" parent="1" source="16" target="57" edge="1">
                    <mxGeometry width="50" height="50" relative="1" as="geometry">
                        <mxPoint x="840" y="530" as="sourcePoint"/>
                        <mxPoint x="820.5" y="566.5" as="targetPoint"/>
                    </mxGeometry>
                </mxCell>
                <mxCell id="41" value="" style="endArrow=classic;startArrow=classic;html=1;entryX=0.5;entryY=0;entryDx=0;entryDy=0;" parent="1" source="55" target="2" edge="1">
                    <mxGeometry width="50" height="50" relative="1" as="geometry">
                        <mxPoint x="630" y="530" as="sourcePoint"/>
                        <mxPoint x="620" y="360" as="targetPoint"/>
                    </mxGeometry>
                </mxCell>
                <mxCell id="43" value="" style="shape=link;html=1;startArrow=classic;startFill=1;entryX=0;entryY=0.5;entryDx=0;entryDy=0;entryPerimeter=0;exitX=1;exitY=0.5;exitDx=0;exitDy=0;exitPerimeter=0;" parent="1" source="55" target="57" edge="1">
                    <mxGeometry width="100" relative="1" as="geometry">
                        <mxPoint x="665" y="584.3653846153845" as="sourcePoint"/>
                        <mxPoint x="760" y="584" as="targetPoint"/>
                        <Array as="points"/>
                    </mxGeometry>
                </mxCell>
                <mxCell id="45" value="" style="shape=image;verticalLabelPosition=bottom;labelBackgroundColor=#ffffff;verticalAlign=top;aspect=fixed;imageAspect=0;image=data:image/png,iVBORw0KGgoAAAANSUhEUgAAA/8AAAFxCAYAAAAlJxjXAAAABHNCSVQICAgIfAhkiAAAAAlwSFlzAAAI2gAACNoBH+sbpwAAABl0RVh0U29mdHdhcmUAd3d3Lmlua3NjYXBlLm9yZ5vuPBoAACAASURBVHic7N15fF1Vuf/xz9onU1um0gEEtVAQmVFkEkFARLkozlSUsQKmSdpiK22SVn8eB5qTFlotzUkjlElEDSqKV1RwxOmKF68MIjKUSUSgBSy0SZqc/fz+SJk7JXudrHP2+b5fr1LaJs/6tk2T8+w1gYiIiIiIiIiIiIiIiIiIiIiIiIiIiIiIiIiIiIiIiIiIiIiIiIiIiIiIiIiIiIiIiIiIiIiIiIiIiIiIiIiIiIiIiIiIiIiIiIiIiIiIiIiIiIiIiIiIiIiIiIiIiIiIiIiIiIiIiIiIiIiIiIiIiIiIiIiIiIiIiIiIiIiIiIiIiIiIiIiIiIiIiIiIiIiIiIiIiIiIiIiIiIiIiIiIiIiIiIiIiIiIiIiIiIiIiIiIiIiIiIiIiIiIiIiIiIiIiIiIiIiIiIiIiIiIiIiIiIiIiIiIiIiIiIiIiIiIiIiIiIiIiIiIiIiIiIiIiIiIiIiIiIiIiIiIiIiIiIiIiIiIiIiIiIiIiIiIiIiIiIiIiIiIiIiIiIiIiIiIiIiIiIiIiIiIiIiIiIiIiIiIiIiIiIiIiIiIiIiIiIiIiIiIiIiIiIiIiIiIiIiIiIiIiIiIiIiIiIiIiIiIiIiIiIiIiIiIiIiIiIiIiIiIiIiIiIiIiIiIiIiIiIiIiIiIiIiIiIiIiIiIiIiIiIiIiIiIiIiIiIiIiIiIiIiIiIiIiIiIiIiIiIiIiIiIiIiIiIiIiIiIiIiIiIiIiIiIiIiIiIiIiIiIiIiIiIiIiIiIiIiIiIiIiIiIiIiIiIiIiIiIiIiIiIiIiIiIiIiIiIiIiIiIiIiIiIiIiIiIiIiIiIiIiIiIiIiIiIiIiIiIiIiIiIiIiIiIiIiIiIiIiIiIiIiIiIiIiIiIiIiIiIiIiIiIiIiIiIiIiIiIiIiIiIiIiIiIiIiIiIiIiIiIiIiIiIiIiIiIiIiIiIiIiIiIiIiIiIiIiIiIiIiIiIiIiIiIiIiIiIiIiIiIiIiIiIiIiIiIiIiIiIiIiIiIiIiIiIiIiIiIiIiIiIiIiIiIiIiIiIiIiIiIiIiIiIiIiIiIiIiIiIiIiIiIiIiIiIiIiIiIiIiIiIiIiIiIiIiIiIiIiIiIiIiIiIiIiIiIiIiIiIiIiIiIiIiIiIiIiIiIiIiIiIiIiIiIiIiIiIiIiIiIiIiIiIiIiIiIiIiIiIiIiIiIiIiIiIiIiIiIiIiIiIiIiIiIiIiIiIiIiIiIiIiIiIiIiIiIiIiIiIiIiIiIiIiIiIiIiIiIiIiIiIiIiIiIiIiIiIiIiIiIiIiIiIiIiIiIiIiIiIiIiIiIiIiIiIiIiIiISLq40AFEvOnuzvDso3vQv34ykZuEuUkQvx7cjjgmEDMe57YBwGwMjhqwAkRrBn+OHiJbDawmtlU49zjwEMZDuMzDDNT+g5kz+8L9BkVERERERIZHzb+Up+7uDKse3g/iIzE7GMeBYPuAG1XEUQdw3Etsd+HcX4jjPxJv8xc9EBARERERkVKn5l/Kx4r2N9NrJxK5d2P2dmC70JHA+iC6DeznmP2Mp/puI5uNQ6cSERERERF5OTX/UrrMHB1thxFVfQziDwK7hY60Ze4piG+kEH+XmvG/pL6+P3QiERERERERNf9SeroW7sGATcXZqcAbQ8cZPrca7HrMrqCp9c+h04iIiIiISOVS8y+lIZutYmLth8GdC3YsuLR9bN6BYwU17hrOaX4udBgREREREaksaWuwpNysaN+WPjsbOJ+ynuXfamswu5qaaDHnNf8zdBgREREREakMav4ljK7c9lh0PnE8A9g+dJwRZ6zHcTV11W186rOPho4jIiIiIiLppuZfRtaiRWMYE88EPgM2NnSc8KwPYwVkcjTN/XfoNCIiIiKJLVo0hu0K4yhkdgDbHot3IHI7YLYDsD3mdsDZDuAGb24yq8Kx7Yb3zvDKG50KwJoN/98Hbh1YH47VGKtwrAZ7EsusIjPwBH3bPKhrmEU2Ts2/jAwzx/LcRzDXTmUs7x+qtTi3mLqeRUzN9oYOU1G6szWsGvWl0DHKh/sxjXN/GzqFiMhr5NumQbTbsN8/tj8yveWH/gKl1LIF43DRPkRud2LeSGSTMPcGsNfhGIcxDhgVMGEM9ijO3Y+5ByC+H+fuwOxWGlufCZir+Dpzp2LuLcmKxM/Q2NruJ5CUGjX/UnxLcwdRxTLg8NBRSp6xEotnM33ejaGjVIxFi8YwpvB86Bhlw9kFNLReHDqGiMgr5Nsmg7uXwVnj4fo3o3p310P4l1m2YC8ymcMxOxTYD9gfmBg41XAZcD9mtxJFt1Jwv6Npzv/hnIUO5k1H2zU4d1rCKg/R2LK7lzxScqpCB5AUuyJbR++oOcTWDNSEjlMWHJNx0Q/I576Hy5xPw5wnQ0cSEZGttOyiSVSt348d9/wZU6YUQsepKI7PYokaf4Cd6a07C+jyEamsdbS9B+euBcZhqemNHfAmnHsTZqcRGXS2/4t8+424+EbivptpymoyQFJNzb8UR/4rR7Cu6nKc7an1JcPyUSw+lnzbTBpbrwsdRkREXqZz0UQY2B+i/cH2J3b742w/GNiOOIK1d49icJ+yjIRLL9yJfjfVSy3jArq7L6v4hzfOjQfGhY4xAnYBOxdz5+Lq1tOZ+wkxK5gw+caK/xiQVFLzL351d2dY9cBsIIujOnSc8mbjwH2TfO4j9NU2MGvWs6ETiYhUlK7c9li8L7E7ANz+DC57PgArTBicRNwwI5qiVcNlqT8zE397zPdk9cqPAt2e6kn5qMH4II4Psmrlv8jnrgRbQWPrytDBRHxR8y/+dC7eldUrrwX39tBRknOPg70udIoNPkpN38EsbTuVma3/FzqMiEiq5XMzMHciLt6PApMgCp1INmdF+7b0WaPXmsZc1PxXul2AeeCaybddS5T5MtPm3hc6lEhS+oomfnTkjsL6/4iRgsYfwBaGTvAKjt2p4hY62z4VOoqISMpNwdlJ4CaFDiJboS+eBuzguerbWN5+gueaUp4y4M4gjv9OPncVHW17hg4kkoSaf0kun5uB4yawnUNH8cP9D3W1Pwmd4rVcLeaW09F2CdmsVu2IiEhlW7q0FtxnilLbrLkodaVcZYAzce5u8u25wY89kfKj5l+Gr7s7Qz63BLiYNG0hKcTZ0BE2y7l6Jo76EV257UNHERERCSaz7kwGl2f7ZxzPsgW6olherRqsmap1d9HRflzoMCJDpeZfhmfRojGsWvldoCl0FK8ctzCj9ZehY2yZHU/ML+lcvGvoJCIiIiMum41wfLaoY0SZ4taXcrYnzn5OZ24xXV064FrKhpp/Gbqu3PaMiX8MvC90FO8KfCl0hK1mHEC8/hYuW6z9ZyIiUlkmjPoI8ObiDmIfZfnCNxV3DCljEcYsCs/8kq4LS+WQaJHNUvMvQ5NvG0vsfgx2ZOgo3jl3M9NbbgkdY0gcb2B9/y/52qL9Q0cREREZMc7mjsAoEbFdMALjSHk7ikLmf1m+ICWHXkuaqfmXrXfZ4h3B3YzZYaGjFEV//xdDRxge25nq+Gcsv2jf0ElERESKbln78cChIzOYncUl7cU5V0DSZBfi6BcbPjZFSpaaf9k6S7Pb0d//38CBoaMUyY+Z+blbQ4cYPptAPHATX794r9BJREREisqN6En8tWSYOYLjSfkaRWQ36CBAKWXpOaFdiqcrO5q47oeYHRI6SnGYYXGZzvq/wkQG+m/k0vZjOa/5n6HDiIiIeLc8dxAxJ4zsoDaNFe0Xck7zcyM7bqo8D6zBWINjDbAG3DMv/bL1gVv3ynfZ8HPOHOZ2wFkN5sZgjMFZDTAW2BaYBJTK1XujcXYDnQtOpGHe70OHEXk1Nf+yedlsRKH2SuAdoaMU0fU0zf9r6BCevJF+fsySJccwa9azocNUFvdTiH8dOkXRxZTXuRgiki7GZwKMuj3rmQosDTB2eYviI/n3+j+RzcZFG8PMsWzh64hsNxy7AYPfx7wVx0HASJ/Gvw0WXc/S9oOZqckYKS1q/mXzJoxaCPah0DGKKKZQe2HoEH7ZPtT2XUd39n1Mya4PnaaC3EJja3voECIiqXXphTvRzyeCjG02k+7uDqZMKQQZv1wNRGuK2vgDOGfAvzZ8+8Mrfu2KbB19NW8ljk4EPgC8pahZXjKBKvsW2exxZLMDIzSmyBap+ZdN68zVY5byfW7WzYzZd4ZOUQTHsKruq0Bj6CAiIiJe9GcaCbe8ew9WPXgy8INA48twTM32An/c8O0L5NsmY+48HOcAE4o8+lFMHPUVoKXI44hsNR34JxuX/8oRxFwcOkZxWYGqmq+ETlFE59LZ9qnQIURERBK7IlsHTAuawdmsoONLco2tK2lqaWVg9BvA6oHHizugzdUVgFJK1PzLa1164U5Y9bdx1ISOUmTX8OnP3hs6RFEZX+OSr6T0oEYREakY60adBkwMmsF4J8sWHhw0g/gxc2Yfja1fZ23mTcAXgJ4ijeQoZC7GzBWpvsiQqPmXV8pmIwYy38BZyu+0tX5cXcr2+m+MqyWq+hZdue1DJxERERkWM0dk5yesshofDV4Ua/Y/TebMWUtjy5eIooOAXxVlDGdvZ3n7x4tSW2SI1PzLK02om41xbOgYxeeuoGHWQ6FTjAjHJAosDx1DRERkWDpzx2MckLQKcK2HNFO4pD3lEyQVaNrc+2hoPp7BVQDmvb5ZjqVLS+U6Qqlgav7lJR0XvgXIho5RfNZHtcuFTjHCPsryhWFOSBYREUnCoqSz7X1Y1AEZH1f11ZCxJg91pNQ4ZzS2fAmz0wDPtyW5SWTWfsRvTZGhU/Mvg7LZKlzm6xWwzx9wX+e8Crx3NY6XskKzFSIiUkaWLdgLZycmqmF8k6a5/6Zxzh34Wdo9jUWLxnioI6WoqfVbmJ0J+L2i0LlPe60nMgxq/mXQxLq5jNzdpwFZD5nai0KnCGR7+izlNziIiEiqRJlZJHu9asR89aUfOh+z/zuyTeF0D3WkVDW1fgdncz1XPYZ8+5s91xQZEjX/Al+/eC8q5Q5Sy+Spn1Xka11K2kfpyJ0cOoSIiMgWXbZ4R7AzE1a5mRktd774o/G7/wh4MGFNMM7XCe4p19B6MfATjxUdcI7HeiJDpuZfYKB/MVAXOsYIeJ7ILQkdIjz3Nbqyo0OnEBER2az1/fVAsq9X9qoVb1OmFIBliWoO2od87r0e6kgpK7hzgWf8FbST/NUSGTo1/5Wuc+H7gfeEjjEizC2lYc6ToWME5+z1xKN0VZGIiJSurq5qSHqwnruLxpabX/PTfbWXA88nqw04p6+laTej+V9gbR4r7kvXha/zWE9kSNT8V7LubA1xvDB0jBHyLC7+WugQJcPsAh3+JyIiJWvg6Y8Buyaq4eIlOPfaa9tmzXoWuCpR7UHvofPC/T3UkVK2tioP+Jo8chQyx3uqJTJkVaEDSECr687BsWfoGCPkqzS2ely2VfbG0Bd/HmgIHURkqy1ZsgN1616PZd4AjMXcDsBYHNsC2/PiA+14FM4VMLceZ2sxtx7secw9TeQewdwj1GT+ybmznw73mykzyy6aRBS/ESvsAm5nHBNxjMLchhPPbRtwz+PiASx6Dot7wT1GFD1OzD+p6X+c8+Y/EfY3IWXFuemJ3t94glF9125mgEvAGhnchz18cVQPzEhUQ0rbnDlryee+Blzop6C9G7jGTy2RoVHzX6muyNbRg+9TTEuUW81Aj4/9fWlzJpcvWcSnZq0MHUTkRdlsFTtV7w2Z/TH2A/bZ8G0S9I3BMi+97UYm9Db8AhiAvfT9C29vG/5/fQHyuWcx/ozjz8TcSibzR20NYkOjXzgW7GjgAGAfGNgWAPeyPunlf7Yv/IS5we9feDuLB1ur/gzkc73AIzgexdwDOO7E3J1QuEMPZ+UVli08GOIjE9Vw5Jma7d3krzc2/4N8+88g4TWCzp3FivZ5nNP8XKI6UuLs2+A8Nf/uID91RIZOzX+lWldXj0u4nK5cmF3MzOya0DFKj6ump3c+OnlWQunuzrD6vn2wqreBvQ1zh+DsICzhAV9bbwccJwAnEAFWiMm3/R5z36PgvsfM5n+OUI7wli04nEz0cYwPwsDkIo1SB+yFsRfY8S89PHCQb38U7A7gdnB/gvi3Zf1AoK/mXeTb1oeOAYBFj9HU/PfQMYYkE89gU8/2tk4PA3HnFt/K4q/hXLLmH7ZlPWfh5xBBKVWNrSvJ5/6Kn2ux34SZ2+iWFJEiU/NfiZYurcX1zCbhV9ayYO4J1kVbfgFQqRyfpHPJl2mY9VDoKFIh8m2TIfoA2ImsWnk0ZEa/YmY+rAjc0TiOpsqWkM/9AlwH43f/0YYTwtOlK7c9Bfs0uGnA5LBfEuwNwBuA9214IBCTz90B3Egc38Cq9X8mm41DJhySOPpx6AgvclwGnBc6xlZbumACxqnJirhvMHPeU1t8s8aWn9HZ/g8g2d3rsTVh1qFmLvVuxE/zP4ZLFu4KVM4DZikZOvCvElX1nApWGSeNOlvInDlrQ8coXS5D3DszdAqpAJe070K+7RZw94MtAd5L0iu8issB7wa7nlUPPEBH7vzB08dT4LLFO5LPLaLAI+AWAsWa6U8iYvBF9jyi6H+YWPcYHTmfJ25LqarKnEuy64eNTGHrrvUdbNYvSTDWhjrsTdfCdyeuI6XN7A5vtTK8yVstkSFQ81+RrFIOpnmc3prLQocoec59imULxoWOISlnhX5wR5P0cK0g3CQcX6XwzF0brkctT9lsFfncDNavvw+4ANgudKQh2Jmks7NS+rLZKpIfRPtT6ufds9Vvbb1XAcm3BlrSawml5Jm7y1stx27eaokMgZr/SnNJ27uAA0PHGBGOBcye3RM6RhkYjYumhg4hKTe4BPfZ0DES2guLf0Q+dz35trGhwwzJ8oVvYkLdH4GlwI6h4wyLsz+FjiBFNmHUhzZsAUnALR/Smzdln8f4VrIxAeP9dLbtlriOlK7qsfcCfrYfDd5SIzLi1PxXmohzQ0cYIY8wrveK0CHKyLmYleGMrJQV4/7QETz5ELjbyLe9LXSQrZLPnU4c34bjkNBRErHo1tARpMiixCsTH2H87kM/b8HZpQnHBciA0/W5aVZf3w8876VWrOZfwlDzX0m6LhqP4+TQMUaG+zJTsqVx0nI5cEymo/3o0DEk5Vxqmn+A3cH9no5c6X5ONXPkcxcC34Cyf6EZU8f/hg4hRbQ8dxDGOxPVcO6yYR3O2dh6G46/JBobwDiHxYtHJa4jpczTlY62jZ86IkOj5r+SxP1ngKsNHaPojPt5sueboWOUncg+FTqCpJzZfaEjeFaL4zqWLzgpdJDXGNzf/w1gXugonvxd96inXOymJ6zQzwArhv3e5mX2fxx1/QlvKpAS5+nqaDX/Eoaa/0pi7uOhI4yITPRlstmB0DHKj/uAZiykuFyaZv5fUEscfY+O9uNCB3mRmWNCXRfOnRY6ikda8p9mly3eEeyTCavcwIzmfw37vQf6rgWS3w7kLOlDDCll5unQ2kg9mIShD7xKcemi3cHeGjpG8bm/8+913wmdokxtw6i+E0OHkFRLY/MPUIez68i3lcaVeZ3tX8GRspU8puY/zdb3nUPiqz9taAf9vdrM7BqM5K8fjIPpyB2ZuI6UpghPM/bOz9kBIkOk5r9SDBROAZf+A92ML5LN+jmJtRLFnBI6gqRYIU7bsv+XG4dzP6AjG3YpZz73X0Br0AzF4NBJ/2nV3Z0B15iwyn00tPwicRbnfCz9hyjxFgYpVabmX8qbmv+K4T4QOkHROe7iqZ4fhI5R1px7L93ZmtAxJKUGr/v7T+gYRWMcALVtwca/9MKdMK4AT8tSS0cP0Y7+7teW0rLqwfdBwjvPnXXhnCXO0tj8PzjuTFzH7KN0LpqYuI6Ulu7uDHhq/s3XwYEiQ1MVOoCMgMsW78j6vrel7/Xgqxif16x/YtuyqubtwG9CB5GUMu7zeOXcc+CeBet/6ccMMHiyfTUwFtjB01hbx7lGOtu/QUPzyC9TX59ZgGOn4g9kD2PR33D8E2fPgnseizfcruJqwY0GqwXGAxOAnYE3ADsObzz3lw1XbEkq2bSEBXop2JU+kgBgXAosTVilhrhwNrAweSApGasemATOU+8Ua+ZfglDzXwn6178HXCZ0jCK7jYbmG2lsCZ0jBareg5p/KZbB6/62pvnvA/4O3A38A9zDED+GRY9RlXmKx59/dqsO9uzKjiaungzRm8EdjXEscCDFexoaYbacbPaQEX0YuSy3H46zilT9IcxuwPEjBvpuZWZ2eKddd100noGBvXG2P7h3gB0NbtIW389pv39qdS3cg0L83mRF7Dqmz1vtJxCAXQOuHUh2AK7j05gt8rIiQUpDZHsTe/rSYdHTfgqJDI2a/0oQ2wmp3+5v9gV9gfUlPgGYHzqFpNbGDv3rB+4A92fgVtzAn3mi/x4vt3bUZ9cBd2349j0AuhbsTSGqBz4FbJd4jNd6KxNHfQAYuW1Ijv8H+HzIa8CNxCxkesstXirWX7AK+N2Gb4OHs3W27YZxIriTgHcBYzbynuXY/P8fUCIr0ezh0Ak2KY4/TdItqOaSHfT3ao2tz5Bv+y64MxJW2oOuhe8GbvYRS0pAwb3Z22PjaOBeT5VEhkTNf0Vw7widoLjcH2hquSl0ihQ5kK7c9tS3pHdvtoQzuOwfYCXmrse5HzJq3Z+Zmu0dsQz18+4BZpFv+xK42cAsNt50Dp8xl5Fq/i+9cCf6+bDHij+hQDMzWpLvfd6ShtaHGHwQsJylS2vJrD0G5z4AnAqMA8DKcOZ/VO+RI/oxXY6WLq3F1iW8lcLuoKn1D34CvUzsLiMiafMPZp9GzX96OPdOT5UK1PWn9fYbKXFq/tNu8EVhaVw/VSyFOBs6QspEDNjhgB6oiH+x+zmReytNc/8aOgqNrc8An6ej7SqcuwI4ylttZ2+nc8E7aJj3e281N6U/OpvBMw6S6gXXSGPzFR5qDd3MmX0Mft65ie7sbJ6q/Si4qTS1rgySR4qrat0pDJ4LMXzO86z/C5qaf0u+/R4ceyeqY3yQjoU70zT3356SSSjd2RpWcbynag/r4aCEotP+066QOSJ0hKJy/JIZrb8OHSN1oujtoSNISs1o/ldJNP4v19R6P0/2HofDzzVfL7DoNK/1Nj3OBz1UWQ98JFjj/2pTsutpav0WTS3vCR1FiqYh4fs/T3/vN70keTXnjMgu81CpGhcnXN0gJeHpUccweJisD//wVEdkyNT8p13MwaEjFFXMV0JHSCVL+ceNyKtlswM0tHwax9c8Vv3whquhimdpdjucHZq8kP0/Glt+kryOyFZYnjsIODJhleuGffjk1ui3qxl8KJbUuWSzer1d7ga3cPjh7C/eaokMkZb9p53ZASk+7O+nNLX8rjil436MB4tTewNnrwfnY6luEdiBoROIBDFu8mdZtXJP4H0equ3MqoeOopi3Z1TVHU3yr+Uryey42Eccka0Su2mDZ0omqcGVXrJsysx5T9GZuwHjYwkr7c6E2vcAP/URSwLIt03GPJ6rUnDaVinBqPlPO+fS28SZfblotT/12UeBNxet/uVLJtPbd1fR6ie3K8sWjPN7fZJIGZgypcCyBWcRRXcxeD99QvG7KerVmbZv8lsL7evU1/d7iSOyJUuz24El3RLzAE3Nv2V6ka/3jW0FziVt/sG5etT8lzE3D3+3qayheuwfPdUSGTItQ0qzFe3bgr0hdIzisBtoav1z6BTD1tM7n1J/+OaifUJHEAli+rzVmJvhqZq/QwQ3ynl4SFml5f4ycqrqziDp3mnnrhqR630n7HEzuEc9VHo/l7Tv4qGOjLTOtmMZvBbWD+MXetgqIZV28yHJrKvejcz6FK75N4OqL4VOMWyDs/6fCB1jixy7MXgft2wVayKf+2joFH7YOhpbfV1pVJ4a536PzvY/A0n30x9Gd7aGKVkfe4c3JultLgNktvu7lyQiWyXxkv+YQuZqX2k2a8qUAh1tV+Lc5xNWqqKKc4DirVgU/zqy22DuUpIvr3qJM60AkaDU/KdZ1cCkpFvqSpP7Lo1z7gidYth6eufjXOn/23Nu99ARysyuG76lgHsudILgnDM629ow9/2ElUbz5Oj9gWId8LRdwvd/TrNQMmLyC4+GeP9ENRy/YvoFD3tKtGVx1RVkCvNJulrW7Fy6uxcwZUrBTzApqmy2Clf3bWBPj1V7gOs81hMZMi37TzXbLXQC/6xApqp8n5xfvmQyzpX+rD+A2aTQEUSCinb8b4wnkteJ9/WQZlO2Sfj+JXroqKSSs6TX+4EV+aC/V5sx50Hglx4qvZFVK0/0UEeKzcwxcdQl+Dn49eV1v09j6zNea4oMkZr/NDP3utARvDO+Tf0F94SOMWzlsNf/JdqfKJVtcEb8B4nrONs7eZhNsbqEBbahI5v0AYLIlnUumohZ0q1Ra8j0Jl2NM3SOFZ4q1XuqI8XSna2hs/1qsGneazuWeK8pMkRq/tPM4gmhI/hlBTKZBaFTDFs5zfoPGh86gEhwkd2cuIa54h2eaa4ncY2q0Tt5SCKyeXHhTKAmYZXrqM+u8xFnSOp6fwA87aHSSSxtf72HOlIMHQt3ZlXdz4DTvdc2bqax9TbvdUWGSM1/mjnGhY7g2ZVMm3tf6BDDVl6z/mCp+/gRGboo/oOHKsV7se9Ym7jGgL3VQxKRLTkncYWRXvL/gqnZXsyu8VApQzVTPdQR3/K503Hx34Bji1C9QIY5RagrMmRq/tPMsWPoCP5YH5nRbaFTDFvXwj3KbNY/ZR8/IsNUP/9xEs/4WTFn1tckruDsZA85RDatc8E7cCTd/nIfjc2/95JnODLuci91LD6HbFavv0tFfuEx5HO/AL4BRXrd46yLaS23F6W2yBDpk0+6jQ4dwBvjcurPfyR0jGEbKMyjnGb9AbDRmKXwqkiRIbs7lhE1qwAAIABJREFU2bu7Yjb/Kz3U+BidX0nJTRVSkizyMOvvrsK5cHcYTWu5HeN/kxdyk5hQ+57kdWTYrsjW0dH2cfJtt0D8a+BdRRxtNdW1Sa+KFPGmzJoRGRJzNQnv0i0VvUS1C0OHGLbLl0ymt6+8Zv0BcI7rvlgNFOt+cpHyYPwNx1EJKtSxon1bzmn2f4Wica+HG6hHY9WXYXZS0OZK0mlF+7b02SkJq8TQf7WXPEk4WwHukOR13HmA7nsfSVdk61hX+06c+xA9nIpj7IiMa8zm3Nk+zosQ8ULNf6pZ0oN1SoRbTsPsx0KnGLae3vk4V57/1p6iBjX/Uumcezjxg9T10SjAf/PvuNNPITuR/MIGIO+nnsgGffHHwSW7UcL4BU2fe9RTouHLuG9R4GKSr6w8mY6FO9M0998+YslGLM1uR2bU23DxYVj0TnrsWNwIr4g1umhqCf/QSuRlyrMhka2Vhvub1+Kii0KHGLauhXtQiMtw1n+D2u1S8gBJJAlLvq8+KiS9km/jrPe3uLp+fHy+d7aUfO5ZGluuTR5M5AUu+ZL/yF3lIUhy9S3/IZ/7LnBmwkrVRPHZQC55qArUlR3N+lE7kInGYwM749xEHK/H3CRgN7DJwJ5gETgIs6DpVgqjzw8xsMjmqPlPt/7QATxYRsOcJ0OHGLaBwryynfUH6FujWX8R+E/iCv1xcZr/puzzdOb+iPFOD9UywNV05Ko0WyVeLMvtBxyRsMpzRD3X+4jjhbkrcZa0+QfjHMzaU7/VJqKbfG64V5Juz+D5ZNsx+PlpG6CaApAxoABuw74ne/E/peBxbOBjzJzZFzqIyKuVb1MiW8GtL6FPhMOxhpqaJaFDDFvZ7vV/mQla8i8Cbk3yz6VR8VZimX0DnI/mHyCD4yo6cycz4M5nRvO/PNWVSpThnOQvQ+z71GfX+YjjxVM9v2Fi3UPAbgkr7cny3HHALxNnKm37hg4wohz/pBAfz/QS2KYishE67T/NnJV34+bc18r6kJSe3vmU9QM2M075QhpWj4gkFCdvPDKF4t2ckem7FnjWa03jY2TsbvLtn+GKbHFWLUi6dWdrME5PXCeOvuEhjT/ZbAz4WRlj7jwvdaRE2MOYHcP0efeGTiKyKWr+08xYGzrCsBlPE9nS0DGGrWvhHjhX3rP+uHWpX44okgaDs6LF+Hy5PdgSeuoeIJ+boYcAMiRPjfoAMCFhlcdY1fMrH3G8ykRX42dp5Yfpumi8hzoS3t3E1cfQ2Orj+lWRoinjWUnZMnsaD3dABeHcEuqbk++zDaXc9/oPWh06QHlx82hsbgudouJks1VMGD2eqH88ROOBcZgbBbbhVOdoNMTrsKiAYzVR4QnWZx6ldocnqK9Pz8oW612EqzsPeF0Rqu8CLKWnroV8rpPqwqWcN/+JIowjaeJIftAf7toNM+2lpX7uA3TmfuvhrI1aCgNnAot9xJJgrmZtppE5F5TvpJtUjHJvTmTzyrV5W0VtGV83lYa9/gCubD9+JI0WLRrD6MJBRO5gjP02nOa8B/BGiKuxzKve4YUHn8YrTnuOI6gyKDxj5HNPAI8CdwC34+xvUHVXWR4y2pR9no62WTj37SKOsgvwZfoznyef+y5GB00tfyjieFKuunJvpGDvSVynYKW15P8V7CovZ20Y52G2RCvtytI6cNNpbL4idBCRraXmP9Uyq6D0HphvkbNFnNPi/z7skdLTOz8Fs/5gav4loCVLdqB2/bFYfDzOHQeFvYEM5u31sQN23vDtUADMAQXI51aD3QXuDuBWsPJY7t7U+h062k7GudOKPFIN8EkcnySf+zvYVRSib+hwQHlRgbNJvrX0dma03OkhTXHURNfRZ0uBMYnqOPamc9FRwG+95JIR4n5KpjCL+nn3hE4iMhTl36DIpjl7vPwO+3ePE/V2hU4xbGmZ9QfAHgudQCrMZYt3ZH3fx4BPQt9RQObFa5xG1jhwxwDHDP6wjLZPFfoaqa47EOOAERpxH3A5MnYh+dxNYFcwvu+HTMmW94GzMnzZbARMTVzHuCZ5mCI6p/k58m3fB3dG8mKF81DzXx6Me8jEn2XavBtDRxEZDh34l2ruodAJhsxZrqSu9Bmqsj/h/+Xcw6ETSIXoyB1FPvc91q9/HFzXhsb71ev4ZWvMzK4hHngfMNKz8Bngv8B1s6ruUTpz7XS07TnCGaQUTKx9F8mvwSsQu2s9pCkux5WeCn2MJUt28FNLiuR+HI1UjT1Qjb+Us5Q0KbJRA1UPkymjyRfjUQZGXx46xrClatYfgIdCB5CUy7d/CKwFODx0lFRp+tyjLFtwHJG7CdykAAkmYszFuTl05n4JfJ1xvT/QaoAKYZydeLGM8cuy2EbyRN+vmVj7sId/Z6Oo6/sE0OkjlnjkuAVzS3iy54aSPHxSZIg0859m0ZoH8bhBtvjcAmbO7AudYthSNesPFOIHQ0eQlOpY+BbyuV+BXY8a/+KYPu9erHA0jpB7ph3G8Rjf4am6R8jn/h9LFyS9+k1KWVdue5z7SOI6kSvhg/5eJpuNMa72Uss420sd8eERzF1MHL2NhpZjaGz+gRp/SQs1/2nWlH2+bJZuGw8zoac8vthvzOVLJuNcmmb9YWDU30JHkJS5IltHZ+6ruPg24NjQcVKv6XOP8nzm7eC+EzoKjp2AL1IVPUy+vZNlC/YKHUmKYIApwKiEVdYS91zvI84IuRq8nLB0GMty+3moI8OzEscSovhIGpp3o6n5AqbP/UvoUCK+pWeWUjbO7C6c2y10jC1yjOWpujvpyBVzjH/Q2PKBotROywn/LzD3T2bNejZ0DEmRZbn96OVbI3gQnQDMmbMWOJV828/BLQa2DZxoFNg0oujT5HM34OKLaJj3+8CZxBfnZfb6+sHJizLR1Ho/+dzvgaMS13JuKnBB4jqyNR7A+A2R+zWR/Yb6lkde/JVp8wLGEimu9DQrsgnRHWDvD51iK2yHY7uijuBYW5S66dvrD5HdETqCpEg+9z6gG2N06CgVq7H1Mjrbfo65PPBfoeMwuPLwQ1j0IfK5X2HuyzQ1/yp0KEkg3/5msCMT13Elfsr/xpi7EmfJm3/sdLq6Wqmv709eSzZYC9wN3IHZ33DcSXV8J+fNfyJ0MJEQ1PynnUNLloqtt28eafu35CJ93Igfne2nYXYFUB06SsVraH0IOIlluQ8ScTGwR+BELzgOZ8eRz/2YOJ7N9Hn3hg4kw2CW/KA/eJxxk3/uIc3IKvRcR1XdUkj4gNOxE/3PnAT80EuudFsD9gy4Z4BncKwGHiO2h4l4BKJHiQYepX7+46GDipSSdDUs8lqZzB8o9BuBLstOvcFZ/0+GjuFdXPhD6AiSAoON/9XofJnSMr3lh3R13Ujh6akQfQ7sDaEjbfA+ougEOtraqNrxQs1+lpHu7gyrVnq4757RrFr5J/JF3AJYPH4OWM4wlVQ1/zYFWDnsd4+sh9j1ApCJeyhEvYzfYw1TphQ8BRSpKGr+067+glV05B7AofuWiyGNs/5YgYz7c+gUUuY6ckdhtgI1/qVpsLH+Ol1dVxA/82GMBkrjEMYanPsCA8+8j3z76TQ2/yN0INkKTz1wAs7t6qHS9sDbPNQpX8ZJXHrhTqlZlh67u5neogOERUqEXpRVAodmcYuha+EeQPpm/Z27g/qW/4SOIWVs2UWTcFwP1IaOIltQX99PQ0s3jS3HEcX7YbYMWBM6Fo5DwP5EPlcK5xPIlrjo7NARUqSagej00CFEJJ3U/FcCs5tDR0ilQtxK6mb9gdjp40WGz8wRDVwGjB+hAR8G91Oc5YEvYHwaF51MFB8JdgiZeB+wPcD2II7fDHYIcXwE2AkYH8C584HFwPeA24DyOWXct2nz7qapdQbWuyuOaRD84M/tgR+Rb5sWOIdsTr5tLNgHQ8dIFdPDFBEpjvQ1LvJatbU3s76vAC4TOkpqpHWvP4DZTaEjSBnrzJ0D7t1FHGEN2A8xfkxU9Ssa5jzptbqZozO3O7E7gIjDgFOAN3kdo9QNXrPWBXTRueAdWNQIfJQwKzky4PJ0tI2iqXVJgPFlS5w7FaMudIx0sf3pbD+MhuZbQycRkXRR818Jzp39NPnc/wKHh46SGqnc6w/Ac1SP/WPoEFKmlizZAfouKk5xdxcWX0xf7XeYPbunOGMAzhmDh1OtZPDQrfl0tJ2Nc1cUbcxS1jDv98Dv6Vw0CyucC25agAMCHc4tJt/+NI3NV43w2LIlxtmhI6SS2dmAmn8R8UrL/iuG3RA6QWqkda//oJ/qhG0Ztrq+aQwu1fbpAcxOpWHugTS1XlnUxn9THP8c8TFLTcOcJ2lsWcCTPZNx9jHg1yMfwrrItx8x8uPKJi1fsC9wWOgYKfUJFi8eFTqEiKSLmv9K4equA/NzDU2lS+tefwDcd0InkDK1dGktxkyvNY0uMr0H0tT6nQ0z8hJaNjtAQ+v3aGw5Dlc4ANxlwPoRGr0W7Jt0ZZPdpS7+xJmzQ0dIsR2o7ftQ6BAiki5q/itFw6yHcNFtoWOUvcuXTCa9s/7P0Vutw/5keKrXfRB4nadqBbAGmlqmUZ9d56mm+NYw/y4am8/DDUxm8NDEkTgscTKFui+OwDiyJdlsFZhOpS8qNzV0AhFJFzX/lSQ2zeomld69/gA/DLKkWtLBONlbJbNzaWxd7qmeFFvD5x6jseWz1NRMwuyLwHNFHvF8Ott2K/IYsiUT696Lvwd+sjGO4+nKvTF0DBFJDzX/lcTia8D6QscoW+me9YeBuDIPNJPkurszgK/72Ntoar3SUy0ZSefOfpqm1iwusyfQARTr/JBqLGotUm28bJFbl9qHxC/jzgqdoAJEDLgzQocQkfRQ819Jps9bDU4H/w1Xumf972NG6+9Ch5Ay9eT9hwDjPFS6jSd7v+ChjoQ0eDjgdKJoP7D/Ls4gdjZdF40vTm03kLhENCbd5xLk28aC+VrtI5vj7MzQEUQkPdT8VxorXBY6QllK9wn/4OxyHagmwxa5A7zUMWaSzSZvvKQ0TJt7H42tJ+Pc6cBqz9VrKAx83HPNFyRfsTDAGA85StnHgbrQISrEXixf8PbQIUQkHdT8V5qm+b/CcXvoGGUn1Sf8s5aCXRk6hJQx5/b1UOV2mlr+4KGOlJqG5m9SXdgPuMlz5WI9kE3e/FetT3fzb5Fmo0dSnNGft4h4kdZmRjbLLQVbETpF2bh8yWR6+9I7629uxeCWEJFhMvZLXMO56z0kkVJ13vwn6O4+iVUru4BzPFU9jI7sNjRlfd8y4OGsgqr0LvtftmAvnB3hodI/wN3hoU4Js0OB3TzU+ThLl36GmTN1bpOIJKLmvxKN6/kOq+q+gk7p3Trp3us/QG3mktAhpNzZzuCSlYjjP/nJIiVrypQC2eynmVi3A/BRDxWrcLVHAD/3UOslZmtxST+eU7zsP4rOIPE/eAA3l8bmdJ9DlG/7NLguD5XGkuk5Gfiuh1oiUsG07L8STcmuBy4KHaMspP2Ef+ybnHvBw6FTSLlz2yYuEXGPhyBS6rLZmIHeT4H5+bzj3CFe6ryy5rPJi9g2yWuUoGw2AvNx+vxqxvf81EOd0lZT+11gvZdaOvhPRDxQ81+pRvVeCjwWOkbJS/Wsv/VTXbUgdApJheSNTuSe8ZBDysHM7BqMZi+1zO3upc7LOUve/Dvb1UOS0jNh1DHgJiUv5K7bMBGRbufOfhrM11kXJ9K5aKKnWiJSodT8V6qp2V4cudAxSlraZ/2NKzlvzoOhY0gqJG/+x072vW9bStmEPb4LPJS4jpn/5h98PIh6o4capSfyNfvsrvVTpxy4b3kqVI3F6X1NIiIjQs1/JYvGXg7cGzpGyUr1rD/PU1X3ldAhJDWSz+A9c3ethxxSLqZMKeBj/7Jz/s+usWhV8iLR5OQ1SsyiRWMwH2c12MM0zPld8jplwnpvANZ5Kqal/yKSiJr/SlZf3w+FOaFjlKS0z/rj2qmf9XjoFJIaaxNXiMekc4+0bM6vk5cw/wfrxfwzeRF7S/IaJWZM4cNA8vM94FqcMw91ykNT9nlwP/JU7a1ckjvAUy0RqUBq/itd4/yfAOk/dGeo0j3r/xCjer4WOoSkSvLm38XpXCYtm5aJkh/yaBThSr3Cox6KvImObLoeaBl+Zp1j900vdcpJbL6W/kPG09+DiFQkNf8CNTWzgd7QMUpG6mf9mcXUrP6+xR/Hc4lrmO3pIYmUk3XVqxPXcPjfLlK93sPMPxGu7mgPdUrD0vbX4zjeQ6Xbmd7yNw91yks8+qf4OUsC4DS6uzOeaolIhVHzL3Du7Ptx6NT3F6R71v86Glt+HDqEpIx5OLgttrcnDyJlpeY/Ax6qeNpL/TL12XUYTySuY3aihzSlodpOx8trRqu8WX+AmTP7gO97qvY6Vq18j6daIlJh1PzLoCd6LwL+GjpGcOme9f8PmdoLQoeQNHIPJC/hfMwqSlmpGuuhSPJVJxvjSD477aIPp2aG1s+S/5iByN/y97Jj3/ZYTEv/RWRY1PzLoGx2gJipVPry/zTP+jtm6JA/KY74fg9F9iPf9jYPdaRcZKr39lDlPx5qvJbZXR6KvCEVM7QdbYcC+3iodAszm31sqShP4/f4FfBvT9U+SFdue0+1RKSCqPmXl0xv+RvOvhA6RjDpnvW/hoYWn7MOIi8T3eGnjvuMnzpSFuL4uMQ1nIdVJxsv7KH5ByANN+p4mmWu0CX/L5gypYBZt6dqoyjYKZ5qiUgFUfMvr/RE39fA/SJ0jCB6e1tJ46y/8SADvWqqpHgyO9yGn+XXn9Tsf4Xo6qoGd5qHSv/wUOO1jD94qnQcHW3lO/vfna3BuU94qNRHX913PdQpb87rtgct/ReRIVPzL6+Uzca46CzgsdBRRtTlSyZ7eiFaanqxwieYmV0TOoikWH19P/A7D5UicNeyot3HXeJSygaeaQSSX+8Ye9ibvzHTW/6Gw88Sdee6WJrdzkutkba69n3AOA+VfsysWc96qFPeGub+CXjQTzF3FPm2yX5qiUilUPMvr9Uw50kGBj4O1hc6yohJ66y/s5lMn/+X0DGkApjd7KnSXvTZDam7I72YOhe+n3zuMjrajyObLf2v653th+Fo81Appirzaw91Ns74madKu5EZ9S26szWe6g1Nvv3NmLlhva85P7PL5ip7yf8LnDOPB/85TwcxikgFKf0XCRLGzM/dCswKHWNEpHXW36yLhtYrQ8eQClETXwv0e6p2LFHdb1i+8E2e6qWbxccB5+Dsl0yse4R87mKWLTw4dKyNyi88BrMbgVGJaxl/of6CVclDbULMj7zVcnYSq+pu4LLFO3qruTld2dHk288in/st2D10tO879BoXjQdO8pDmWUb33OihTjoUnL+l/86dMewHOyJSkdT8y6Y1tl6GRUtCxyi6dM7638RTfZXx8EZKw3nznwCPzZJxMHH8f3S0falsl0yPGHf4y36wKzCbKL6Njtzf6Wz/PF0L9wiV7EUr2rcl356D+Gb8LCMHxw+91NmU6rE34u90doD3sr7vL+TbP+Sx5it1tB1KR245hbrHwa4EjgIgs+H7oYgLpwI+Vit8j6nZyr5J6OVmtNwJ3O6p2mQ6Fw3971ZEKlbaGh7x7al1rUyo2w3Hh0NHKYrLl0ymty9ds/6Ou4k4jWx2IHQUqTCRW05sH/FYcQzOfZ6quvPpaLuajF3LjnveypQpBY9jlLdstgrsrRv9NcfemH2Jgn2JfO5POH5AIbqJVev+SjYbj0i+ZQv2wrkm+uxswOdDnH4yhRUe671WfX0/HbkrcbT4K+omgV1PPvdnnC2nYD9k+rzVwy7Xna1h1ejDofBfEJ0Mtv9G387sHUDXkGrHdhY+5pS15P+1jGtwHOSp2JnAb/3UEpG0U/Mvm5fNxixefDaj1o/HODp0HO96e1vBpenfwUPUuJM4p7k4d1+LbM605pvpzN2C8U7PlbfDuenEbjqrVq6io+1nRNFPcHYXtb3/8D6r2NVVDf95IwN2EBEHYHas1/o+7VR7AMborXjLwzEOJ4rbmFj3JPn232DcThTfTcydPNW3MvEDge7uDE8+8npc/xFEvBNzxwD7gpcW8lXc96mf/7j/uq8exi4FdwH+Xy8dirlDidyldOb+CtyGcQ9mT+Oip8E9A4V1AFi0HS7O4NyO4HbGbCec2x1sf1axN8TVg3/EtrnfyDuGlG75gn2JOWTYv7sXh+WfPNnzm8R10iZ215KxHJBJXsxOYfHimcye3ZO8loikXZqaHimW2bN7WLToA4yJfwx2ZOg43qRt1t/cE1RXvZ9zPvuv0FGkgplrBvsDRWn4ABiPc6dhdhoG9NTF5HMPA/cCq8E9D/wHrAds3UvvFo19WY0I2P6lzFaFs/HgdgV2pfDMToDbYj9VEtxhw3iniWCn4DgFc4N/UxPr+snnnsLxb2L3byJ7EnO9wOCDROM5XDyAcw5zO4BlwG0HcS24NwK7sWrl64kYbESL++fWT6aQLeoIL2hsXUm+/Uqwc4s0QoRxMDB4RoN74YPOePGfkNvw/wYv/sHakP+AJ3NJ+y7MaN66rw9x5kwvf4nGt0dslUk5mdH8L/K5XwA+roHcntq+DwE+rxEUkZRS8y9bZ86ctVy2+COsX38TcGDoOF6katbfPUUN7+G8z94bOolUuMbm/yHfdg24M0ZoxAjYfcM3XtmwvPz5w2YaGffqty0jMYd5il4N7IKxC85e2WjCS39Gr/j5lzWoI8mxjPp594zYeNb/JVzV6UDdiI1ZDFV2FNC9xbfr7s6wauXpXsa0SEv+N8W5azDz0fyDi85Ezb+IbAUd+Cdb79zZT9NX+27gT6GjJJaqE/7dv+mP3st5zX8PnUQEgIybATwUOkZFcBy+5TdKlfvp782O6IhNn3sUWDyiYxZDbFu39P/pB9/F4MGRSf2Nprl/9VAnnZ6Pvg+s9VPMTqDrwtf5qSUiaabmX4Zm1qxnWZs5EfhV6CiJpOeE/0fIuOM4f85doYOIvKi+5T8YZwA6dLKYVrRvC+wTOsYI6iHiY8zMrhnxkQdGfwnsjhEf16fIbd2p8IX4LE8jXuupTjrNmbMW7PueqmUYyKRkQkNEiknNvwzdnDlryfR+GOyG0FGGJS2z/o7bydQeTf3cB0JHEXmNppbfYZxDGeyaL1u9HELlfB0vYDaVaS2+rkgbmpkz+4jcmcD6IOP7YBy04YHRpq1o3xbnfNzuYzhT878lxjXeakWc6a2WiKRWpbxoEN/qs+toaDkF574cOsqQpWHW37mb6e89nvpZxT/tWmS4mlquxrmZoWOkVmSVsuS/gHNTaWr9TtAU01pux3EWUK4H2GXo54jNvsX6+BTYqtsjtuT3NLQ+5KFOuj3V93PgMS+1jAPobNv4tZ8iIhuo+Zfhc85oaP4yjvPB+kPH2SrpmPXv4ImeDwZZ+ioyVA3Ny3A0oi0A/hmHho4wAp7H3BQamr8ROggADS3fBmsJHWPYCvHm9/2br4M6TQf9bY3BmxA8HtTnfG3ZEJGUUvMvyTW0dGKFE8CV/ix0ec/694I7j8aWWWSzaqSkfDS0dGL2PuDZ0FFSxTGca/7Kh3EP5g6jqdnXvmg/GlsXgZtHOW5p2dy+/8623YBjPIyyntiu81CnQmT8PdgyPkFXV7W3eiKSOmr+xY+mz/2BzMAROG4JHWWTjJ3LeNb/Pgo176Cx+arQQUSGpan1JmzgQBw/DB0lFS5p3wXj9aFjFMkAjiXQeyhNJXqLSWNzG45Tgd7QUYbEOIJsdhMPwKMz8HN348+YPm+1hzqVoXHOHR4Pk5zIwDMneqolIimk5l/8qZ//ONOaTwA+i5XkoUjjKcdZf7NvYr2HM2P2naGjiCTS9LlHaWj5EM4+AtwbOk55s3HAg6FTFMHvsOhQGlpm05R9PnSYzWpo6cbZkUA5XWf3OONGTXzNz5o5zPws+Tct+R8yc/5m/3Xwn4hshpp/8cs5o7HlEuKBY8H9I3Sc8uaewtnHaWqdWvIvgkWGoqH1esZP3hc4A+Oe0HHK0oyWO2lo3gMXHwV0AqtCR0rGfoOz42lsObqs7oZvaP0/MmMPA+YDPaHjbEI/uOvATqCheS9mNP/rNW+Rb3878CYPYz1HVd+PPNSpLLG7Fih4qWWcTL5trJdaIpI6av6lOGZ87n/J7HAw2PwSXQVQ6r7HQOEtNLReHzqISFFMmVKg8f+3d3chcl5lHMD/590km1TbarOlMUTMhxXqhdTa3igVqRQtBQsisQqCUmHJxgYaiUkqyFxIyUdN0Fg1QqlIvakVQfCrNOZGEWIJRVpRatpVaNlkk1Rr06TZnfd4sVup2NqkO7s7yf5+MMzNcM4zwzAzz5n3/M+2BzOy9b2p5aYkD6Z/m6fz0U3yl6T8OKV8LaV+MgPNu3N04k89n6mUmg13/y4j20YytHZFam5Mys6kPNHzuWbHiST70jYfyMj2j2TD9t/Md0FvyvDwREa23ZParE1yb5J+WKx9MSUPJ/lcUq/KyNb1Gdn+aEp5vZyCXv1b/NMMd17q0VgLx51bn0tNr97/g0k+3aOxgIvMhXcJNBeO4eGJJLvzzd2/zJLuvtT8/5RhkuSp1HpXNm5/ZL4LWTAGByeT070Ip+rPvcn9bqoZOZjkYL7V2ZjFgzenlluS3JJk5fwW97rGU/O3NBlNW6buU0bTbZ/J2SVPZ/PmuV/EWL++m+S307dt2bd7TRa1t6bWjye5Mcllc17Ta3s6pf4qtfwik5c8mk2bXp7vgnpm41fGkmzJt+/Zkab5bJJPZCpAb64C2EaT8khSf5ZlZw7kC51zzyNo0qSWmX8ONt3vzXiMBavuSZpehaJeMeMRav6e0oP3RJlwMtFcappDqVkyozFKO96jauhDvQh2gXPznR23JtmbZPU8V9KPXkwpezOxbNdF9WMYZmL/rnVp2xumj7S7NilXJ3VVZue7659JxpJg7mTkAAAEdUlEQVRyPKnjSTmW2h5N0xxP244nzVhqPZbTA6PZsuXULMw/ex56aCDHj1ybmg+naW5Ire/J1CXes70g8HxSn0gpj6XmsdR6KBu3/3WW5+wv+3dcnsny0ZT2+qR5f1KvS/K/e+7P3+nUPJnkj2lyKG09sOBeWwDOm+afubVnz7IMnt2YUr48HVi10J1JLd9Pt7szm+620gpv5IHO0pxaui4DWZWUobR1KCVDSVmcWt+WUv77e63mXymZTK01yfMp9WRqczKlnEi3PZlFkyezfHI86zsLb3vSfbtWpOTqpLsitbkyTZanbYeSLE9pliT1lX3DA3n1QkEtZ1PqKwsgL6RmPE09ntocT6ljaeuRDA4eyRc3n5zjZ3Rh2H/vULp1ZdJ9Z2pWpuTKpFyWqa2Yl//ncbXWlPKPpG2T5lhKHUttns1AnsvbV49OX+0BAOdM88/8uH/npTmbTanZ9KofmAtIfTmpD2RwYEfueI3wJQAAgB7S/DO/7uu8NWXw9qTcld4kDfe7F1LrD9MMfiMbNj8738UAAAALg+af/tDpLMpVg7elljuS3JSL7ySKx1Nyf9ozP3JsHwAAMNc0//Sf7+5dnfbs55P6mZSsme9y3rwynnR/krb+IF/66uH5rgYAAFi4NP/0t31fvz4Diz+VWm9Lybr5LucN1XI0qT9PqQ9naN1BgUwAAEA/0Pxz4di/a11q/VjaenNSPtgnQYEvJflDSg5kov46d257fPrccgAAgL6h+efC1Ok0GVp6TZr6odRyXZryvtR6TZK3zN6kdSKl/Dm1Ppk0h9N2f5/Fyw9neHhi9uYEAACYOc0/F49Op8k7LlmTiYm1GRhYnba8K6VdlZQrUspQah1KyvQZynVZkqVJnUiaqQC+mlNp6onUjCc5kTRjSTuaZDTNomdSLn1Kow8AAAAAAAAAAAAAAAAAAAAAAAAAAAAAAAAAAAAAAAAAAAAAAAAAAAAAAAAAAAAAAAAAAAAAAAAAAAAAAAAAAAAAAAAAAAAAAAAAAAAAAAAAAAAAAAAAAAAAAAAAAAAAAAAAAAAAAAAAAAAAAAAAAAAAAAAAAAAAAAAAAAAAAAAAAAAAAAAAAAAAAAAAAAAAAAAAAAAAAAAAAAAAAAAAAAAAAAAAAAAAAAAAAAAAAAAAAAAAAAAAAAAAAAAAAAAAAAAAAAAAAAAAAAAAAAAAAAAAAAAAAAAAAAAAAAAAAAAAAAAAAAAAAAAAAAAAAAAAAAAAAAAAAAAAAAAAAAAAAAAAAAAAAAAAAAAAAAAAAAAAAAAAAAAAAAAAAAAAAAAAAAAAAAAAAAAAAAAAAAAAAAAAAAAAAAAAAAAAAAAAAAAAAAAAAAAAAAAAAAAAAAAAAAAAAAAAAAAAAAAAAAAAAAAAAAAAAAAAAAAAAAAAAAAAAAAAAAAAAAAAAAAAAAAAAAAAAAAAAAAAAAAAAAAAAAAAAAAAAAAAAAAAAAAAAAAAAAAAAAAAAAAAAAAAAAAAAAAAAAAAAAAAAAAAAAAAADD//g1NiK5dl7SgcAAAAABJRU5ErkJggg==;" parent="1" vertex="1">
                    <mxGeometry x="125.16" y="708.29" width="177.43" height="64" as="geometry"/>
                </mxCell>
                <mxCell id="46" value="" style="shape=image;verticalLabelPosition=bottom;labelBackgroundColor=#ffffff;verticalAlign=top;aspect=fixed;imageAspect=0;image=data:image/png,iVBORw0KGgoAAAANSUhEUgAABLAAAAGiCAIAAAB4ZaivAAAABGdBTUEAANbY1E9YMgAAABl0RVh0U29mdHdhcmUAQWRvYmUgSW1hZ2VSZWFkeXHJZTwAAEDxSURBVHja7N1PTFXXAjdsLnH0pkKnVSJ5J1VJioNiZFBIr0ltm1YdaNoYcaAmRVMTvQMcaHAgsQMZXE1slCbVgZimjQ5Em/ZqYhvoACMdSBPUTt5g0E4L3HzTfgt2ey5VxAOcP3uv/TwhXGp78Zx91l57/dbff/zxxx81pN57+3cNjgxn/V18/+VX7S2tlfwbRx+NHT3dk/Xr1ryu6XRXt7sAAICSW+ESELHfp6ciCNIAAFAmtS4BAACAQAgAAIBACAAAgEAIAACAQAgAAIBACAAAgEAIAACAQAgAAIBACAAAgEAIAACAQAgAAIBACAAAgEAIAACAQAgAAIBACAAAgEAIAACAQAgAAIBACAAAgEAIAACAQAgAAIBACAAAgEAIAACAQAgAAIBACAAAIBACAAAgEAIAACAQAgAAIBACAAAgEAIAACAQAgAAIBACAAAgEAIAACAQAgAAIBACAAAgEAIAACAQAgAAIBACAAAgEAIAACAQAgAAIBACAAAgEAIAACAQAgAAIBACAAAgEAIAACAQAgAAIBACAAAgEAIAAAiEAAAACIQAAAAIhAAAAAiEAAAACIQAAAAIhAAAAAiEAAAACIQAAAAIhAAAAAiEAAAACIQAAAAIhAAAAAiEAAAACIQAAAAIhAAAAAiEAAAACIQAAAAIhAAAACzdCpeAiDWuajh+4HDW38WaVQ0+SgAABEJYfCA8eMR1AACAeZkyCgAAIBACAAAgEAIAACAQAgAAIBACAAAgEAIAACAQAgAAIBACAAAgEAIAACAQAgAAIBACAAAgEAIAACAQAgAAIBACAAAgEAIAACAQAgAAIBACAAAgEAIAACAQAgAAIBACAAAgEAIAACAQAgAAIBACAAAgEAIAAAiEAAAACIQAAADkwwqXAAAASKfRR2O/T0+FHyanpsLPi/r/1q+sa17XlPzcuKohfLmeAuESTU5P3f+r/A3dGy78+ePfnow/mXh5Wayra359feEf2za2KpRQxSfKMzfyzL/69UF4zBT5e9paNs37pGlvaXWRc2786UT4KvzjM8Vs5mny3+nRh4trzTSubljz2up5i9yGtU3hH112Ml0bL4emVHz1Z6ghQ6s7eSg/U6OWUPPapldX1iW165pQilY35Lw6FQhfUhZDDpwsRZ11486t//3DhbNzH+2hCCYlsnn2h/DdBwHLuYXHn0w8fjpRaHmX6i4uGBwZfmkDZe5jRlCMQ/K5F/qnCx2CoV272B7rxRl5yb9PniMzTZx1TfWvrAwPkfq6OqWOSir0myfV7zN9H2W/R14cEZObIvk56Y6v0ZOSpuf10L3h0N4OxaZiJaTQJfF87ZrUpaHMzLTJ1zXlqhb9xx9//JHz+iuUxeS5vnAjr5JCEQwF8Y3X17dvbE3qtff270rPy1uy77/8ShuF0j5LQoMj3L/he/n6EUvYRmlr2dQ8+7DRpZ3y1JeM7JW7i7rcCh2O4WkSSp1GMCVpNSV9IoW8l+nGSTJMVJjGlXSmhD/RNV++CjZJgIP3hkvbUVu+EhKa4nMb5AJhJEItFkrh0M93kxZk+l9wKH+hFIbXnNEWiUBICR8khfiX9f6R0C4P93Xbm5vCdy2P6nYoFOaDRNDpVswDJSTDUPDy1vnN0rJfMtw3NHK3kkN86ZHcI3MH3vWqLDkEhlKU9To2aZC/Nfvgji8c5iIQJiHw5g+38/C8FwiJ7M795dcH9x+ORdwWCc2LbZu3hGdM+K6pUb4WSTKskZ/sV2R7t61lU9vGVjUz4aYI8S/Ut6MPx0o+zT6+GycZVEwW9FrHOG+HwsCdWzd/vJ2VkcDFSkYOO7btiKZLN9pAmJTFn36+G76r13IbCMMT7r39uyJ49oRLl59GSRxdiUuzdfOWD99+RzJcfldCsiIlFKTsTviscK9EaNyEshf9tCjmVrYh+0Xf41b5lJjnRbyhsr1x51b/wLX8lKhk2HD3th1Z/8RjC4RJWTQYKBAKhEJg1pNhx9Yd4btL8VJzV4Nr2i5faM52bJspe5JhfHdKYcmMyrYyUSFZOh797mLJGMyVgWt5Llfhs555cGd2zDCSQJiUxc+vXNIUEAgFwkxI+m5C0+RvG/Dy3AMmPF0OdewzYDhvAhydnd5mALB8Nc/ubTuMV8cRAsN3DaSq+3Mz+dfXt80OxUfQ5xJaWSEHXr5+1Yc791P+dPfezNWcmQ+EM2PTN65pUwqEAmFWHh43f7gdbliN+OIliwyPHTic2xEbCbDqxS+0b+x+lLmaVghM/82VHHLwxuvrN6xrytAtlgzDfHbhrNo4mgd3VgNhKIL916/2D1xTFgVCgTD9bswuLregd5n2bN95uqs7J8M1oSF7/+HYTz/fNQs0PRVRiIWmMae8jR7xNh45uctSfgheaHV/fuXS5etXlbEibZ3tUEv/hOHsBcLQMkjKokImEAqEcmDehDR4aPfe4wePRPnuCqtJbXKYWo2rGo4dOLxn+06XIj0NdNPvo3S6q/tQx75UlbTPLpzV/F5yQ+7YwcNpjoVZCoShrfDZ+bNWQguEAqEcqFHe19MbwRYFFjiJhSz53rk8O0/KjROl+pV1D78bSsl8EFEwD7FwRSauYCiFNoyBlEtmklgfWJlL/d7+XYc69h0/cDhzM0jDiw/x76fZEKioZLcEdp7oCvf76aPdzjCsfIvo5o+3jQfG7dDuvWmo2yenp4729oiCpTI4Mjy4fzjUmaHmTNuS0RXpv3ZHT/eIgpBa9vitlnP9F0Oj8OszfenfikAIjFK45d/bv2vr5i2nu7qdUVGBqx2qWTMv8mBmaUC1J4uGYhYeMeeuXFLeyhFtWj/6IG2bAqxI8/UyQRQ0UFg4aIXnSt/J3hRO3kumgyZbXAiBEbtx51b4iI8fOJyq9U7R0OOWQ1UfHgw39dHeHvV2WV2+fjXc2umpOdMYCE1WBg0Uitd5ouunn++GWJielxTH8l2KrxNC8/HmD7f7enoNFZawLWQ7x3zqqF4H38xs8O4ugzGVrDn7B6590dNb9Zk+qQuEp86fMUINGigsSvhQxp9MfH2mzxniVLEXoPWjD053ddtsZvlXMlmP7VLkULh9qtWrogVeFaOPxkLNefzA4eruH56iQBhqwM7uLiPUoIHC0j6jd/fv+s+XX8mEVEtoSibj1fk5MLO0bsxOvjA+k2fHDhyuSib5pLvLrJ8qOnXh7I0fbldxqLA2PY+Q9/bvkgYhbS5fv9r60Qfh9pQG0y88zkMm1L9L1SuNdz3QF3/R1r/f9vG/OqXBPKvK8OC5/ovhhpUG0/AED82t8HHkNBCGum/d+21WDELahFopNFA6T+g1zNgT5eMjna4DaWjZqDqKj4KhphWhqfDw4OT01Mf/6jza26MbMT3Cx/FeNTp2qxkIk8WU7+nPhrTWShooWTQz/f5El+tAdYUn+7v7d+ntXfhWDU0gUZDE1s1bKjk8OPpobN37beb+pLNmCB9NhTvUqhYIk6lN1RoYBYhYaIWrXUlDJgxpRyZ8XkiAIQqGLxNEKfh0996K/V3hAdH60QfGY9JceYYPqJKVZ3UCYbIqyWQSgDI52tujjiUNZMJn2nnh3lz/fpsoyFztLa3hq2K3ZCiErnkmKs+KzfepdCBM+gtNZwIot4+PdOoARiZMj3P9F9e932b0nucdO1iJ1YOVH3dimcKH9fG/KvEor2ggHH86YUUBQMWq3FMXzroOpCQT5nlMLNllx+4dzKsyw4O2esqoG3duVWD/8MoFQgURoMLO9V9U65ISHx/pzGFpDM24U+fPaP+wgAqsHkx27rB9UUZV4OOrUCBMFg3qGAOosKOnrRUhLdEob+dkJl3hBupZQOOqhq2bt1QgTmiER1CZlK9fqRKBMKRBiwYBqmJwZNhEfVKVCXPyZpOBQWMyLKzcZw8akoms/ixTJix7ILSFDEB1fWaAgtQIrZnoWwUGBilS46qGPdt3ljUNaoTLhNUPhDYWA6i68acTqmLSI5TGiI/DDu+ufL34RKasw4PSYMSZsORDvmUMhNIgQEpcGbjmIpAen5zoim8uZeFgLdPzKEZZhwfzMBQvE2YgEEqDAOkxODJsyIJ0ZafuqFqrDtZisTq27ShfGszPYt18KvlGQWUJhNIgQNr0GyQkTWLa7ii8FwdLsCj1K+sOdezLRFQgtZnwk9INApc+EEqDACmkZiZt4jioPdxZ72l/s0iHdu8NmbDkvzaUw0+6TVrOixt3boVaNI2B8Fz/RW0OgBQKTYTBkWHXgVSVyaxvxWkrdZagfMODNjTKm1Ilr1IGwvCCSpVTASi5mz/cdhFIW2smo7vLJFvI6ARnCco0PBgKpDSYQyF8Lf9zL1kgHBwZ1kkGkGaD94wQkjpZPCcz2eVPGmRpOsqwuWgojQpkPoXq6OMjncucJ1yaQBiCaXgpPhKANAt1dXx7/ZN1oRWbrWJZvrOhyYM923c2rmooed1uVCbPQhW6zA1mShAILWAFyEwmfKgVS+pkaJBQGmSZSn4YfTJA5MLm3I07t871X6xmIPzElGWAjBj6+a6LQNpkZZBQGmSZyjE8GNrhpn4QnLpwdsm103ID4anzZ0Ik9RkAZIIRQtKpP/XLn6RBlq/kw4Pn+i9qh1Oooz7pXuLE0WUFwsGR4axvGA2QK06eIKWBcOCaNEjctm7eUtrhwfGnE9rhzBXqqFPnz1Q0EJqyDJDRB4aLQNqEpm1qBzqkQUri0917S/sLO23hwXOWNnF06YHwkxNKIUD2/K7qJpVu/pjSczLtlcDytbe0hq8S/sJz/RfN+GBeR08v+lj4JQbCy9evmrIMkEVDTiMklQZS2a7oPNGlwcPyHTtYytWDJouygMGR4cUeSlm7tFJ4tLfH5QbIose/PXERSKHJ6am0Ra9z/Rcd9s3ylXx40GRRFhaS2qJKSK1SCJAr409sUE5KpWrWaEinur8pidKuHgwl02RRFhaS2qLGkGuVQoB8BUInVpFWg6mZzzz6aOyTE10+EZavcVXD1s1bStjQ109BMc71Xyz+cV+72FKofgQQCKFMhTMN5TM5zstkKEqitGcPLqqVT84V33ewuEB46sJZ9SMAUCZpGCS0rSil0riqYc/2naX6bSEKnrtyyVWlSMXP61xR/C8NleO5/osuLpBFzWubXl1ZV+QTN/r+1/CEKO0OB1AqP/18t4QN6CUITR3bilIqpR0e/MzADIstM+fPtn/58sf9IgLhEg61AKiM+pV1G9Y2hR/aWjYl8a++ri4kwObZP1yCJBaOPhwb+vlu+G6KDlRGdUcIRx+N2c2fUin58KA9b1l0jToyXEwXcLGB0F4yQHqEmNe4uqH59fVJ8CvHYFd4kIev8JsPdexLmon9A9fCwziO3tnJKX3MpFRo9Ya7rL648fySs3SQEurYtqOEv+0zXRVzns7N65rqX1kZ/nFN+MfVDX/WHk8mHs/23j7+7Un4WXL5s+QUMUhYbCC0o9FLm6czYxF/lc62jS+57oUiO/rrg9AyU2RhYSGYhfvrjdfXh3q/KnMdwz1+uqvp+IHD5/ovnrtyKetNxpBvS7jrHc8X15q/Bqtr/hqvfskn8nAsFKrJ/04nw9E5H5G+/2isKrf5qfNnLB1clMLUjJlm+uqGNa+tXvi/7x+4lp+yHS5O0p9YEjkfHgwVQqhRQ+s6lLeFeota5rlug/eGf/r5bvie23o1pIxQsy08YaqoQBiKoOlS8xbNP4cpljAn7bkiG5oC4RE4dG84RETz0yDp/2t7c1P4np7VbuE5dPzgkRClPum25wT/axCHx0HSS73ksvr8/zE8wsMTYWjkbg57DMNDsPJ3vcmiRRb1+tnu72SUZrG/JJTn/DRvDu3eW8KB7nwOD4an7Ydvv7Nt85YlX8lk1m4ycTfc459fuTRw51YOZwGEN953sne5gdAgdSIEv63/fKdtY2s5HlShrIdfW/jNSZfGzR9vh++mr5CfENi+sfWtNzeF70toalSyKvjPl1+9u3+XTJhPyXh10ltRvoJaeCKER0BowYTHQX52Ovnl1weV/0s/6Xaq1jyFMOn7LmtRz9ATKjTV5lb74U9elG8NDy6zSRwi3Ke795a21IWSHELR6a7uUKOGaJOroZdQfo4dOLzA9VxRzK/I+WhVKEAd23Zs3bylkrXh3C6N0Ag42ttjzJBYhZsrtK0rfIst/3EVMuG699sy2l/z+LcnCt5iHwTl6xAspm0UvsJTIDRi8tAuHH9S6eedyaJzmx+FOtnVmCs0BY8fPPL8n8/Mx3s49suvD+4/HCuUIsODS67uwqULWbp8q4gLNWqoS0PrOj+DLp9fuRTC8NIDYZ6HB5P+iSXvUljC5nL4FAVCtDnS9tz64mTvx//q1OCOuGmybXbCUvvG1mrtcfLMXdN3svfYgcOd3V1xzyO9X9ls5my3pHQlfd9Vb/NkztzpXTWz8xJDMmzfWLKeo2SOQB6uZCh+IbFUrGs4NPJDDX/qwtmcHKoXAvDxA4df9Cxb8dL/cw5zSAX6JyCfkmGWaNoc4Y2EdoBNoWK1YXZ+UQob7t9/+VVowZyK90SyCr+vXI0SPN/gCW3iNPR9x/SYK+3FDDd79OUz6WCtfAdx+HtDBP3wn+90dndFn3eSnoUXnYPykkCYw+HBkAMXCNDA0h6QlZ93XRm7t+0QCKnKo6p9Y+u7+3fF2lIs5uCsUv1F+TyGPtTGxw4cXs52HVRG/8C1uN9guNO/PtNXxXIYXsDwN99+cqIr+qrg8yuXXhQIaxeuJXM1PBgKxIPvhk53dascoVQNjtBsDbdVqGrDD1HuSbDNMhuqJNncyANrmTrzt5fMTPv7332hZg5NQ+Un5UJEibspHgrh9ymox8ILCDfFi8JSNEYfvfAUg4UC4Wfnc7SGNZSDUCJtogUluaGSKj7pYYn7tkr2B/ahIxOW1tC9Sgy8521dTLIMNVTONozJiv4bMQ8PhtKYqmn5aXs95fD5C9ZLvzAQzhx7kI95UKEx9/C7IZUjlKR5GirTcEOF7/mJSc3rsrf25r4NFSO66b6IvQVTJpPTU7navPF0V3cyKuijz4rQFI94EmNoJ6SwNIaXFHcmfFGJql1sgozM8QOHvzflBpbd1Ah16PA334avHM5Bqn9lZRabwsptNLZu3lLCE89SYrT8RxGe67+Yk+HBUC0//G4ovkISvf54z5hJZxos3C8hHeStl+GFgTD6k45CmzUUx3mPlAGKlExASoYEc7tJXdtGU0apsvj2QpucKm+fxeT0VB6Omkj2pA31s47vTAbCSLeTKZyznd4a9eCRiMfSb/54u9hAGNJg3P3HyaHSJk7Akm3dvCVZJWhbAkjDQ22BE4fJYTunZnYr2uFvvrXIOaMW2P8j642HTMzJjLibe6D4EcJ5s2NkadCRO7A0IQGGHPj1v/u0MyBVN2ZMGziVexeDuNfFJHOg7JpeWpP/na7kXxfl8GCoozK05rm6h2GUsSRPTz1fwc4TCONewyoNwpLvneMHDv/20/3QzrAfL6TQp7v3ugjFiHtz0VA/mwNVDqMPK7oXV5RN8WxFrGzF10W5+cPtlwdCaRB4Pgo+/G7o+MEj+pshtWSAIkW8uWho4Qx/8612TubDZ4zzRUNDInMlc+vmLVEeQ/B81psnEMa6hjX4Isf7XoAoCNHfsDG1Xcq0xm9wZDjW4cH0n0uZxUN6qiK+pnjjqoaM7uMY5dTrUAc+Uw3WPv9fjEZ6PlVo1zpsEBZVCYqCkC0fvv1ONO+lTKdlxrp6MP1psCabh/RURXyT9fp6sjr3MkTZQzHOxn+mjNVGXwQTIQo6YQIW5VDHPlEQsqXdISgLinWXhEykQYovpZENYre3tGZ6F7qQIOLbOmHo57sLBcLnVxlGIFSRsa4KBYCC0Gqx59MCojzpWxqMjOHBFDoW3VH1g/eGXxgI592HNAJfOJIVgHwwSLhQIIxuadZMl3ePRk5Unhm6ybo4TsSJ7Fyf50Pf3wLhQIzzKGLdIAgAnvfG6+tdhHnduHMrvu1k7JYXZUGN6e1EM7YW3yDh0L0XBMKf4uqTqDFZFICciWYjx8mpEu8yevPH2BbFHOrYp8u7Yiozhy6ymXqhfEYzsLZt85bIhuJHf30wfyB8ZjppDHXl7r3mUQCQHxtiGS8q+Z7nkU2Dal7bdLqrW4GPzFBcTfFPI9qfMwSKyM56HZx3hDC+QzCze+YJACy51eIiPO/GnVtlOtiwWr7oMQEqxkA4Es9kvdAOz/TmonHn25rZZYSF6Fc7b0yMQ3yTfQHgpSJrhJVEZPNFD3Xss3QwSjFNGe3YtiOyTydE3Mjuu0L6+18g/GXORNI4PrPIBnYBgKWJab5o/cq647q8Y1TyadJVDoQxtsMjGyQspL9oRwjj65YAgKICQ51Zo38T2XxR+yPEKqamePPapijPRN0W1zZOow//7INYkfzP+NOJmBYQhoryUMc+NQtQsuf07DSe8ScTj2erytFfHyRbIEZ5diuZb4q9vv5GjOdILVlMB7vZHyFiMU3Wi3VgJkSM9pbWaB799x/9PRAWAmI08V3nGbBYSddYkvoe//Yk/PD79FRkc3ggh2KKx5mesbYmxiGjUrbOI2qNR3wgyof/fCeaQDg5PRW+Qmj6KxDG1eKJbIIvUHKhNp+cmgl7SfCLbJYEUBDT3Z31je8bV2c7EIYHR1l3bIqmNd64qqEx3vDfvjGqXbvuPxoLpfrPQBjZLre23gIKJqenQn03+nAm+4Xv4efIdp8HFmrER7QuK6RBE6CiLagRLUCIeHiw5q/lkdF0M4V20f8C4f1HBqmBeB6r4h+Q+CmiBYQmQEVs/Ek8s1Ta3twU94fVvrH18vWrcbyX0FiqSdYQhowbU4PJ/qKQzwT4y68P7j8cs+QPDCL9rX6IZYSwvaW10Rq8eD2OaNlCZJMqn/fWm5uiCYTJPjJ/BsJoPiHzRSEPQq0VGnkhAYbvEiA8o3md5+D/6opoGjm79XdHLZrVW6EdHn2f1IaI6tikhpwJhEMRTa+Pvk8CcisEvxD/hn6+G76bBQoUI6YFhNusiIlaND0XG3LQIRXT4NP/AuHkf6ejeVdvxT5rGfL2gAztuZs/3hYCgSWI5mC3rc7TEggz4o3X1+fh84rpNMJQ9mYCYUyHEOo/gwjcuHNr6Oe74bujIIDliKaF06a/WxrMiJxMWQ9vM7ZAGE0pbFzVoP8MMmpyemrgzi2DgUAJRdNis4O6QJgVG/Kxl8ea11bH9HaiCoQWEEJ2c+CNO7dcDaCEHPNNZspqLEPZ9SvrcjI2E9NA6NC94RUxbdCXk1nLEIcbszkwmo2bgbS5H0sjW393etrN7S1l+SyimRezITdb/Uf2Tlf8HtHULBttQ/qNP534/MqlkAPNCwXK6rFdOshKWZ09HFxTPENiGgid/O/0ivEnZi0DlRBC4JWBa9Es6QFSLp6D3fR3xy6a1nj9Kyvz86k1r22KY6Ll6MOxFY8jWsZqRxlIocnpqXP9F/sHrtkyFKikaOZAlWmaIpQjI+Xnzb4aUe5YEc07UV1C2oQE+NmFswN3bpkdClReHJ33tpPJg2jmztTX5WhsJqaTJ1aMxnJma66KIGQiCtowBqhiLRTHGxEIyZBX8zRZL5r5sfcfja2YnIqk577ZkmsQBQHiCoRtLY6kJzutcdt5ZNDk9FStqwCUqkI5df5M60cfSINA1UVzsFtMrO6Zv6w+UlYzqS2i82DiOXZCnwRUUQiBR3t7rBUEUiKa6qjNIYSx+92jk6oHwmi6JawhhKoYfzrR2d3lMAkgVaI52A2ywthMhgOhSwAs2anzZ05dOOs6AGkTzcFuzlgmK151/JtACOTK6KOxT7q7rHwAKCtnLEM6xbQDcDybylipDBVz+frVd/fvkgaB1LqvgiIjbIAkEFadEUJgESanp4729thHFEh/ZeUioKyCQAiU0vjTiY+PdBoYBKgMu3QAAiGQFiEHvrt/l45MgIqxSwdQAQ6mB17u8vWrrR99IA0CmeAgHACBEChlGuw80eU6AAAIhIA0CACAQAhIgwAACIRpYOdDkAYBACogpo0V4gmEv9vuAkpn9NGYNAhQXeNPJ1yE9BgauesiUHA/orEoU0aBeZog7+7f5ToACIRA9ARC4G8mp6c+PtLphAkAoHiOe8moxlUN8QTCoXtKIZTA0d4eK3IBoDKa1za5CAiEQFrcuHPr8vWrrgNASpg1Gr36ujoXIYtGH0a0hjCEwjjeyePfniiasByT01Of2EgGQCAsm/aWVp+p4hpNq0kgTF8RfKILDZYlpEFLBwEAgTA/mtc1xTNl9L5VT7AMN+7cCl+uA0Cq2CIBUnpvxnIMSf0rK+MJhEY2YDmO9va4CACpa978d9pFiFtM02j1X2RUbfO6eLY2st0tLM2p82dM8wBIoZg2roCYRJM72ja2rqh/ZWVMlabFyrBYk9NT565cch0WK6ltmtc1hVp0zaqGxtUNoQoy0AqUlt46MiSaWZR5syKmN/PLrw98orBY5/ovmnG9cPCrr6trfn19/cq6EP9eDd+dGQXptiGimzQEwlBFh/rHxxr3gyaO4abfc9OciGlaYuOqhhVtG1trLpyN4/3cN60CFsnw4Fwh6TWubgjZLxnxC21KjTDIosju3PuPTIAiG0Zzs8VjTKcbzATCyEqhXjRYlMvXr+Z2eDDUFSHyNa9reuP19RvWNRn3A9Jp6N6wQBj58yiis+lDazwPz9PHsczlTg4gXLEhrs9s8N7w1s1b1CxQpM9zNjwYnlLtG1slQCBLLWwrYtKhfCecNb++PpqTn+4/zEUgjGa15J+BMLLxtJs/3hYIoUjh8ZOH7QpCZReqhbY3N4UoaAYB5EQ0i7JqZju746mQVzfUjGT1xZdvQk1Mz6ac7OgRzfnnyXkTM1NGQ46PZsrvoPNPoGg3f7wd8bsLNVvHth0hCia9XwDZzSHRTMNb89pqH+iLGuVxyMNBKclWT3G8l+S8iZlA+GpE3RLhE8rJ3GVYfgvj8vWrciAQpUyPRD1v8N6wtk3EYmqK5+FU8JjGn2a2F62pqZ35qWVTTB9S/8A1NQu81EAsyxUK9mzf+f2XXw1/8+2hjn3SIORcZCNR2jZxiyztR58Jf/o5nuMWk/bSTCCMbFHNjeiauVAOMc0XDVHwwXdDfSd7bcQHJCJr24w+GnNCfdxi6sccin0BVzQjhKGe/F8gjGnics3srFGZEHJSnW3dvCWJgoYEgbkia9vU6O8WCDMUCEfuRvxJhaARTe9M4bCJ2rn/EI24t8qAEqTBkeGsr4cOz87vv/zq63/3iYLA816Nbkths0bjFtMCrgjaGAu9u4jGPwsdZ39OGY1sZsXl61fNrIAFZH06x9bNW4a/+dYEUeCFDZ3oOrtHH41Fsyd8pj+FMv3mNXF1bg7EO6Ad07DTG6+v/18grIlxkDBvx23D4gJhlqdz7Nm+8+t/9zlREFhYfNMHtG2q7veyDXxtiGuSc6yT9Sanp2KavL1h7ghhTXQbjdbMDhJGPFoNy5TdHcCOHzjcd7LXJwjkMBAO3LmlbROryMa0b0RaViMb+Wxe+/dAGN/MilAKz/VfVL/A87I76WjP9p3HDx7xCQLFiK+zW9smbpGtg4hy1mhMI59zy9ufgbB9Y4RLcU5dOGslITzv/sNMBsLmtU3GBoHirYlxx6lzVy4ZJIxVZFvjXoluG6TIDjKY22X2ZyAsHEMRmaO9PeoXeMbjbHaUfNEjDQKLsCG6kydqDBJGrbDDRxwGR4YjG5jpv341prfTtvG5EcKaSAcJQ47P7lopKJMs7iizZ/vO+Ga2A2UVa6VhAlSs4muKR7YNUmRHv8wzZTR4681NUd5dnd1dJlfAXFlsSRw7cNgHByynxRNZ28aHG5/GVQ3xnQMXTSM8sjPtnqkbIx8hTNq+Jo5CpgPh1s1bnD4PLEHzujgHCQdHhm/Ee85bnkXWGo9phvNnF87G9NE8s+fW/wJhaG/F2uQKmf5yXLN+IT9pMPjw7Xd8cMBSGj2Rzn4KPjlhApQSmwFxbIMU2fBgzWxX+/yBsCbeQcKa2d1lsrvVPuQ8EG77e7UFUKRYRwhrZsdePj7S6SOusKF75d2ZIr6meByDhJEND9avrHtmifXfAmHE3fBJvakvDTInvjUVQCUrkIgnnA+ODFsUE5nQTI+vxJ67cinTw2vxDQ8+38+elxHCmtmBkXf375IJybnRrB1CaPUgsBxxt23O9V+0KEaJTbnQ9s5uz0WmX/yLPL+T6N8CYf3Kuq1RT80afTQmE5JzmSv/z6x7Blhm0ycynSe6bDATkyjn64UimtFSeurC2fiCw0tGCGtysHmDTAgA+ZGHRcifnOiyUUI0Yh3TzuI2SIMjw9HsklqwdfOW51fi1Oaw3kwyoUNdASB6z2+fEJ/Qzg4NG3NHoymxUc7XC6U0ZMJsveAo922ad/CvNiel8PlM2PrRByH3q3cAIG5b/xn/0TWh8dp5oksmjLjJHoEbd25laMAt1t0o5x38q81PKXy+6nxv/65T58+odyJW7u2hAchAIMzN0TUhE3ZmahCG4pvscTja25OJ8ZisvM4lVIbz7txeO28pzM8m76cunH3P9FEAiFeUW/m/yOXrV1s/+sCSwkyLe77ex0c6U14+w00U39LBRMfWHfP+ee28pTBXx0APjgyHqtNQIaTT0MhdFwFYpq15atgk62I0bDIt7rPB392/K7WZMKTBWIfZF+hoqJ33T3dv25Gruy4UzVMXzq5/v83GzZA2v9sTGFi2jpw1bGpm50CFho3tEjIq7vl6qc2EEafBYM/2nS/6V/MHwvaW1hweBj3+dOLjf3W+t3+XWAjpER4YzokBlilXs0bnNmxCqyZ8iYWZE/18vRRmwrjTYPDp7r2LC4TBsQOH83kHhkozxML177eFYqEZCmkwoI8GWLYcDhIWGjYhE7Z+9EEVGzY37tw62tsTGlenLpxVFIsU/Xy9UBqTYpmGFxP9hkwLj/a9MBDmamuZ540/nQjFYt37beG7AUOorps/3nYRgOUGwhdPl8qD0UdjFW7YhL/xXP/Fj//V+X82/N/wPfxsD78StuCjEQpkKB5VHIMJxTI9ubR8FhgeDFa86F+ENHho996cd+SE0hnKR/hKBu7fenNTznMyVdHWsinnVyC0XUJ9ncPpXkAJhToktLBzPnlybsOmfWNr25ubwvfmtU2l+uX3H40N3RseGrl732z/EjXij/b25OEp3/pw7HRXd+U3fzrXfzGEnejLaqj9Fr62Kxb4dx3bdxrZf6YC7TzRFerNDeuaQjhsXD3zaCnf3zhTmU5NzSyg+u/0fftHk2+fXTjbd7LXdQCWY/e2HVbTFZoZoRVeGCqcGYxa3bDmtdWhkVNfVxeajwv3wY0/nUiG+0L8C62U0YdjEmA57JltiufhwiYbeYRy2NfTW5n+31AVHD3dk5MDWhYeHnxJIAyfRyiI0Q+hLlYoOuGrcFmSSrN5XVP9KyvXhJ9XNxTq1gV+w9yNEwuHpyfb6xcqWSiHUvUEV1i440JLrnxdMEBOmtefXTjrITtv47hmxGVInfqVdaHQxnom3rzlcP37beEthwBTvuZK+Fs+O382P31DSSlaeiCsmd1aRiBcWJLf9DiSmXqhLqtznj8+0vnwuyFztoHl6Ni2w+wnMiREo/wEwkQyKa+9pXX3th0lXKuVTPfrH7g2mrNpd4d2733pNaxd+F8ng4TuRjJq9NcHLkI0ki2qTUkCltU26tinX4kMyW1TfHBkuPNE12tvbUh2JFpyiitsbhR+1dHenrylwZlNYTr2vfQ/W/HS/8IgIRmOEFPCw7MyPesy1OMhE37R05vRia9AGppH2zZv0bAhQ3LeFC8sdg0374a1TW0tm8IPzetmmgGvhh/mtAcKa7JGH449/u2Jpa01xQ0PFhUIG1c1HD9w2PwKID2ZMFRKxfR4AWhek3U2yE2EaBcugutQvCKHB2teOmX0z3BpfgVEJOvDa+GRkBxwnKom3cx2Uw/tBgzZaF5bDkO2nD7a7SKwWEUOD9YUM0KY5MvjBw7n4SAUyINXo+jfGX860Xmi67MLZz/dvXfr5i2VPKUwORVm/MnE46cTo78+CD+MOhgGMsUgIdnSvLbJzv8sSmgXFT+XakWR/134jTnclgei1NayKZoZFyEWHu3tCV/JoatvvL5+w7qmUg2BJnsIJ8eB1vx1MIzJKhBHU0nzmmzRi8FiC0zxEzxXFP97Tx/tfm//LtcXsm5NBQfTKpkM527MHTLhqyvrknOWi/wNSd6rcRYo5Ka1NHDnlo2LyQq9GBQvGVIu/r9fRCBsb2k91LEvb2ehkGn3jWnPZ8O6+Lfo/HM6g3OWgRc3rw/t3mvPPDLkdFe3XgyKKiqLXHRau6j/+viBw40xji0QK5XmvJzZAFBjzzyyJtnUw3VgYXu271zsGWO1iy2IfT29LjRkXaZPIwQoVfP6dJfNG8mSQx379OpS8mqtdrH/h2TiqMsNmdbWsslFAFhCVzpUlyMoWMAXJ3uXMPGhdikFsatb5wRkOxBu1AAC0Lwme4zN8CJbN28JX0v4P9Yu7e/7oqfXtHtSzkaRCz9OXASAmtll1dZlkS029eB5IZp9cXKJK/uWGAhD7bnkvxIEwjRYWh8SQITN64NHTH0iW01/m3rwjKVNFl1WIExakwasoQLKNL3zw7ffcW0B/mxLaV6TKSaOMtee7TuX09Ffu5y/+3RXt0EGyOqzxDJCgL80r22y4yjZcvzAYSPblKT6ql3mK/jiZK+ySDpNTjmEcCGNqxp06AAUHOrYZ301GTKzZsymHopBKYpB7fJfxNdn+pRFUmj00ZiLsDCzRgHm0qQhW4xsU5LTH2qX/zoaVzX858uvVKCQOds2b3HnAhSEKjE0aVwHMmTP9p3hy3Xw6Vc5ENbM9k/IhJDFpo+nCMAzTZo++6iTKU4Iz6f2ltZSVVa1pXpNMiFpM/rrAxfhpT7dvddFAJjLkAvZkoxsa4TnSkheX5/pK9Vvqy3tK1McSY9oNpUp6+Gz4Zdr9wA8o+9kr223kAlJ7cdd2v2Eakv7+mRCyFYgDI4dOOwiAzzDPupkSyiuX5jtnJvwX9raqbYcxVEmJA3u22W06MBpkBCgAq0uKKutm7dYARu9ctRLteV4oUkmLPewBixscto5hMU6duCwThwAmZCs27N9p0wYsb7yzFyoLdPLDa91+Jtv1aGQCY2rGg7ZXQZgvkzo7G8ylwlN/Ik1DZbpk60t34tO+tWUSKpicGTYRViU4weP6MEBeJ4+buY2bnOeHIjyM60t920TXv3prm6fIixNe0trxf6uL3pMMgGYR+OqBnNHmekdWJeZMhBa4Ic69vnIIpDkqbIm/NoKvI1QHL+3zQyVNf5kwkVY9HNubdNxO44CvKBNJhOSLae7uq0njKPmKfd4b21l3kx7S+vD74YqOdZBzj1+KhAuxfGDR9ynAFVsmUEJ2WMmgjqnAv1QtZV8S99/+ZXpo1TG5H+nXYSl+fpMny2CAV7UmDETj8xlwq//3WemXuZUcvVybYXfW6hDrcymAkYfRnIIYeWXK4RnRsiEnhwAL5LMxFNPkhVbN29xSHgWP7KKddDXVv4dJnn3uHPPKKffYzmEsP6VlVW5SUMmVIoAXmTP9p2OXCZDwpP94XdDhmQyIaSkCg/q1lbtrR48EmKh1UqUyeijMRdhOcK9adUBwMIt7NCS2bp5i0tBJoSAEUqsRbAp/4xCFAwpqcJ/b20V33Pjqobvv/wqvG0dbJTWZCzDgzVVPfLISnSAYlpvpo/mx4bsj7CF4qrEplMV+5hqq/7mw9s2g5TSuh/R8GB1jzwKmdCZMQAvrSpNespPF0AcJdYZKmmTbLNSrUGy2pTcXccPHnn43ZBtuygJhxCWUGjiWIkOsLBk0tPprm61JZlQ2NHDpUhP7VHF11CbnssR6tBwLR58N2RyM8vkEMKSPzasRAd4qaSP36pCsuL4wSPf2xspBZVG1ecX1KbtuoRC2XeyVyxkOYZG7kbzXlIyBylZiW4MH+ClzZiv/933vfl4ZKeZYaiwWnVFeqYV1Kb2GoVY+NtP960tZAnGjRCWR6i2dCUCFNnIDi0ZFWZMYm2RJku3rIOt6AU/cPjBd0PpueC16S+gIRaGKlVPGzkMhCl89iStHEOFAC+VbDajazsaG6Jui4aW9vdffqUXo0LVQsUPlshwIHzm2iVnp6hVWdjgyLBnT7ljajJUqJsG4KUVZrJtXoiF2tlkJq7oxSiD9pbW1Ebu2gxdx9D6DBcx1Krhu0FtXsQWoxWr10yIAig+Fj6YbcDkuc4MDw477mSluNr8v7QRJkTB8JXa/FKbxWKanI0WKtbTXd3GKNIsPPZC1X/8wOGv/91XsanSv/z6IJ4aZF3ai3e4GTVxABZVZ4Y2TN52zkvGnWamlry+XjHISnvb5v/LF5q+oY2U/vWZKzIdNg517Atf408nbty5dfOH2zHNFcxo3bFhbVPIMGteWx2+V6voD96LpxjUv7IyK0/68HX5+tXPr1wafTTmXgBYuI0YvkJrO6k2I94ILTTVOrbt6Ni+M45Ow7aWTXkrq8kuj6Gsnuu/eO7KpcnpKfdv8bf5sYOHszKlcUUchTVJhqGYDty59dPPd8N3RbYyZb1xdUOIf20bW8OnkJLqPqZAsiZTT9AkFg6ODF8ZuBZaOW6QlPYyzHbchDvXpYCq34xJ6yU8tvoHrt24cyumZLh185aOrTtMEI2mrB4/eCSU1ei7MErVHPp0995szWFcEVl5TZqkfSd7Q/U6eG946Oe74btwWKpGZPO6pvpXVqYq/j0jslHiLLbaCz3fA3duGTCsrvA0enVlXeG2nfnZHHtI5a16uit8dYcKM8TCGz/czm7NGRLgh2+/s23zFluSRNyFEdpa4fkeyqpr8rc226qGkAMzuv/lilg/lVC9hq9kOWwSDn/59UH4rlejyDZ9fV1d8+vr14Tgt7ohQ1v4DN2LKhC+mtkHaqF3xozuytywNX/NZQr1Xrh5N4TvWmOQzabL8YNHQs0ZWiw/zXZqp7/dEmqbkADfenNTMTnw8W9PsvsBrbFa/q+HTvianJ66fP1q/8C1nPf8JuV/97Ydmd7wckUePqqkhk1+DsX3/qOxEBtGf30w/mQi54U4GehLpn3G0Y4cjWhHmaToRlDGCjO6Q8vm5o+39cssJ/Ulw31JT40RP4j46Zz0qdXMnqybdGqPPhxLT89aeIWhOmp7c1P7xtZFVUSZ3gncZPtnglDEc56LzIEfvv1OHPOi//HHH3/kvECHcpwkw5AlJqem4hvHSGZ71vx9ACG1cz6X6bW3NkQzQzh8cL/9dD/Km67QvgnfzSkttK6SWzKJfDM37MbWuX+eLUnXW9Y/lOxG7jiuf6zPqeU3Wu4/HHv8dGJo5O7v01MVq0Ln7hqwnL7j9/bvym5DK83HBqSkcGZ9znPecqBA+PJHaQiHSYEOdW7ShE1nz0fhkZnU1DWzUxqSTqy8TRsLn1frRx9E83aSA0zz8MGFxsH4k4mk/3vm1otu0W/hJk1mYid/mOQ9o3xAaRstj397UhiFKz56zY3fz3RLlbYtkelAOPzNt2rsYhTmPEezy2NokrW1bAohMNYCIBAuJXX8Plu4Q4X7+K+IOPnf6dCWff4/Xrj3buF+pmd2Ny7EPI3IFzl1/sypC2ejeTvJ9kj5/ChDcyFp3BTurLQFxWS/luTnuTFv7n1qIR9ATIHw/7v//3yCS2g2Z3Ejj2R6XWiKt21szcOw8AoldQkNwT9/anEx0uXGD7djejvJeG8+JZXv8/Mx5k6EC0FxbkSc2ym+iBp/TpZ75knQvO5vfS5mrwEs333LBPLXbJ53I4/wEE9VPixsp//G6+s3rGvK27iLEUIiEWqZ197aENM7+vrffU5wAiAm/2fD/83oK29c1fDguyGfYGkVJgQlvboVW59V2J076f81o8cIIZEYiO48HLuZAUB6AqGLUKZg9kz3d2E2UGEq0ItWZhWWk8xdx1Fg3b5ASO7c/PF2ZO9InQVATBxISzHqV9YlQdGerhVT6xIQgcnpqRtxjRBKgwCQoufyOs9lBEJIMfNFASDl5p31lxXJURwgEEJKXRm4Ftk7mnfrSwDIrkwfSbfGGkIEQkitmfNPo1uWkKx+BoBoDI3cze6LN3MHgRDSq//61fjelN3MAIjM71keIfRcRiCEFAfC6OaL1q+s8+ABIDKjWT6V3nMZgRBS6vL1q5U5w7SS2s0XBSAumV7cIQ0iEEJ6xbedTI0dZQCITqa3GBUIEQghpQZHhqM85daOMgBE5pdfH2Q4ENpRBoEQ0unzK5eifF/tLQIhAFEZvJfhDtw1r632CSIQQuqMP524Ed159EHz2iYfLgCRPbIzveDfoxmBENLoswtno3xfdpQBIDKZHh6sMWUUgRBSaPzpxOUYjx8M2t7c5PMFICY//Xw306/fCCECIaTO0d6eWN+aEUIAIjOQ5SUe0iACIaTO4MhwlKsHa2a3k6lfWecjBiAa4ZE9OT2V3ddvvigCIaTOZ+fPxvrWPvznOz5fAGJy88fbmX79DgdGIIR0uXz9apRnDybMFwUgMgMZn9RjyigCIaTI5PRUrJuLBo2rGjx1AIjJ5etXMz1fdCYQrvNoRiCE1Dh14WymDzJa2NbNW3zEAMTkysC1TL/++pV1jausIUQghHQYHBk+138x4jfYsW2HTxmAmB7cWV/lscHMHQRCSInJ6amjp3sifoPmiwIQmawPDwZtLQ4HRiCEdDh14ezoo7GI36D5ogDEZPzpxOXrVzMfCG32hkAIaXDjzq24J4vWmC8KQFyO9sYwr8eUUQRCqL7xpxOfnOiK+z2aLwpATAZHhm9k/LSJmtkDJ+pX1vk0EQihyj4+0pn1Hatf6tPde33QAEQjjmX/DgdGIITq6zzRFffSwYQFhABE49T5M3E8u9vetKMMAiFU1bn+ixGsR3+pPdt3OuMIgDiEKHjqwtk43osRQgRCqKYQBeNYj/5Su20nA0AUJqenPumOZNm/BYQIhFBNo4/GOmPfSCbRuKqhvUUHJEB5U0r0a9FT4mhvTzQLPQwPIhBCNdPgu/t35eTNHjtw2CcOUFb3H42te7/t1PkzYmFZRbbQ48N/vuMzJSf+8ccff7gKpC0N5uSZXb+y7ref7vvQAcpqcGT4vdl+xlDrHtq991DHPlMBSy5EwZim9nhAkytGCJEGq+aQ0yYAKig8X05dOGu0UBp8qW12/0YghMq7cedWrtLgTEd1xz6fO0C1YuHR3p7xpxMuiDT4vA/fNl8UgRAq/jj5+F+dueqvPbR7rzlLAFWMhef6L65/vy2EmcGRYRdEGiwIT2fnAyMQQkWdOn8mJ3uKzn3YGB4ESEmkeW//rtaPPsjDybelFZ7dUT6+zRdFIITKmZyeCs+SaE6wLZ7hQYBUSY47eu2tDeaRFiNcoogjtPmi5I1dRqnm4+TjI53RHFhUvBAFH343JBACVEZhl9Hitbe07t62Y9vmLerq5924c+uTE12xrvJoXNXw4LshnzK5ssIloFqP55AG87nJ2/EDh7UwAFL+kApfR3t7Qib88O13rChLjD+d6OyOfMmlz5ocMkJIFZw6fyaH00QTuh4BKp/uFjtC+Iz6lXU5T4bJHjx5eHaHZ3R4UrtryBUjhFRUHjoXF3bswGHFACBzcejy9avhK4fJMImC565cysOknvaWVmkQgRDKKO5VB0U+afZs36kkAGQ9GdbMzi0MybB9Y7QRYvzpxOdXLoU3m58H9+5tOxRyBEIo1xM0RMEQCHN+HY4dNDwIEInwUEueayEQhnDY9uamEA4jWCIeHtkDd25dGbiWt+k84XPUaYtACOV6ZOZ8YDARHjPtLa3KA0Bkxp9OzEyq7L8Yfm5e27RhXdNbs+EwWyOHSQ68+ePt3PbedhgeJK9sKkN5n5E5XzFY4KgJgGpZ/qYyS675N6xtamvZFFJi4+qG8D2FIfD+o7Ghe8M3fridw1OgPKYhYYSQcjl1/kxO1qAX43RXt8cMQK6EJ2ByfEXhT2b2LFndsOa11SEc1tfVVX7aSJIARx+O/fLrg/sPx3IeAuc6tHuvxzQCIZRMePh1dneNP51wKQotAMsSAJgJhyPzPCPC9+Z1TfWvrAyZJPww98+X/hfNGro388Porw8mp6ZM2HmRcNkPdexzHRAIoQRCCDza22PzmGceM309va4DAAuEt5emtYXz4f1HY6bkLJnhQQRCKIH8HFm7WMcPHHaoEQAlyY2UnOFBEAgpAcsFX2Tr5i0eMwCQWoYHQSBkWS5fv/rZhbOWC84rPGC+OGmyKACkVOOqhuMHj7gOCIQgCpbF12f6dDoCQGodO3DYRQCBkEUbHBk+errHXtULO93V7Rh6AEgte4CDQMii3bhz6/Mrl6xrfylLBwEg5U4f7XYRQCCkWCaIFq95bZOlgwCQZscPHA7Pa9cBBEJEwRKrX1ln6SAApFnjqgYTeaCg1iVgAYMjw9LgotLgf778yqmDAJBmfT29um5BIKQo7S2tD74b6jvZK+QU44uTveafAECaHerYZ9c3EAhZnD3bdyaxUNpZQLg+WzdvcR0AILVmDh501AQIhCw5Fg5/8+33X36lX23eNGjragBIOev8QSBkuUIaDJlQLJQGASBb7CwKAiEljoUPvhsShKRBAMhE0+X4wSOuAwiElFLjqoYQh/IcC6VBAMhEi+XrM32uAwiElDcWHj9wOD/z8sM7lQYBIBMsHQSBkErEwuMHjzzMRyxMzhuUBgEg/WyTDgIhFU1KSSw83dUd69GF4aES0qBHCwCk36GOfTpwQSCkCrEw1L9Rnmjf3tIqDQJAJoQoeLqr23UAgZBqVsQxnWgfUu73X35lEQIApF9oe0iDIBCSlliY9RPtky1kPFcAICtp8D/6cEEgJFWye6J98lCxAgEAMiHZ+00aBIGQ9MbCDB1deKhjn0WDACANgkAIJZOJE+3Ds+Trf/ed7ur2UAGADKVB3bggEJKxWJjCowu3bt7y8Luh8N3HBADSIAiEUMZYmKoT7ZOBwfBlYBAAsiLkwOFvvpUGQSAkq1Jyor2BQQDIYhr8z5dfRXb0MQiE5DQWVutE+/DXGRgEgMxpb2m1iwwIhMSmcKJ9ZWJhSKHD33xrYBAAMtdg+F4aBIGQuGNhWY8uDL85REFbiQJA5oTHd9/JXtcBlmmFS0DKhczW/mXr4MjwZ+fPhu+l+rWNqxqOHTjsuHkAyJyZHeDO9JWvvxgEQkhpLBx9NPb5lUuXr19d5lPk0O69hzr2GRUEgMxpXtsU0qAtZKBUTBklY8+AZZ5oH/6Pw998e/zgEWkQADInWfYvDUIJ/eOPP/5wFcii8acTyWjh5PRUMf99e0trX0+vRwhA3gyODL+3f5frkHX1K+u+ONlrBzgoOSOEZFWIdqe7uos50T5Ewe+//Op7JxQBQDY5KBjKxwghMZicnjrXf7F/4Nr404lnouCxg4ctOgfIMyOEmWZgEARCWITL169+duFsiIU2EQVAIMy68Bx3NBQIhLCUZ79RQQAEwuxqXNXQ19PraQ4V4NgJIuT5AQAZVb+y7viBw4c69rkUIBACAJAjIQe+dK84QCAEACAqe7bvPHbgsP3AQSAEAEAUBCrEOYQAQMxC0rDpdGqj4IPvhvpO9kqDUEV2GQUA4jc5PTVw59bnVy6NPhpzNaqrfmXdod17D3Xss1YQBEIAgIoafzrRf/1q/8C18IOrUWHtLa27t+0wYAsCIQBAlY0+Ggux8MadW5JhudWvrAshsGPbjua1Ta4GCIQAAKlLhoP3hs0mLbmtm7d0bN0RvrsUIBACAKTa+NOJG3duDf18N3x3NZaZAz98+51tm7dYJQgCIQBA9iTJ0LBh8UL22zabA9s3tsqBIBACAMRg/OlEiIU/zYZDqw2f197S2tayaevmLdYHgkAIABCzyempEAuHfr47+nBscGQ45yGwbWNr+EGpAIEQACCPRh+NhXz4+Lcn0efD5rVNG9Y1vfH6+vaNrUYCQSAEAGCefDj+ZCJ8H/31weTUVHYjYuOqhvDV1rJpTfhhdYNhQBAIAQBYtPGnEzNfTyYeP514/NuT8EPyJ+l5hUnYa17XVP/Kyua1TfV1deIfCIQAAJRXMn44OTVV2MV0aOTuM0lyOb8/GeVLfg4xr/n19cnPbRtn8t6rK+vM/AQS/78AAwCOPfEKCPWkrwAAAABJRU5ErkJggg==;" parent="1" vertex="1">
                    <mxGeometry x="305.15999999999997" y="723.03" width="99.09" height="34.52" as="geometry"/>
                </mxCell>
                <mxCell id="47" value="" style="shape=image;verticalLabelPosition=bottom;labelBackgroundColor=#ffffff;verticalAlign=top;aspect=fixed;imageAspect=0;image=data:image/png,iVBORw0KGgoAAAANSUhEUgAAAxQAAACgCAQAAAA/OeLkAAAABGdBTUEAALGPC/xhBQAAACBjSFJNAAB6JgAAgIQAAPoAAACA6AAAdTAAAOpgAAA6mAAAF3CculE8AAAAAmJLR0QA/4ePzL8AAAAHdElNRQfmCQUTEBkGzmfEAAAbfUlEQVR42u2dZ4AUVdaGnxkYGRRUwBVwVUBRwYAZhTWsimIEHIaoIOCKAXRFEcOCOYvKIigmBJQMA+LuZ0AMqwiCAWQNmAgrQQkqaYAZ6O/HOIJDV3d11enuqu736T8z1V2nbt17q96qe+49J4cI/rmef5KtNGQu4o8czgqfFh6ljUE5VnMea0NYf31o9vvf1ans0coaulPscd9D+VDduAKH8VM2n37E4FPCGVncfSL6VPj82XetVmOBSUne9HybTR8FbDc481LO9VGGxurFu3zqZLNM5JpYqcwkDtIjhzBjAwX8YmDnLB4I2Zk3YRQ5Bnb68Zq6kQiWUEBNithD1SnM+Ib2bDOw05duITprq+toNI+pC4ngCQUcbfQkJEQZ0xlgYucpTgjJGVdiNAcb2JlHT3UfEUyhgAJuUoUKQx5kvIGVfCazbyjO9xFffoVy1lDAJnUeEVShgAc4X1UqzIjQnU8M7BzIZHYL/NleQh8DK6UUskhdRwRZKHJ5iYaqVGFGMW1ZbWDnFAYG/EyP4RkTO314R91GBFsooAavsKeqVZixmI6UGti5lr8F+CxrUcTuBnZeZIi6jAi+UEAjRsqpLQyZwa0mdoZwUkDPMI/JNDCw8wlXqruIcAgFtKG/KlYYMpARBlaqMMVgKWAyGMTpBlZ+pLXnldhCpFwo4E4uUtUKQ67mIwMrdZlIlcCdW1euMbBSQnt+UEcRYRKKXEZzhCpXmLGZtiaRdpoxLGBndrKRE/ta/qNuIsIlFFCdIvZW9QozltKWrQZ2ugVqHL8Ok0zecUbytLqICJ9QwKGMo5IqWJjxvtGCzidMPAIW5DHBxGsyS05sEVahgJbcoQoWhgzmeZPb83j2D8T5DOVUAysraccWdQ4RVqGA/rRXFQtDejPHwEptplE17efSiysMrJTQjmXqGCLMQpHD8xylShZmbKYNyw3sHJv2Mf3mRvFdr+F9dQsRbqGAakxjH1WzMGMFhSYDLV24Lo1nsR+TTKJPDeE5dQkRfqGA+oyVU1sYMovrTew8mra8jPlMpa6BnQ+4Ud1BZIZQQAvuV0ULQ4aZrD2ozMQ05WUcyokGVpbTzmTCsBCBEAroRydVtTCkt8nyMqtQfInRhx4GVqy8NUIERijgeY5XZQszrAJWpD4v45k8bGKnF3PVDUSmCUVVJvMnVbcwwyoEXlv6prDU9RhHZQM7jzNcXUBknlBAPYpCkGVMhAeroNoPcl7IHpfeop+aX6SSyik81ik8bDRfJUhs97hfX9ZnbK/6OUXHeZGm9DZ4WBpNU75NemlzGG4yALvEKJVTLFakOChIJ/7qYa85Jiv13fJrdktFJKWfyzOu/hp6rIl99ZRi8qDztkm//CIFeRlvMSnppoz09g3xVBejdQGkityUd4imqnRhRimFLDKw0zjpeRnP5l4TO5fzsZpdZLpQ5DOV/VTtwow1FLDJwE4bbktiKRsYLTt9mLFqcpH5QhHULGMivMyjp4mdu7kwSSWsxjRqGdh5M6liJkSAhAKaM0gVLwwZbRJgL5cxHJ6E0uUwnCMN7CymE9vU2CJbhAKuMnoGFKKMfrxmYKU6RexlXrYBtDOwsoFWrFZDi2wSChjCaap8YcY2LuE7AzuH8aLxNdHKJH1XhMtZoGYWYROKiM/j5jHOJAmkEGWspYCNBnYuMs3LeBijTITnfiaoiUX4hOJu36OldQORZUxkDp/R1fcDDFgNFYHdUNYbSioswikUr3O372Mfl/YsYyKzKDIJuGflfLZyjn9NBzmxRbrxtj60GTlMMFhn2jv09aeV2cF68Pm3yfrn7w2ms95rUpJ1HJEF7aaV2RkrFFCNBb4vg5K0ZRmTUGQmNfjG5Ab9hs8Fcm3YblCK7RRmRatJKDJ06AnKJuyt8Xn8ykykgZpBmPEzF7HOwM7Z3Odjb6uQIHczSU0qwi0UsMhgCVB6soyJzOUrI6d2Pzp6fquZZhJkcJqBJ1CItAsFTKe/7zIcw7NqCGHIyyYB+LyGBc9lNA0Njr+Qrp6D2AthjHcfRfnlNNZgLPbG0NaffBRBJIdJJp6KxR4SDT1i5MQ+PIvaSz6KjBcKqMpHvi+L0pRlGZNQZAfV+dzkhj0jweRenU2Oui1pAQolFCINQ08AxbRllU8blXjJ5HVdiDLWczG/GNg5M6G1GUcbDaMO4F9qQpFZQgFL6OQ7OWNNIwegEGV8TUeThWp96OHyl1YTM6bygJpPZJ5QwAxu9m2jMSOSnGVMZBevc5eJnaGu8jJWZiIHGRztSy4zmbUlhCH+fRTlDDcYmw1fYhb5KIJMDuNNfAbLXeRlHGxypLVZOQQrH0UWCUU+c7LQiSehCDYW8QMiRJjJbjGP08XIiX1eVraShCJLhp4ANtOWn3yXZ0xWTQsUyWYDF5kk/GnO4zG+tQpweQuvqslEZgsF/I8Ctvq0kZwsYyJ7WUxnE6f2NVzh8E1tXjYJmV/EQDWXyHyhgJkGS+eskr0IUcZ0/mFiZyinRtmaxwT2N7A+3yj0iBCBFwoYwnO+bbTidjWNMORhxhlYyWNClLyMT5ik9bXK0CdEUrBzZpdThdkG4ZXbhaT+5MwOBxbxAyJEmEWVP9jtZmK1lJZZ3TpyZmfdGwVs4WKW+bRhlWVMiDIs4gcAnMwzO/3XjGEmpevL62oikV1CAStoxxafNqoxzSDLmBDlLKGj7/gBAF3p9dtfdZlU4f3CGy8xSM0jsk8oYBZX+bbRgLE+s4wJsTNv0c/EzuP8FchnqotlePGZx5VqGpGdQgEjDGaWn22SV0CIHbf44QZW8phEA4a4CuwRjzUUsEkNI4KOvTN7x+X0roFTu2PA60/O7HBh5dReYWJlq8mMqfAjZ3bWvlFACe35wacNr1nGhIhOMa1YYWCnjklp+vAfNYnIbqGAH2lNse8nwMkesowJ4cRyCn3HD7BhFEPVHEJCAZ8YOOrqMTbBLGNCxOIDbghAKWbTU00hJBRlvMgTvm2cxUNqKmHIUKNMdH7etv1PIRciY4QCbuBtAxs91FjCkF68l8ajW/jvhMgooSilHYsMngFPVHMJ01v1srQdvbec2EJCURGLueJWy5uEKGNl2gZ/hv0hDIgQEorfmOcYy989+zExTpYxIRJhVlrWRM/ielW9CBepm000huN856pozmP0zpCan2mSTCd1jOSBDOz/IznZINhMIqygUE5sIaFw5mYO950RuBfz0z5fxYaGIStv7Qy9Aq6jMaen7GibacNy3XZE2EhlJrltXMp3vq1EzzImhDdK6JDC+Ue9maMqFxKK2Fhk8YqeZUwIr/xIK9/xA9zxBM+ruoWEIj6f0cV3XuA6RlkAhCjj05Q4tWfSV1UtJBTumMKDvm2crOmFwpQXGZzkIyylICARpoQIgVBAf/7t20ZXrlHjCUNuNIgf4MxmCvlJlSwkFO7ZTme+9G1lUArnqojMp5R2fJ8069cwV1UsJBSJsY6L+dWnjTzGc4AaUJiRvFxzj/GCqldIKBJnIZex3aeN2rzM7mpCYcZ8g/gBuzKDm1W1QkLhjZe5x7eNYw3ycguxgzEMNLa4hE6UqmKFhMIrdzHJt41L6aNGFIbczKuG1oppyypVqpBQeCdCDz73beURzlUzCjO2cwnfGvbwj1WlQkLhj/UU8ItPG5UYzcFqSGHGzwbxA8p4h3GqTiGh8M/XdPAdRbUmReyhphRmLDCIHwBwBt1VmUJCYcEb3OHbRhNGkaPGFGZMMQqq/qTyMgoJhQ33M8G3jQL6qTGFIQP4l4GVfCaxrypTSCj8E+FyFhjIzQVqTmHGdjrzhYGdAylSXkYhobBgA61Y7ftMXuQQNagwYz0FvuMHAPzFfG2GEFkpFLCYTr6d2jWYxl5qUmHGQrr6jh8AcC1/U2UKCYUFb3KbbxuNGBmgMxLhZ5pB/ACAIZykyhQSCgseZqxvG63pr0YVhljED4AqTFVeRiGhsOFyg3Wsd9JWzSrMiNDdIH4A1GGi8jIKCYUFFpFxcniBI9SwwowNXOw7fgBAM4WwFGGlcsDKs4QC3iLPl43qFHGSyaUtBMA3dOD/qOTbzmXMZpiqU8RkD2o7PEav8HyXP56mHEpD6rMnVdmLbWxgA+v5lm/5mpl8Hi8SQeXAVdP79ONxnzYOZTzn+55FlVweMoonlCo+zNDLcne6MzTur97gdu4zONpgvuRd3QtFDFoyOer2tzjLw0NzOwo5heoVtudSgxrA4b/9v4q3GM2rsQLiRzx9miW1qp73WKqdP/emqFkbeiyf1usGgzFE6OHidzmMM+iVEVayvyp9F4Z4qsvRGVkXBQ5nOyNBO0cwko0J1ecK7qVmmIQinw99X5DbaS+hEHHoR4QIxTR1NSTwmYlUfEJVVbyEIqlCcShj2eapTn+hf/T+GUShgLos831BrucoCYWIQQtKf2uN5ezn4vf1WWUiFaNU9RKKpAlFDj3Z4Kt/fskJ7DJWFUxW0I6tPm1UYxr76BoUjrf9sb87qOsy0UVEpsVGaU278HdVv0gKtXibp32mXWjEB1wbDqGADwySnNZnXADd9SIIVHyMaO5qCoVF/ACAgZyhJhBJePh5n9MN7OQxmAf/mLohmENPZTxj8Jr/SJLLqKGnMJLD+ChtcoWrfV8wGX5aw0Fqht/R0NMOvA897c8PJn2z/HNPWIQij/8YnG43CYWoQP+obbKVU13sW5W5JpfhPOVllFAYCkVV5pjKRITtdA7+0BNACe1Z5tvKU7u6ZkRW05I7HR5MJriIyGQRPwDgaEYqL6MwY5h5NsUcni1/7w16rNWVFLLFp418Juv5XfzOoYxzXGVdh0kuIjItpcD3VAuAtvRVcwgTzqJLnF/MZzDdOZ0mHMyRNOdi7mAaxTH32Z1/lv8Z5KGnMroavES9l7QsYxp6ChfV+TxOy4xwZefvJi/32zhPTYKGnnbGy9BTJRbGqKetPEtjx+uhG9/FrOVzwiIUMNTgkhwsoRDkMs1F21ztytZzJlKxloZqFgmFT6G4KEYtzadJnCNWYUCM5XmvhEco8njH4JJMTpYxCUWYuNtV22x1NcXQIn5AhAhfsKeEQkLhSyj+5VhH71LN1VHbUOxgoZR6YREKqM1S3xfk5qRkGZNQhIfWbHcdkekAF/Ys4gdEiDAl653aEgo/QrEHJQ77LHOO3bQLVznW85WEJnHoj7Rmk08bVZiiLGNZTCNGub4h1+ZlFxGZLOIHlD3N/UPNIzzT1HFZ8a2sdW1lGG86fHMqIcow/SlX+rZRV1nGspYavJLQEM+xrtIMfcD1JqW7iwvVRMIjTiMlvzIuITtOi5NPCJNQwEsM8m2jmRLHZCW5vJSw07gL17n41VM8Y1K+Mb/nBhAiMZzGSWYn+L47nZ+jbq8TLqGAvrzu20Y3gzcTETYe4HwPez3qKiJTb94zKGF1ithLDSU84OSHWJ6gnQgfR92+F/nhEoptdOZ731aeMAmbJcJDATd52q8yE11EZCqhPT8YlPIwxhukWxXZh9OQao2ELbWhZtTPltyQVclaCnynEM1jvLKMZRFHJ+DErkgtitg97q9W0s53/ACAltyu5hIJ49T3El+hs5Gfo34iuaGrlPl0jZcIPC61maYsY1nzWl7kK/je0Tzr4lez6WlS2gEpyssoMgmnmU1HcrzVIXJDWC1FDPRtw92cFhF2KjHGdzjvzq4iMo1iqEF5c3ieI9VsIiGch+Pvs7rD54ayYm7hVd823M1pEeFmIC1NnvOru/hVH94xOFY1XlFeRpEQHzt+05IHs1kotnMJ3/q28qiyjGU4l5qscohwJetd/K6EQhYZHK8+Y+TUFgnwQYwYsDcx3iJETG5Iq+ZnWrHOpw13c1pEWLEaXnzI9bKlNRT4jh8AcDb3qfmEazYyLca37VlIT/KyUyjgSy7z7dSu5dPRKYJLbV52MV8pPtPpn8Cv5xk5tfvRUU0oXDMo5rd1eJql3MNR/l6swxAUMDr3GgRkm+QzIJuCAgYRm3jDEb6nVsLHfszkyJvsZqyEAAUF3IG3VKhTXdXYYp7kAm8Px2EWilxeMbgkb/JVBglFEHnS5Ga93tMMpEq8anL0xfxJQiGhcCkU+7PGdb2VMIuHuCAx30WYhcJNvrJkZxmTUASPy4xSy7fzePyafGtSghmOUUElFBKKirRga4L1V8pHDOQcd2vKwi0UcBi/pDXLmIQiaDRjs8lt+i4fZWjCBpMyPC6hkFC4FApo7bHnb+J1rmTvzBYKaBUjjV/ys4xJKIJFHX4wuUVP8znRo8B1kqTYnx4SCgmFS6GAE1nsuacVM648P3ZmCgXckcYsYxKKIJHHeya3568MIrk+aFKSYppKKCQULoUCasZIi+rmM4cLMlcocphgcEn293RsCUWQeNbk5rzOJDdELv82Kc1y9pNQSChcCkWZBX8+sg85ITOFAqqxwMCp7SXLmIQiOPQ2uTFvM8s2V4NvTEo0k90kFBKKBGxU4UZf+dy3MqDiRIrMEApowOq0PElKKILCX9hiclvub1imRvxqUqahGd52EgpboQCoTCFv++hzs/+YOS9ThALOpjQNY9MSimBwID+a3JKn+FyAWZE2Rk7tKyQUEgoPHMT1zKDEU/0u4bBMFAq41eCCfC3BgGwSiiCQzxyT2/GXFgHUKnCPScm2cqqEQkLhkb0pZKiHNWdLdqR4yyShyGFcyufPSyiCwHCTm7Gf9TTO2MQPiLAig/MySiiSKxTl7MtFPMhHCbzlzi33j2WSUEBVPjZYkZtIljEJRfq50ciJfX6SymcRPyBChFlUkVBIKAyoy2WMcxn0465MFAqox6qUxviRUKSbszyOwFb89EtiGS3iB0SIMFJCIaEwoxJnMIL1cVfyNAhzmHEnltCRUp82lGUsPNRjnElEpCIeSWIpF9KBbQZ2utJLTS6M2MbbdKMufVgV41f59MtEoYAZ3OLbhrKMhYOqFJlI+ny6+s5uEpvXudvEzuP8Vc0uDNnAIA7m0Rj9vwt7ZmZ0ykc5gu4+bZzNfQaC48zTbMnYrnc1P6fkODm8wHEGdtZSwMakl/YejvQcj3YHeUziRJOUq0KUs56+zGUE+VG/3YMWmeejKH9dmmPg1HaTZayhydhzZn3+nKJWvs2ktKW0TFF5LeIHRIjwqUnuviAhH8UOUuejqIhzeP4nc8lMNlPIT76fV4dnVZaxsHGO0WBOX15P2Ut+K9YY2DmGZ9T8wpyRzHL45ojcjD3ppRSw1aeNqkzOoixj4eIQxpt4kV6Kk2/YlkV0MnFqX8IN6gLCnDEO2w/O5AxaM+nLYJ826lHEmZSoBwWMakyJl2jFFZ9yZYpLPp3+PGBg52G+4DV1hAzE6Z4c/QHjNIfVPzOY7ul6iM5emZ1q8Qma8DefNk7hYfqo9waKHF7gCAM7P9KaTSkv/UMc7cr7FZtKjKYp36kzZBy1Hbb/GnVrQ26Oun0fT0Kx3mF7fqbn5O3NUZzk08b1LGC4+m+AuINCAysldOB/aSh9hB4cYuD9qkkRzVMwW0skTheHB5kpfBh3330TEoqVDr/2NhvQaaB9XaYLxRYuZq7vWThD+S9z1PsDQmsGmNi5nnfTdAbFtGWugferCaMoTPL6D+GFllwSdftqF0LhdLdaHXXrModfH8MBHh6DnLIprs3N+CZbQTvfKxbymZoFWcbCwWGMNFkmOoon03gWS+jkO34AQIHDwINIL786bG/kYl+nEZDPo279wuGdMoe/J1zqHDo7fPNDbhY02iyu8m2jLhMzPstYGNiTKQbZrGE2PdN8JjOMbvH3OeU4FmnEKSRGi7jZThrS2OGb+VG3lji+o/RKOA1bZ8cYd3Nzs6LZRhjMO2+e0mmUIhq5jHG8jBJhJYUBWBf/GC8EqE6EOyrRjK5cwYUxH1jmO2yvFzdC8dUOUrKOrxz2eMdhez7jqZnAmTWOMUd0TqauzK5IHu8arIjtGfUJQCuxU7Uy+/4MSwFklW7pK5O3rHQSjpXZOVzD8p360dOOccbqx2irWKvqG1Gc8LnWZ1uMNfwHujy34/jB0cpG9swWoYDa/C8ptxgJRaqE4uIMTCp6gFEC16khD+8ZBqHYjcm7lGCR49vcN46lnuaYVWQf/uu4V9sYJXstRh2tonvc4a7duJlN8YLbZ4tQwHExK8NrljEJRWqEogkbTMo2NGC98i9sMTmvOyQUSeaFqGVY7DCd9c4Y5Z4ddfLs8XzluMfSmB7SFnHq6Quudpx0eyA3sTROzLuTsksooEsSsoxJKFIhFDX51qRkMwM4JaG3yZltN1lbIqFw4kzHUjwX9fcHx0ynVcp0etCYar/drNsxJcYAUiRuFpJJLvI3fsxT3EwPWtOCFnTgRp5jgYu39N/CemSTUMAT5lnGJBTJF4pKvGpSruUBneT8rMnZrTNZrS6hiM7EGAPSe0fd40mX2TTj/+Ybh/DfO78X/Jqka3lduZcju4SiMm8bVF5vCUVKheJRk1IVOy4nSjd5vGdyhgtN4l9JKKKxPEY5zo26x74uc1LH+5RwsovynUtpEq7k7eUZVLJjeuwOSik0SPqiLGOpxCpSaq/Arq4voZ3jCttEONQooq7YlVoxvqsTdetPdGG7wZHvYraLX73GrUk469uZWP5ndr1RABzDRt9Ku5oGeqNIyRuFRWtFiPB4wHtlMzabnOe9eqNICrHeDs5x3Mt/aq1E4gdcF9PPkfjbxJ07G88+oYBLDLOMSSiSKRS1+N6kRO+RF/heeZnR5d1BQpEEZsRwE8fyfPmTiqcTHPPpaDQ3MMKmismks1EobEa9X5JQJFkobDxKERaHJP3UMJOz3cBREgpzesRYwxKbbq4c1tGc5Fd7KGcD3jLoQ7N3jUqVnUJhM4/mBglFUoViiNGzUVgS2trED4iwyHHFsITC+0PLxw6yfKQL31HikxVmcozHkubSw9dk8iVcEc3TlZ1CYTMzv5TzJBRJE4quRqXpFKJeaRE/IEKEN6ksoTDmABbtUoItMVdM78yFfOT6vOZxadzV1PFkrQuzPEQy+JSrnVYaZatQ2Kz1XRNjIY6Ewg8nGzl3HwpZr7SIHxAhwiMSCnP+RFGFFc8nJrT/sQyK43NbxvOcZlbeBtzGe47Ro/44BfdD7ou1DicHb2lPmjMrA6SigEk+lRu+chVjPrvY3/dkzzrM3SVYihfe5FyHXMPBpQujTOx0Z0SIhKKXh73GOKQHSiZH05pDqMJiZvCGp7tnfU6jEYdwINXYnUpsYAMrWchXzOWzJJR4N47neA6iAQ2ozt7sRjU2soVfKGYR37OIz/gwXqbEyh4DcP+YETe0Im70/W6Uz4a0JNQMMsU+98/hEbbyve9yrKJD6GQCXuQgTjF5DHqFNSE553lM8bDX3DSUdL5jCHG3LGZxSku8lVkZ8VgvhBAiyPw/+GXU344OF7YAAAAldEVYdGRhdGU6Y3JlYXRlADIwMjItMDktMDVUMTk6MTY6MjUrMDA6MDBAwYN6AAAAJXRFWHRkYXRlOm1vZGlmeQAyMDIyLTA5LTA1VDE5OjE2OjI1KzAwOjAwMZw7xgAAAABJRU5ErkJggg==;" parent="1" vertex="1">
                    <mxGeometry x="1062.72" y="723.03" width="167.13" height="33.93" as="geometry"/>
                </mxCell>
                <mxCell id="52" value="" style="shape=image;verticalLabelPosition=bottom;labelBackgroundColor=#ffffff;verticalAlign=top;aspect=fixed;imageAspect=0;image=data:image/png,iVBORw0KGgoAAAANSUhEUgAAAggAAAB1CAYAAAAr3xlVAAAAAXNSR0IArs4c6QAAIABJREFUeF7tnQfUfUV1xbdGRMUWNagRrCCiGESsYAPEihJFVIqCogJib1ixx6CJSrCBIgGMxh4NxoaiYIkIsYBGrNHY0GhEkVhj1g/mLR8v73tv5s6ZW2bOWeu/0PXdO3dmz7yZPadeSi4zBC4j6c6SfiTpbIfFEXAEHAFHwBFoGYFLtTz4hbE/U9KLJT1F0qsl/cqxcQQcAUfAEXAEWkXACcLFM381SUdIenxYCHtJeleri8LH7Qg4Ao6AI+AIOEG4eA0cKuk1c8vh2ZJeJel8XyKOgCPgCDgCjkCLCDhBkK4jCUJwyMIC2FXSqS0uCh+zI+AIOAKOgCPQOkG4lqRnSHrckqVwpKSXSvqpLxNHwBFwBBwBR6A1BFonCLtJep+kTTeY+BdJgihc0NrC8PE6Ao6AI+AItI1AywQB0wKH/34rlsCFkm4i6T/bXiY+ekfAEXAEHIHWEGiZINxa0hkRE36ipIM97DECKX/EEXAEHAFHoBoEWiUI15R0gqS7R87kVST9PPLZGh+7qaRnGQ7sOEkfNWxvKk3tIulBkq5k0OH/kfQIg3a8CUfAEagTgaNDCH/n0bVKELaS9LUE1E6RtHvC87U9Sp6IJ0h6jtHA0Mgca9TWlJp5m6Q9JV3WoNOsR9aliyPgCDgCyxDANL5FDjQtEoQrSzpN0vaJwHHra9lZ8S8kvVwSjp258q1w+21Ji/C3kh4l6Yq54IX3W/ztGkHnzTgCTSDgBCFxmtlUvyLpxonv8fhXJW3T4b1aXtkkJJQ6ymhAD5T0dqO2ptDMyZLubdTRbcM6NmrOm3EEHIEKEXCCkDipEIT/TXxn/vFzQ1RDRhOTfvVykg6X9DyDUfxC0h5Bm2PQ3KibeK2khxuZFkgBDrn6/ahH7J1zBByBoRFwgpA4A2yql058Z/7xH0vaPOP9Gl59akggZTGW8yTdVdI5Fo2NuI2TJO1v1D8cbKk46uIIOAKOwCoEnCAkrA98DyxqK7RuagByql5S/dJCKLH9iUzNjkU/SrRBAq5XLknj3fVbmLhYfy6OgCPgCKxDwAnCOoTC39moua0SrpgrONjdQdL3cxua8PuUxCaiAdJlITeUBK61yZMlPV/SZgYDY72x7mrEyQAeb8IRcAQWEHCCELkk9pb095KuEPn8usfOlHQnScSityoUuIIoWJCu+0h6f2V2dUxRLwyRCxZr5HaSPmPRkLfhCDgCTSDgBCFimm8r6Z8kUZjJSr4jidvhO6wanGA7hOthW/9Lo75fvbLCWOSNeIURNp+XtI9HLhih6c04Am0g4AQhYp7PknTLiOdSH/lcCPtr+VbHIfh0STjO5Qo5Al6f28hI3r9eiPQ40KA/Z0s6SNJnDdryJhwBR6AdBJwgrJlr4s5fI+m6hdbEm9cUeyr02VE1+0FJdzPqUQ0ZFv9E0sMMyc5jJb3Ba4EYrTBvxhFoBwEnCGvm+sMhjK7UkkD1S16AD5X6wATaJb6fstjXNujrHzLDUA26kN0E1T+pEnrf7JYuXlesL9aZiyPgCDgCKQg4QViBFnHnHFyoe0vKqyU9puQHJtA2VTGpjmkheP1bJGKy6EtqG9eXRErl+6e+uMHzrCvWl4sj4Ag4AqkIOEHYADGqNL5UEvUDSsuXQ6VDHCFbFRwVjzFKIvVTSTgsTlEIQzzdqOOsJyposr5cHAFHwBFIRcAJwgaIUVToMKPUtjGTgikDZ71/i3m40mfuEWor5BYj+k2w309NK7NliOog8VOu/C7kmfjr3Ib8fUfAEWgWAScIS6b+kUFF/ec9LotfhrBHbtEty09y648H8L4taaeJJaO6mWHKaMpCk9KacFoXR8ARcAS6IOAEYQlq3Lpw7Opbvhe0Fu/p+8Mj+t52kr4oKbcUMVqE90oiwdUU5M9C0SkcFHOF9YP2i/Xk4gg4Ao5AVwScICwgd0jwILdKAZw6MXj0H5/6UmXPUy0zlyAACSSBm/RDRo4PYY0PlvQmo36yflhHLo6AI+AI5CDgBGEBPTQHQ9ptfxVuvSfnzOrE372SpJ8bjYEwPxxOxyyXDxkgKYWdK6wbtCasIxdHwBFwBHIQcIIQ0OPGSpKd1+agafQuG/y7Kq1OGAvRRyTtGvvwmufeGm7oRs2ZN0PuBguhnXdL2suisSVtUOZ8sdT5jYLm41YrvklUyT0lkTl0fqz8b8qnu4wfgWVzz375XEmYxzaS0yQ9folvDfNute6HRu8yCx3ATPhXkqgPs5FA4Em1f+zCA2hP+TcWcYIQZoJDGXX0WISwv/dJwhu9RaGA0zeMwhWxyWNm+MUIgWRz/ZFBv9hsT5W0m0Fb801gaptpNo6QhAPvZY2+QfKmmXaHomVDz8/8WLsO8b8l/bbrywvvgfu8qfPXRuXmY7qH2WsWKsxvEZ8WDnorYX/7dGiMeZ9S0To0nGj9kC0kkYrfSkgVT4E25hr5WTCVWrWf2o4ThFChkY3vlanoFXwe+/mOhl7tBbtarOkbSPqmUesnSCLl8NCH0OJwLpzbbHKGykbC+iVJVK5wIEBcOCQoFsXtv7S8Za7vP+zxIJwfF9VaD8gc6M6SPtWhDTSYpHOfNzNxA33ZXFtoFUtph2afQVOwdehLX9ldKfv+9nAZ4lIwVmF+IAb8xh5o5Ce1bqykXIdIsQ9aEc9135z/uxOEkEqZPARjE269aDUgCy0KYaaUcLZIVkXYIzfgE0cEJATwk5I2zeyTlTPm1SRtI4n6I9wYr5rZr66vv0TSP0v6kqEvSkxfhiAIkGCqxKKmJsR52xUdLUkQrhNuw9yOh9oLMUXtEUj8OTET1tMzEKZrhNwqhCIPIRDDH0ii8NoFPXageYKACo+EOi/uEfSUT5E857spL1T2LFU0rVR4kK1nGGolcqC+qaSPrbHfxrbP+mCddBUSU5HmGvMEmRfHIswVIa+YTvpQQfdFECBe2KkhZIeGQzEG81IEAa0HGtR9JW0S05HCz/y7pKeEMN0vFP7WquZvLGmrkE/kLgP2Y/7TTwok4ZSe+tM0QUCtx8Y45nLL2P2oJtmqLwK1CahEaGVbf9qC2ran39n/+wyOk/cz2JBZF6yPrvbhzSQ9WhK4cEsao1AS/J09EOXSBGFmRsCMsU8gCSl4WxOEO4Y6M9i8+Z2NTdCu4TQOSeTm3JfgeHt7SQ+QtGdfH034DhoEiCVJ5dCwlpSmCQK21hdIelxJhA3apsohdtlW5eZB/cqPNlfGUJ8AdeHRRtUrycDZNTU1Phl/auS3kDsv697H25uDomThqZIEAfLFDf0WoZT3uvEu+7slQdglFAXboUtHenwH51sOwWdK6kObcMNwJuzX4xi7foosqZxdJRPrNUsQcAbC1sntZOzyquBgN/Z+luofNvoDJb3O6AOoU9FKDCUUY6Iok4U8u6N5DMcwyPGUhPAv8pT8TaFOlyIImDHJrcKtL0csCALmhLuGEDx8YKYiHwi1akqRBM6D24VQd5KWTUVw6jxJ0pkh6s26380SBOyAhCRNRSgBjF2uVcFRiNLbeA/nCvY7YpC5kfYtjwg3dos6Hzjy3bfDAMAR+/5iToMOTfX+Cr4I9J84c2spQRDwekdbdJBBZ3MJAho4KtRakVODISU1QVQF0Q7k+kC9biWcBawn/J1ua9Voz+2wl6FlITTeUpolCIRVTYkp4qme6+1uuXCGaOtRwdRg8W08tVGxn2vRWEIbqAO7HOrLPoG6OvVGdWRQS1pkbUwYtumjZNmk2iq2c8ukMiUIguU+k0MQbiPpqHBLNp2MnhvjwMK5F00SXv25wp76Dz2Ej+b2M+Z9/DSoCPwvMQ9HPtMsQZhaFi82QhbyQyMntsbHrheqbGJuyBUyuaFqZbPpSzBn8QO+psEHWQesh5QDEtU8tUZwTJy6kPeBA+95hgOxJggc6DiiWklXgrC9pONCXhWrvgzZDpclNAmE4p6f2REO0z7yfGR2M/r1L0t6oiSrHBZNEgRLG3D0zBk8eF6ImTZoarJNUMKYW7BFMSdire8v6Ws9oIH9Gbs/DqcWQuw86yFWIAdoYIhzr0UwEUISLJJDgYklQcD8Qz4Ji3U6m68uBIFQPd4bKn6/1FojVTHmAG7NXS97OD/eo1QHB2z365IwZX7coA/NEQQOhHcY/3AN5iGqCULacNZZleM7qqEJP0T6VwiChU0XGPDiJuVvaUEljgbB4sBg/lkHsaGv2J0hKF2jHUpjk9M+N0jID34JuWJFEPDv4OBZzNGf279UgkDyI2oh4Jlfo3xLEvlEuhYmw59lyqa2VXOKhgUzDBjlSHME4T9C7G8OaEO+S7gjces46rQq3IKJ/d/fAACcnbDll0xGhUMkEQNXMOgvTbApkkwmRnC+QuVY60YIBqSrBl+IY45YEQQiZFZlROzax1SCYJmqvGufS7/XVauKU992RoS99Bi7tI8ZZvdAELu8P3unKYJA6lY21ykL6rRPSLrTlAdh0HfS0qIytxBUlZ/NUFWu6wMV76xs5WR041YYq1YlRBZbbe3CRob5iQRUXcWCIPw45Jaw1h4wphSCQI4XioBZFdbqimkf7+GPQj6PWEFjSPp2C21e7DeHeI7aDSQCTHVknu9rMwSBcCNszrWo2whnIW95y0LqZKpwWkiJZFRsQCQysSoChnPmP85Vels1bgot4eWPuttacPBErcs/vPSJBlknlIM+OZg5wMVKmzL/XcaKuSHW9LLYZwuCsA6HnL+nEIRYApnaH26ms6JB94q8oULkMbEhRA1YkydqOMwqT64bD1Ukyc6ID4+lzH4TtMnvnfwk6wSnay6tCJiUilIjSya1aLpIMwThjMCmuoA0xnc+EnIC8ONoVUicxKFp9cOyvlEQrUBtg5gDdN0cMs/kgGDeY2TXoHLnYLYSDof/koSTb06IMHHnOJdxu93cqnOhnYdLOr5jm7UQBEoQs7FbChk7cQqlZk1OwjLyubCOqRZq8bv9XnBW5L/rhGyWOCZa/iYgBoRbUsHzQes6sOLvOLSCK+ZTtD+WQgIoNKQpEU+z7zdBELDF4VVcmyfvmyRR8bFl+WCwtVkc7qgdrXK+80OnCJhVQh/mmfmOEdSt3KZRuVsJntFka8M7msPCQvg98rvk92klVOwksoFcCalSC0HgILD4PYAf5dFxdENbZ1nQ7o0hgogsk136+tWgwSK/w68jJxoNFgexlfCbIJOhZSQE5Z1xZobkUczLSiAdXX4T1RMEMvCRinKqGbJWLRCS/eCwyEJtVVCjc0O3YN2opq2q2bERsSFZCPPLPMeW4YVMEPduNRYcurgdfcViMAttYCPFn4QCORwWFkLuAWpupMqQBAGnU/wXFk0DZLtEy0IZ7hgTw07BR6nLobuIF+SAGhilMrjim0PBKPxqMInFCGZiHIvRHOJwHitUz0SzxG3aQvADIqdIrLNw6jfBnAJqaFosBHNQl8JO1ROE14fkQrU667BpsJhyw1ksFuFQbWB3Jowv166NupAsh7mZyGD+lGW1KJ1Mn6jUGFukiIMBNbtVrQlUk9iQS4aCQuK5NWEftkhBTd0DVNmYQ1KkT4IAGeCww8EOob//Kon5nhdIHqmRIcH8nZDVVcLhaXHzREtEpBCHVGmJyTbJQcVhjG2fNZkqXBItop74LvsD+8TiXKX2ad3z1iShC2msmiDApl8hCTVUrQLLh4kzzpblm0aqamz9ZJ7LCXtk3VGq1kI4FIhn5sYSI6jrSRxkYXrCrsrB3WVDjunr/DM4iRLpQSGtLhvZ4ve4laYmiumDIOAshh8Jhx2x6l2dx5bhS3lixpCbKROVPftJCQfXjdbFKuwhpxBk0pRDrLqIFUGg7DhmAPbdPgSSQPbVWCfMVX3iHEz9LVdNEGDAuRXU+lgEud9A9cyP+azchib8PuOHKOU6PuGZT3GdrjcnfsgcdPgf5ArzybhiTQt8j1u4RY4MHBEhJp/OHUTC+zhWUmHVgtBTzjg1jXZJgoBfAKYixsd3SggZQbcyaBizHb4cfQoa3kVfAtIGc1tn/eekDmZdvSwUY8oZE4mV8FPq26QLSWdPyTWjnioJLFKkWoJAkghUjVToakFIhmMVTjdVvPCyxkM+V9AiYB5I9dZmk9vH8ABgPpnXWCEZ0gEd+r3YPnHT3FrI1ti3WEVfUKeC2xeJxWKlFEEg2yN7EY51mARLiQVBwAdiiCqf82G53wm+DzgMv9cALJxWCTfOFbQqJOSamYVy20t530JD2sXHqkqCwALHe5wbUCuCSpsNEZV0q4LtHec8C/lMB4cmbL+wdG4ZucI8Mp8ppgqiAvAOz72Bz2zPVtEKqVjgN0S0RK5gKkop6V2CIBAaylhQcZcU1j7+CbmqaDSuqcTYalz4EJFCHfOehRZs1i8LgkDCMTQrJJ8aQvaTxO+CfD5dBYLA+kiJZqiSIOBAQtpVPFdbEn5cbHJd4l1rwYmb474Gg8HZC+dHbn4xQqITbMqo+C3khOCpndLWnTuo1Rfbh+DgYFnSKXHdmIhsYEPOJTpjIAgk8qL2S2n5qCTmP/f2b+H/kTNWNAmWzn/4ZRCeSdGqHOkaBZDzzcV3czWkaIcIlU6pCFwdQSAmFcaYuyAsJ7avtsjKhZNXn3bjvsYW+x3L/POEBbExxMgyG2rMe8ueYf6IHMDLPUUsCALRD6yhoQVnMAqr5QgbIamXucXHiLUGgVDX3IiYmH7zjEUiOPC2vLnH9r3kc9ju8U3KEXyS8B0hIdKQgl8NRDBHcPJMSU5WHUFAnYcqplU5N8Ss5+Tfnjp2u0k6xWAQ2I7ZHCjTvE7wDrbI0MYtAd8DbJ2pUhNBwNmOtNI7poIw9zy2bPKfxPohWBMEHGZjyUnGMC961YIgkGBrCPt67thXvW9BECCa3LxLpa9OGX9uH5omCHcLE2mVXCJl4sb0LMlHKOjUquALgInAQmDQHNbr8grk/nBnfcX34e6SICcpgjmN8LncPALYJ7uGkqX0N+ZZxpJjc+UbWyaErFoSBBLycGhbrYt1eOUSBPxNKA+duu7W9Wvov1sQBCpGXjD0QML3SSiWI00TBFRkqCZbFzZ5bk4lMt9NAVvsqESvkBo4V9jgsYev8oLOVsOFTjJfzFuKE9FsfDhGtqw12miehyAIHCiUEk5N1NR1rUKkMIflOMfuENZPX4Sm61hT37MgCKnfHPPzzRIEC/vMmCc2tW9sULNKYanv1vA8KmrCyqycrl60gamBWHs0NrnOYWDOfDFvXcQJwnLUhiAIlJQvlYJ32SipR4L2NEeocltjNlYnCJdcFReG3Cp/F7lYsi8/VhtwZH+XPkZ4DPHfhGe5/BEByolih21VuBWRgfCKBgCQCpc0ryRSmgmJS0jmkqvWp73vBxVv1646QRgHQUD7QxQG5LQvcYKwHGn2P4i9VYrlvuaz9HdYm9T2iJHJEwTCy4hcoCqcyyUROCwUwrEMG5oSxqyNPQ3DzJ4cUtDO1LCo9HPUujMsaY+8B6Ro7ipOEMZBEHYOpX+7zmOX95wgLEeNEFNCla/bBdSK32mKIMASU6p6VTzvS4fWusMiNn1yI+Q69wAuvgjcSLAx4xQIKbVIbUvGuFyi4QTBCULO3lajiYEUxa3XqFm2JpohCNwQH9xDlrKcH94Y3h2DGWhIHChVTMichXAj4d/bJN3JosGQECi1iMrip50gOEHIWY5OEHLQm9a7zRAE6sfXFpZTYqk9MGT5K9H2FNq8vSSccizyFJClkrYwa1lk6iT7IvOTK04QnCDkrKEaCcKBoYy2RfnrHGzH9m4zBIFCNi8fG/oj7A9VyHDkbFnITIgTK6lcxyTMC/OTK04QnCDkrKEaCQLRJNTkwQ/J5Y8I4FhN3ZYYmayTolVZ2xiQpv7Mb0Phn9jQlqmPd1n/ychHXYW7jmhwzAcFmZifXHGC4AQhZw3VSBAwQT9f0jNzgKnsXcIcyQwbe7GeLEEgZhyG6BKHACl8CffpKzd8XK/6fQqHRUjCXfr97NKvYaogRp/wRgtxgtAuQcAP62WStshYSDUSBODwPAiXXBQk7yJjZmwK8EkSBHLVP9YoOU3Gb2pSr1Lqk/oE95xUr+07S0ncp9o3m9wiORXwsIbRWwhk49jgG2HRXi1t9J0oaYgwR8xmhMnm+NjgC4PN3mo9jmX9OEG45Ew0kUmRmtyt11vo8gMkiQuhes/q8nIl75CpkIN5SFMD1eUguV1SKm80DVSTvJ9BtAYksqaEYx9I8PGwqMUwBEFgTeTWYqANL9a0/NfFfnF6JfvfrxO1yJPTIFBVC6/vTSqZsL6HQREnciO0LFT7pOrnUEJ4ZIkNp6ZqjkPMjRMEr+a4bN2RNvthkiik1ppMiiCQ756CNlu3NkuG46Vq23GSHm/Y5tSawlbLYUBZ6L4F3MGfebAWC4LwU0kvTnBish7DkO21ThByaoEMOW+rvn3NsJb3zezgvUJBrMxmJvf6pAgCmeuIP8c71aU7Au/10J+LMiI+RhL1FPoUQq7Av4SgGfqowe/jKElPS3BkKjGWIdqcMkG4haSTM+t5gPmQSdX4LWL+ZO1ZCut5VTXWmG/h3EdBrM/FPFzRM5MhCG+W9AA3LZgsPWozcIs92KS1aTaCierDkrh19yXkYnijpFK1MXBW4zeSmzWSsEs2ajzjW5IpEwQOdhLg5Kb+vkDSlQaadG7735X0i1A/hd+LhVgQBPrxw1AvpcaqlxvhPAmCwGaO9uDuFqvF27gIAbyVOQDw8m1ZuBFw+yotVNV8tKT3Ff7QfSW92yjCh1vXqyURktm38JuniBVkalYcq3QfpkwQwAaCkGt+BevLS8KZrU+h4irEYF7eEmz/rAGisLrK5pLwO+K3kSs3D2XZ+1qTi/3dtOe5mQRBoNhOrg0pd2HU+D4/midJ4tbQquC1T16EkhkWwRecwbu0ULyMKAmcqiwELdMJPW9KqJr5zZNGnbwVZH4rpXWZx2jqBIHEW8wXES058jNJN5ZESFwfQn+/LelaG3yMUuvUP2E9dM06epJh2WciofDX6FsgOmgxKC/P76GP+Rk9QWDRvEHSvfuejUa+hwaBbGMtC9VAOVhLCfj2qamBHGDKsJJHhgO76+ac0g/UzGgt9pp7afeQUAqiUFKmThDA5ieSLGoPoPGCOJdWp5O0B9t+zHolIyKm5h908I+BaB4mCU2FhZCYjAOaA7u0bBZ8S86cM//M5oe9q6Q2Y9QEgVsdcfuHlJ6BhtvHF4HUm/zoWpV3SCJ1dwktAriCLzj3JXhc87u5geEHCQsl1r7kbZ7okiNXaAvvENJS048SUgNBIFOqVTI0wvsIKSdyLEfFv9FcYdpjvslJQoRajGASJNkZjr6pSZ1w4rS8aLJv0H8O7lJCzQSirbhgkKdiXpgXzkZIyrmFOjBqgsACwk4+ZFKbQriPqlnU3zjyDGFrHgsQH5LETdVaUPsOEVKKvwNqWezJVsKBwUZFqWtLQWVKrYy9JT1kTcOomdEukM/D2k5eA0EAPn7HVtEIqNIpeHR2+Gcx76xJsj6eKOn6HRskAolbNIQo1vx0hKQnLDloO3bhotdI2gd5Jsrh0zkNLbyLhgKt5gslbb+mXXKqcE5+LZA5w25otASBOgsvMXIssQSsxrZIs0rqX5ycWhW8v/mBWco3gz8Ayb36lpJ1Jw4Ig8G34l0dB4azFYfEjSTdJqh/Y5tCtcvGiTbjI7EvRTxXC0HAZ+ShEeNNeYTwWdo9K8P+zlxz2F03hB1aaLg4nDF9YXqIkdcGbKyr20KeMWOwh+QQBfwbbhl8iFJrxuDIz15DQid8OixktASBWy3OKS79IMDCgmGXtjn2M5puX7EKh+LrFMcinfILunXF5C1MDdz+1t1Aun4Mezf5JBDUnB9fY6rC+XDmPMkGjVnn1l0/LolNmfoTX5B0akY7s1drIQiMp5RdGtX+DGvWOP+f/24k28yZPJhr8thY+EjMfy+lnP22QevQVXOxbplRE+Ot4SHm4P1rLl6UDKDY1sy8uauk+6z7yIq/Q9oxfZDs7OsZ7cxeHSVB2CGwMZxXXPpDYI8ewvD6G036l0jAZVF6mS9zi6D4zdBaGUg24Yqlk4tRlZK6B2woGwkHA0XWrOWzIUnQBzPT4dZEECCGz7AGeqE9CCKhiPx3IyEs8P6F+5FCEOgK5jd8B6wcFlcNj8N6VcQDTvhoQaz9nzADQqBfl+lIOUqCYO2FXXh9VtM8Kirs5a1qEXCUOjzcunMmFfzAETyHltuH4lSYHGoW7O74JTw9VDbscoOuiSBgwgGLPqNnhlpfHPiYDlLkIEnHFDiYU/rQx7MkTcMkR3bKX3X44OgIAs5KR0tiY3PpH4GhqtH1P9LlX0TlR+RBDqP/lCRwHIvQF0IHS5kaxjJO+sHGf3xHFXtNBAEsyIgI4a25euvDw3x3WYNkUm3BAR4tDzhNniBcXdITK1/QXRZyn++gGn/QGlVxn/3p+1skbcGTntwbXQTGDX45jkpdvrvuHey/JIvBJlyrkIgKnw/S9XaR2ggCkQzMe61VCPmdcvjFRjEsrgkcAonOqFnAhgsCZrguUWqj0iCgBn2PJJKluAyHwJMlvaYj4xyu13ZfJgwLL3Dsd6mC3Y8InDEK9mBiwfEir0043Emkk5PPozaCwByTZIfbI+G2Ncl+wRnvN5mD2iUUOMtsZrSvs4/hj9A1JHg0BIGbDSqfLUcLdTsdo+TvTXpK5TlWVCGreCSnCM5a3NjG7MNBaBmJXaw9yVNwsn6WEDd8PohFz5EaCQJ4EDFCNkyiamoQNAeEZnc99OYxwO8Ic/Y7K7uYkjgJ8xKOwzk4jYYgkBiCcCWXcSDAZksCGyuv/nGMKr4XFAsiIQ8qzBgBJ0jFFMrBXiPctEtHNsTglvsMeRiIFlks9NOl3VoJAljgtEhyIZJnTVm4EeN4Z7kvQRL4TZAobYicJdbz8RRJrGWSiuVmwBwFQSAfN4kdchzDrEEdeGauAAAGkUlEQVT29i7eVHJVeFPGkZS1ZGqLEXACr6kI5IAf/0YFcqYwDm5HhOZ2tUEvjrFmgsBYOQgh/YRArstYOcb5x1TCHHWJUIkZDz4b9wvahJjnx/gMkStkVezib7BsPIMTBCaFymHklXYZHwJWKVvHN7K4Hu0TChWtw2Hd3+O+1v9TmPTwm8BWPQXhcPh8yDZn3d/aCcI8XvgkHNpDfozcOYJ4oyLn4MMvqg/ZP3wLwp9bGbOP/qIlIBcEOU+sC+8NThCwiZKS1mWcCJAPnJznrQpOTIQIkoFtIwGfktUgS2OPUyWaEmzVhHmOVdAy4h9DKtoS0hJBAD8OXLJtXnukB+Evg0lkqFwOqOqp3UB03eVKLLjMNiFP54VslpiPSsjgBIHbQAvx2SUmr482YaZUFBuz411pHAhbfEXYSBe/hSrvypLYzKYupHnlFkLdeVTRYxFqLrAZkmG1pLRGEGZY4meDUzJRLmMw8/JboqYBpHXoHA5E/BAdQ0VFtG1jMCNiUiONMmfnwcHXoNTvYlCCQDEKixzqpcDxdi+2ZX0s/EBaxoNiVhQIWhTWL7ewLklIxoonJX7ZeCi/TM76IdSsmBJw+PxZKP/MTam0tEoQZrgSYk5yJbRmQwhOdbNiUKQHH5NQWZjwb4jzHSXhxDyEUDSLMtdoNr7RQwcGJQjYlobYfHrAtapPEL5HQZFTqhpV2mCIaKC66NZzr/Fj5TBdlYs+7SvjehonTcZ9VUloFxbr0ZfoLYlrqF/BLYmkR6vy2Ft/v3WCAJ740hBCiDDfzHtpgZhgRyc0b2iNQcxY3xi0hmgTcJItLewzs4JYDyj9sYX2ByMIOIKQErWGUKue52yQz33RTUEXqd+pMjoTbOFTCGu0WDCoWecr4BFXbyFkPaTi3UyIR6fo0hBCDZjcFO8UAerjZtcHPsw3847gp0AYr4WPClo3/M5mnvYU8MqJ1e8Di2XfoNjTy8MfMDPezsgXiWRfZ0j6UWibyoxW5ZtTsWI9Z10MunhvE25D9TfPmJg6XcM9z6JFxRabF2C4npb7MrcFQsSw1YIDeORk7ivX0/Its3EsE8ImqadyQ0lkpMREwIFJqldyFSyGqGFr7prWuvwo/QszBJjPewez0yIqNwr+IYSroxHmtsu8kteG+V8U8hjwN6tQvDHMEo6M7A/Lsqji04OJYqsQLYQ/DT5dJCzjHFwUyBP+F6sqo45hzFF96EIQ8A7FM3UqoVVRQDTw0Mcl4TfSsrB2qYy2tyTwcLkkAhCEWy0QBByqIAg/d7CqRACCgDZtniBgJtqIIFQJwopBQRBwsMU8yZmHtgSCwG9iGUGoCp9UgsDmSp1y7Jou00KA2zKOeqmlVac1ytW9Re2KqvW0hrUHNc2nj8URcAQKIpBKED4paaeC/fGmyyKAzRiScGzZz3jrjoAj4Ag4AlNHIIUgvCjkA7/K1AfdcP+xIeNcelDDGPjQHQFHwBFwBCIQSCEIlJrF0cVl2ggQ1oez3syDd9qj8d47Ao6AI+AIFEEgliBwmJB8hXSuLtNHgPnEi9/FEXAEHAFHwBFYikAMQcCxC8e2eziG1SCAJy7ZBadePraaCfGBOAKOgCMwNgTWEQT+fpQkkmG41IXAMZKeGwqG1DUyH40j4Ag4Ao5ANgLrCAL5DjhEXOpE4PBAAKeYCa3OGfFROQKOgCMwEgRWEQRyHRASV6oU5UggaL4b+0l6c/MoOACOgCPgCDgCl0BgFUGg4hRlcl3qRuAISUdvkFa17pH76BwBR8ARcAQ2RGAjgkDazeeEyAWHr34EKHk8X3Sn/hH7CB0BR8ARcARWIrCMIGBaQHvgvgftLJ6XSuJfraWP25lJH6kj4Ag4AkYILCMIO0s6TtI2Rt/wZqaBwOPCvF84je56Lx0BR8ARcARKIrBIELaU9BJJOK65tIUAJV53H7B2eVto+2gdAUfAERg5AosE4Q6STh95n7175RCgTgOahAvKfcJbdgQcAUfAEZgCAvMEAcfE10u65xQ67n0shgD1z39crHVv2BFwBBwBR2ASCMwThJtJOmcSvfZOlkTgA5L2kPT7kh/xth0BR8ARcATGjcCMIFxDEgfDjuPurveuJwQ2kfS7nr7ln3EEHAFHwBEYIQIQhE0lnSIJ/wMXRwAEviRpO4fCEXAEHAFHoF0EIAiXD05pl24XBh/5EgQ+6aTR14Uj4Ag4Au0iAEEg7h2S4OIIzCNwviSSZrk4Ao6AI+AINIjA/wE3wM+8gWY31QAAAABJRU5ErkJggg==;" parent="1" vertex="1">
                    <mxGeometry x="846.6700000000001" y="440.75" width="171.11" height="38.5" as="geometry"/>
                </mxCell>
                <mxCell id="55" value="" style="sketch=0;points=[[0,0,0],[0.25,0,0],[0.5,0,0],[0.75,0,0],[1,0,0],[0,1,0],[0.25,1,0],[0.5,1,0],[0.75,1,0],[1,1,0],[0,0.25,0],[0,0.5,0],[0,0.75,0],[1,0.25,0],[1,0.5,0],[1,0.75,0]];outlineConnect=0;fontColor=#232F3E;gradientColor=#60A337;gradientDirection=north;fillColor=#277116;strokeColor=#ffffff;dashed=0;verticalLabelPosition=bottom;verticalAlign=top;align=center;html=1;fontSize=12;fontStyle=0;aspect=fixed;shape=mxgraph.aws4.resourceIcon;resIcon=mxgraph.aws4.s3;" parent="1" vertex="1">
                    <mxGeometry x="596" y="330" width="68" height="68" as="geometry"/>
                </mxCell>
                <mxCell id="57" value="" style="sketch=0;points=[[0,0,0],[0.25,0,0],[0.5,0,0],[0.75,0,0],[1,0,0],[0,1,0],[0.25,1,0],[0.5,1,0],[0.75,1,0],[1,1,0],[0,0.25,0],[0,0.5,0],[0,0.75,0],[1,0.25,0],[1,0.5,0],[1,0.75,0]];outlineConnect=0;fontColor=#232F3E;gradientColor=#945DF2;gradientDirection=north;fillColor=#5A30B5;strokeColor=#ffffff;dashed=0;verticalLabelPosition=bottom;verticalAlign=top;align=center;html=1;fontSize=12;fontStyle=0;aspect=fixed;shape=mxgraph.aws4.resourceIcon;resIcon=mxgraph.aws4.cloudfront;" parent="1" vertex="1">
                    <mxGeometry x="710" y="330" width="68" height="68" as="geometry"/>
                </mxCell>
                <mxCell id="61" value="" style="shape=image;verticalLabelPosition=bottom;labelBackgroundColor=#ffffff;verticalAlign=top;aspect=fixed;imageAspect=0;image=data:image/png,iVBORw0KGgoAAAANSUhEUgAACToAAALFCAYAAADprc5IAAAACXBIWXMAAC4jAAAuIwF4pT92AAAAGXRFWHRTb2Z0d2FyZQBBZG9iZSBJbWFnZVJlYWR5ccllPAAAuWtJREFUeNrs3c9xG0faB+C2a+/knnEgNgJyIyAcAErcCAjdUWU6AsERmK7CXVAEpgoBCIrAVAQLHnD+pAj4dQuNJUSRFP9ggJnp56nqGkretYkXA8z0zG/e/un6+joAAAAAAAAAAADU2c9KAAAAAAAAAAAA1J2gEwAAAAAAAAAAUHuCTgAAAAAAAAAAQO0JOgEAAAAAAAAAALX3DyUAqEZnOuzGTffWX/fu+Z8fxbFf0a8yu+fvL+P4vPbnz4v++NI7BwAAAAAAAEAd/XR9fa0KAI/QmQ57+ccUSDrKP3fDTZgp/f1hi17yVRzz/HMKRK1CUPO1v79c9Mef7R0AAAAAAAAAVE3QCSB8E2JabVcdlrpxHKjQD30JN0GoWd6uOkYJQwEAAAAAAADwYoJOQBE60+GqC1M3j1WQ6Vh1tuZTWAafZvnPaWu5PAAAAAAAAAAeRdAJaJXOdLgKMx0FYaYmWQ9BzdNY9MczZQEAAAAAAABgRdAJaKTOdNgNN2GmVbjpUGVa5yosg0+zvL3UAQoAAAAAAACgTIJOQO3lLk23x57KFC11gLpcDd2fAAAAAAAAANpP0AmolTtCTZad47GEnwAAAAAAAABaTNAJ2JnOdLgflmGmXh46NbFpH8My+DQLy/DTXEkAAAAAAAAAmknQCdiaznTYDTeBprQ9VBW27CrcBJ9mi/74UkkAAAAAAAAAmkHQCajMWrBpNQ5UhZr5EnLoKQg+AQAAAAAAANSaoBOwMXkpupMg2ERzCT4BAAAAAAAA1JSgE/AinemwF27CTZaio23SUnezPC4W/fFnJQEAAAAAAADYDUEn4EnycnSrYNMrFaEwn+K4CMvQk25PAAAAAAAAAFsk6AT80FrXpjQsRwdLaZm7FHqaBd2eAAAAAAAAACon6AR8pzMd7oebrk1pu6cq8EMfw023p7lyAAAAAAAAAGyWoBPwVV6SrheWwSZL0sHLWOIOAAAAAAAAYMMEnaBgOdyUgk2DOA5VBCpxFZahp4nQEwAAAAAAAMDzCTpBYYSbYKeEngAAAAAAAACeSdAJCtCZDvfDTbjpWEWgFlahp/NFfzxXDgAAAAAAAICHCTpBi3Wmw0FYBpxeqQbU2qc4JnFcCD0BAAAAAAAA3E3QCVqmMx32wrJzUwo47akINM77sOz0lEJPn5UDAAAAAAAAYEnQCVqgMx12wzLclMaBikArfAnLwNNk0R/PlAMAAAAAAAAonaATNFhemi6NY9WAVruK4zxY2g4AAAAAAAAomKATNEzu3nQWlgEnS9NBedLSdqnL04VSAAAAAAAAACURdIKG0L0JuCV1eZqEZehprhwAAAAAAABA2wk6QY3p3gQ80ruwDDzNlAIAAAAAAABoK0EnqKHOdHgSlgEn3ZuAp0hdnkZxXCz648/KAQAAAAAAALSJoBPURGc63A/Lzk0p4HSgIsALfInjIo6RZe0AAAAAAACAthB0gh3Ly9ON4khdnCxPB2za+zjOLWsHAAAAAAAANJ2gE+xIZzrshWX3pleqAWzB12XtFv3xRCkAAAAAAACAJhJ0gi3rTIeDsFyi7lg1gB1IgadJWHZ5+qwcAAAAAAAAQFMIOsGW5IDTKI4D1QBq4Eu4CTzNlQMAAAAAAACoO0EnqFBnOtwPy+Xp0thTEaCm3oXlsnZzpQAAAAAAAADqStAJKiDgBDSUwBMAAAAAAABQW4JOsEECTkBLfAzLwNNMKQAAAAAAAIC6EHSCDehMh924GcVxEgScgPYQeAIAAAAAAABqQ9AJXmCtg9Mb1QBaTOAJAAAAAAAA2DlBJ3gGS9QBhUqBp7NFf3ypFAAAAAAAAMC2CTrBEwg4AXz1Liw7PM2VAgAAAAAAANgWQSd4BAEngDsJPAEAAAAAAABbI+gEP9CZDgdxM4rjQDUA7vR7HOeL/vizUgAAAAAAAABVEXSCe3Smw5O4OQ8CTgCP8SV/Zwo8AQAAAAAAAJUQdIJbOtNhLyw7OB2rBsCTXYXlcnYTpQAAAAAAAAA2SdAJss502A3LgNOpagC82Kc4zhb98UwpAAAAAAAAgE0QdKJ4nelwP27O4nijGgAb9z4sA09zpQAAAAAAAABeQtCJonWmw0HcnMexpxoAlfo9fd8u+uPPSgEAAAAAAAA8h6ATRepMh72wXKbuWDUAtuZLWHZ3migFAAAAAAAA8FSCThQlL1OXOjidqgbAznwKy8DTTCkAAAAAAACAxxJ0ohid6fAsLLs4WaYOoB7ehWXgyXJ2AAAAAAAAwA8JOtF6eZm61MXpUDUAaictZzda9MfnSgEAAAAAAAA8RNCJ1rJMHUCjpOXsBov++FIpAAAAAAAAgLsIOtFKnelwEJYhJ8vUATTLn2HZ4clydgAAAAAAAMA3BJ1olc502I2bSRzHqgHQWFdxnC364wulAAAAAAAAAFYEnWiNznQ4ips3KgHQGu/DMvA0VwoAAAAAAABA0InG60yHvbBcpu5QNQBa50tYLmV3rhQAAAAAAABQNkEnGqszHe7HzSiOX1UDoPU+xjHQ3QkAAAAAAADKJehEI+UuTpM4DlQDoBipu9P5oj8eKQUAAAAAAACUR9CJRtHFCYDoU1h2d7pUCgAAAAAAACjHz0pAU+QuTummtpATQNkO4/g7HhdGSgEAAAAAAADl0NGJ2tPFCYAHfAzL7k5zpQAAAAAAAIB2E3Si1jrT4VHcXMRxoBoA3ONLHKNFf3yuFAAAAAAAANBegk7UVl6S6I1KAPBIqbvTyaI//qwUAAAAAAAA0D6CTtRO7uI0ieNQNQB4otTdKS1ld6EUAAAAAAAA0C6CTtRKZzo8i5tRHHuqAcALvIvjTHcnAAAAAAAAaA9BJ2qhMx3uh2UXp1eqAcCGXIXlUnaXSgEAAAAAAADN97MSsGud6bAXN/Mg5ATAZh3E8Xc8zoyUAgAAAAAAAJpPRyd2Kt98fqMSAFTsY1h2d7KUHQAAAAAAADSUoBM70ZkOu3FzEcehagCwJV/CMuw0UwoAAAAAAABoHkvXsXWd6fAkbi6DkBMA27UXxwdL2QEAAAAAAEAz6ejEVnWmw/O4+VUlANgxS9kBAAAAAABAwwg6sRWd6XA/bmZBFycA6sNSdgAAAAAAANAglq6jcp3psBc38yDkBEC9WMoOAAAAAAAAGkRHJyqVbx6/UQkAau59HANL2QEAAAAAAEB9CTpRibxU3SSOV6oBQENcheVSdpdKAQAAAAAAAPVj6To2rjMdHsXNLAg5AdAsB+n4FY9jA6UAAAAAAACA+hF0YqM60+FJWIacDlUDgAbai+NtPJ6dKwUAAAAAAADUi6Xr2JjOdDiKmzcqAUBLfAzLpew+KwUAAAAAAADsnqATL9aZDvfjZhIsVQdA+1yFZdjpUikAAAAAAABgtyxdx4t0psOjsFyqTsgJgDY6SMe5vDQrAAAAAAAAsEOCTjxbZzrshWXI6VA1AGixvTj+yku0AgAAAAAAADti6TqepTMdDuLmrUoAUJh3cZwt+uPPSgEAAAAAAADbJejEk3Wmw0ncnKoEAIX6FEdP2AkAAAAAAAC2S9CJR+tMh/txM4njlWoAULirOE4W/fGlUgAAAAAAAMB2CDrxKDnkNIvjUDUA4KsvYRl2mikFAAAAAAAAVO9nJeBHOtPhUdzMg5ATAKzbi+NDPE4OlAIAAAAAAACqJ+jEgzrTYS8sOzntqQYA3OltPF6eKwMAAAAAAABUS9CJe+UOFR+CkBMA/Miv8bg5UQYAAAAAAACozk/X19eqwHc60+Eobt6oBAA8ycc4Thb98WelAAAAAAAAgM0SdOI7uSPFqUoAwLN8iqMn7AQAAAAAAACbJejE/3Smw/24OQ9CTgDwUldh2dnpUikAAAAAAABgMwSd+CqHnGZxHKoGAGzEl7Ds7CTsBAAAAAAAABvwsxIg5AQAldhLx9d4nD1SCgAAAAAAAHg5QafCdabDbhByAoCqpLDT3/F4O1AKAAAAAAAAeBlL1xUsd5iYheVNWACgWq8X/fFEGQAAAAAAAOB5dHQqlJATAGzdW52dAAAAAAAA4PkEnQok5AQAOyPsBAAAAAAAAM8k6FQYIScA2LkUdpooAwAAAAAAADyNoFNBOtPhSRByAoA6OBV2AgAAAAAAgKcRdCpEXibnryDkBAB1IewEAAAAAAAATyDoVIAccnqrEgBQO8JOAAAAAAAA8EiCTi0n5AQAtSfsBAAAAAAAAI8g6NRiQk4A0BjCTgAAAAAAAPADgk4tJeQEAI0j7AQAAAAAAAAPEHRqISEnAGgsYScAAAAAAAC4h6BTywg5AUDjCTsBAAAAAADAHX66vr5WhZboTIe9uPmgEgDQCu8W/fFAGQAAAAAAAGBJR6eW6EyHR3FzoRIA0Bqps9O5MgAAAAAAAMCSjk4tkENOszj2VAMAWuf1oj+eKAMAAAAAAACl09Gp4YScAKD13sbj/UAZAAAAAAAAKJ2gU4MJOQFAMYSdAAAAAAAAKJ6l6xqqMx3ux808CDkBQEksYwcAAAAAAECxdHRqoBxymgUhJwAozXnu6AgAAAAAAADFEXRqmLWQ06FqAEBxUsh5JuwEAAAAAABAiQSdmuciCDkBQMmEnQAAAAAAACiSoFODdKbDSdwcqwQAFC+FnSa50yMAAAAAAAAUQdCpIXLI6VQlAIAsdXicCTsBAAAAAABQCkGnBuhMh4Mg5AQAfC+FnS6UAQAAAAAAgBIIOtVcDjm9VQkA4B7HufMjAAAAAAAAtNpP19fXqlBTnenwKG7+VgkA4BF+X/THI2UAAAAAAACgrQSdaiqHnGZx7KkGAPBIrxf98UQZAAAAAAAAaCNBpxrqTIf7YRlyOlQNAOCJfln0xzNlAAAAAAAAoG1+VoJamgUhJwDgeS5yZ0gAAAAAAABoFUGnmulMh5Mg5AQAPF9a9vYid4gEAAAAAACA1hB0qpHOdDiKm1OVAABe6CAsO0QCAAAAAABAawg61URnOhzEzRuVAAA25DB3igQAAAAAAIBW+On6+loVdqwzHR6FZdeFPdUAADbst0V/fK4MAAAAAAAANJ2g0451psP9uJkHIScAoDr/WfTHF8oAAAAAAABAk1m6bodyyGkWhJwAgGpNcgdJAAAAAAAAaCxBp91Ky8gcKgMAULEUqr7IIWsAAAAAAABoJEGnHelMh2dxc6oSAMCWHMRh+ToAAAAAAAAaS9BpBzrTYS9u/lAJAGDLjuN5yLkyAAAAAAAA0EQ/XV9fq8IWdabDbtxchuUSMgAAu/B60R9PlAEAAAAAAIAm0dFp+9KSMUJOAMAunXemwyNlAAAAAAAAoEkEnbaoMx1O4uZQJQCAHUuh60k8N9lXCgAAAAAAAJpC0GlLOtPhIG5OVQIAqIkUvp4oAwAAAAAAAE0h6LQFeWmYc5UAAGrmVTxPOVMGAAAAAAAAmuCn6+trVahQXhLmMo4D1QAAauqXRX88UwYAAAAAAADqTEen6k2CkBMAUG8XOZwNAAAAAAAAtSXoVKG8FMwrlQAAam4vjgtlAAAAAAAAoM4EnSrSmQ6P4uYPlQAAGuI4nr+MlAEAAAAAAIC6+un6+loVNiwv/XIZLFkHADTPL4v+eKYMAAAAAAAA1I2OTtWYBCEnAKCZLnJoGwAAAAAAAGpF0GnDOtPhWdy8UgkAoKH2wjK0DQAAAAAAALVi6boN6kyHR3EzC8sbhAAATfbboj8+VwYAAAAAAADqQtBpQ/ISL7M4DlUDAGiJfy/640tlAAAAAAAAoA4sXbc5oyDkBAC0yySHuQEAAAAAAGDnBJ02oDMdnsTNryoBALRMCnGPlAEAAAAAAIA6sHTdC+UuB/M49lQDAGip/yz64wtlAAAAAAAAYJd0dHq5SRByAgBafr5jCTsAAAAAAAB2TdDpBTrT4VncvFIJAKDlUqh7ogwAAAAAAADskqXrnqkzHXbj5jLo5gQAlOO3RX98rgwAAAAAAADsgo5OzzcJQk4AQFlGOewNAAAAAAAAWyfo9Ax5ybpjlQAACmMJOwAAAAAAAHbG0nVP1JkOj+Lmb5UAAApmCTsAAAAAAAC2Tkenp5soAQBQOEvYAQAAAAAAsHWCTk/QmQ5HcXOoEgBA4SxhBwAAAAAAwNZZuu6RcteC/6oEAMD/WMIOAAAAAACArdHR6fEmSgAA8A1L2AEAAAAAALA1gk6P0JkOz+LmWCUAAL5hCTsAAAAAAAC2xtJ1P5C7FFyG5Y08AAC+93rRH0+UAQAAAID75Htu3Qf+J58X/fGlSgEADxF0+vFJ1yzo5gQA8JAvcXQX/fFnpQAAAACgMx324iaNo7AMNx0+4f+erjVdro3Zoj+eqyoAkAg6PXwSdhI3f6kEAMAPvV/0xyfKAAAAAFCeznS4Hzcnebyq4D9xFcdFHBNdnwCgbIJOD5+QzYMl6wAAHuuXRX88UwYAAACAMuTOTWehmnDTfVLo6TwsQ086jANAYQSd7j8xm8TNqUoAADxaush05AITAAAAQLt1psNB3IziONjhr5GWuEtdnkaWtgOAcgg63X1y1oubDyoBAPBkvy/645EyAAAAALRPvoc2CbsNON3l9zjOPYAHAO0n6HT3Sdq8hidoAABN8e9Ff3ypDAAAAADt0JkOu2EZcDqu8a+ZOjydLfrjiXcMANrrZyX47kRtFIScAABe4lwJAAAAANqhMx2exU16qO245r/qXhxv4+87i2PfOwcA7aSj07cnat18oranGgAAL/La03MAAAAAzZXDQpM4XjXw10/dnU4W/fHMOwkA7aKj07dS9wEhJwCADZxXeXIOAAAAoJk60+FR3MxCM0NOSbrf9yF3owIAWkTQ6eaErdfgkzUAgLpJF5NGygAAAADQLGshp8MWvJw/4uuZeFcBoD0EnW44yQEA2Kxf84UxAAAAABqgMx2ehGXIqU0roJwKOwFAewg6LU/aRnFzoBIAABt3rgQAAAAA9ZdXP/krtCvktCLsBAAt8dP19XXpJ23duLls6UkbAEAdvF70xxNlAAAAAKinteXq2n6/7N2iPx54xwGguXR0CmEUhJwAACo93+pMh/vKAAAAAFA/uSnALJRxv+w0r/QCADRU0R2dcgvOD3YDAIDK/b7oj0fKAAAAAFAf+eG0WRyHhb30/yz64wt7QKv25W7cpJH26aP81+s/h7W/+9H+/imOz3f8/eXa33/Of07mcX+aexcAtqP0oFM6cTu2GwAAVO5LHEcm/AAAAAD10ZkOJ3FzWuBLd62quftsLywDTWmsfj6o0X61Cj/Nwk0YShAKYIOKDTrFg+Agbt7aBQAAtuZdnNAPlAEAAABg9zrT4Unc/FVwCT4t+uMje0Kt99FuWIaZ0kjvVdM7j32MYx6W4afLuP/NvMsAT1dk0Cm34UwHkAO7AADAVv1iAg8AAACwW/le2TyOvcJL8fuiPx7ZI2q1X/biOMnbEu7lpmXy0n3rWViGny7tCQAPKzXolE5Y3nj7AQC27mOcrPeUAQAAAGB3Cl6y7jZL2O1+X0zhppM8XqnI131ythqCTwDfKy7oJKEOALBz/4kT9AtlAAAAANi+znTYi5sPKvE/7xb98UAZtr4fppoLN/1YCj6la6mztI376mclAUpXYtBpEiTUAQB26SpOyLvKAAAAALB9nelwFjfHKvGNXxb98UwZKt/3unFzFscgaErxXGmpu0kaQk9AqYoKOuWD53+97QAAO/dbnIifKwMAAADA9ujmdK+Pi/64pwyV7XdHYRlw0oxic1Knp56l7YAS/VzY6x15ywEA6nFelpcUBgAAAGB7Rkpwp+PcMIENSsG63EHs7yDktGmpI9aFMgAlKibolBPqDqAAAPWZiJ8pAwAAAMB25CCPJevuN1KCze1rcUzCsnuYfa46B/keOEBR/uHkBKjQVRzzO/4+tdG8b93g2SP/3Z+rbMeZ26g+ttNI74n/LP17D+0eAOEsft+eW0seAAAAYCs8dPawk9SB3LWq58sd3NN+9kY1AKhKEUGnnGSVFoan+7j2czqxXw8WzcO3IabPbVoH+ImvZbaB76lu3HTX/ipNBo4e+HP63x7YRYGGS12dRsFFNuDbudtLz+NmKgkAAHCnEyV40F6u0UQpnj2nT7Vz7wKASv10fX1dwoF1FgSd4Eu4CSp9vu/nNoWVCpxArKz/vN6ZyvcgUFf/isefuTJAK89RumEZ0F6N2+cq2zg/WT8PDuHb7qKzvJ37HgIAAFo+P0tzsQ8q8UPv4/xQIOxp+1a6BzGJ45Vq7MQvHvoCStP6jk7x4JpORtzcp83Wb9ysbtrMw023pUttVtvv1kns7BGTjlV3qG74/qZj+rMnLoBtGsUxUAZo7JxrdW6xClj3anY+sXdrTrj+85u117F+br16GGB1Xu2cGgAAaDrhnccR1nnaNYF0DWAS3FMAYIta39EpHmDnDq403Gr5uFne/i/M5KlztjRJSVY3Lrt5pJ8PVQjYIF2doBnnBqtQUy/chJtKmW+tQlCrANTXnwWgAACAhszn0hzGNd3H+U+c610oww/3qbO4+UMldk5HJ6A4re7oFA+wgyDkRP19Csvg0uok5OvWSQl1sLYfzu75nl3d7FzvEtULglDA042Crk5QxzlVNx/bV6Pk+dWqM9TxrRpdhZsAVDpnEn4CAADqNrdzvfZp0rVuQaeH96fzOE5VA4BdaHVHJ92cqJHUlcnyF5Q64VkPQnXzSD/vqRBwi65OUI9jd1rOoBcEm17iU7gJPs18twEAADue66V53l8q8Wgf4zyupwx37kv7ea4rOFcfOjoBxWltRyfdnNiB9CT3PJ/g/S/U5KYGJcthvtUJ9sUd39WrEFQv3IShhKCgXKOgqxPsYu7UDctwU/r8uVC5GYd5nOYaX+Vzoq/DHAEAANiyIyV4kmMl+F6+np+u87v/CsBOtbajk25OVGg90JS2c0lpqOR7vBe+7QCVtm6+Qvvp6gTbOc6mY+sgLANO5k27mVOkOUS6QDzT6RUAAKh4DpjmHq9U4klco/p2HzrK81gPKdePjk5AcVrZ0Uk3JzbkS1h2ZVoNgSbYovs+b7e6QHXz8IQNtMco6OoEVc2T0jFT56Z6SPPV03DT8el9yMEnF9IBAIAK7CvBk6U5tPlZEHICoH5a2dFJNyee4VM+Yb3MJ2uXnqqGxn33p4nn0dpIf3YTF5rJE3Ow2WPkICwDTp7ebc7cZBKEngAAgM3NC9P9DiGVp/lPnJNd2HeEnBpARyegOK3r6KSbE4+Qbhz8r1OTgz+0Q74RmMbFreNCL9wsf7caJmVQb6OgqxO8dF7UzZ+jM8e9xklB7T/SiO+j0BMAALAJ5oVPl64jFx10ytcWZvYfAOqmjUvXjbytrLkK33ZpmikJlOWuz/0d3Z/SEJKF+jiNn9ORm/rwdDngOwh5STQa767Q00T3WQAAAKoU56BpucMU9BJyAqB2WhV0igfdtByDG9Xl+hLWQk1p6wYAcJe7uj/liVsKPPWC8BPUwSjo6gRPmQv18ufmWDVaaz309D4sA08XygIAAEAFLvI8FABqp20dnc68pUVJ3Zpm4SbUdKkkwHPlYOQsj69uhZ96wbJ3sE26OsEj5KW7R0E4tzSv0ojvf5oTTcIy9OT7EgAAgBeLc83z4EEqAGqsNUGn/ASzg267paUaZuFmGbq5kgBVuif81A3fdn5y7IHqnAVBdnho/pMuPHq6smwp4PYmjdzl6dxy3QAAADxXfqDqV5UAoM7a1NFp5O1snfVgk2XogFq4Z9m7Xvg2/KSrBmzGIHd1cg4A3x5z0txH0Jbb1rs8pX3kwvcnAAAAj5Uf8j1XCQDqrhVBp3jg1VGjHQSbgEbKnRNmq0ngra5Paei2Ac+TlopMHZ1GSkHp8rElfRZOVYMfSIHrt+m8JC83cG5uBQAAwCOkh3v3lAGAumtLRydLmjRTetJ4Fm6CTXMlAdrgdtenznS4H74NPgnnwhPO89KNejfpKVnqbJbnPC428hRpf1kta/cubkfmXAAArZkjpPnBSctfZjp3TdcDLr3jG/HFnPLJitr38rUHD+wC0Ag/XV9fN/3A242b/3orG+NjWN74n5mgACXLSw+thuATPOx1PG+YKAOFHivSvm9JVDZF4AkAoPnzhHRdvaQwwi+5mzov229SDV2DtO/dt390g3ut9lWABmlDR6eRt7HWVl2bVuEm3RgAwjfL3a0mk70g+AQPne9NlIFS5E6Aab//VTXYsLT04akOTwAAjZ0rpE5OpXVcSdcDut79F3Nv5ukuC/ucAUBjNLqjU74BMA/abdbNp3xSpGsTwPOPcb2wDD2lNuRaBoOuTpT1/Z/2dV2c2AaBJwCAZs0XZqHMB+R0K3n5vjMKy6WteZwvcZ/bL2TfGMTNW2+570iAJml6R6f09IKQUz2kcNN5HBe6NgG83FrHp1EO9vbCTfDJzW9KNAieLqPFdHFiR9Y7PJ2ZywEAQGvNgqDTUxTxEP/atQgAaJSmB50G3sKdSxfEz3VuAqhOvul4kcdZXjO9F5ahp7QV+qUEx3HfP3LOQRulfTssg3w6+LErKfB0EvfF8zy/E3gCAIB2cT3laWaFvM7UUMJDtQA0zs9N/cVzK0UH391JAad/LfrjgRuOANuVlpdJS3jFcZJbKP8Sx59h2V0P2uxMCWibPK+ZBSEndi8Fp9MT3pd5vwQAAFoiP8zg2uHjzdr+AnM3J9faAGikJnd0Gnj7diKdCJ9Z6xWgPtaWuQu6PdFyaXmlUQr7KQVNly8opu45p6pBzaQHit7GffTM3A8AAFolndt7yOYRCpkHpTmfa8cANFIjg06d6bAXN8fevq37M57cSXcD1HsSPg/L5Y8ma8fMkzx0QqQNBnGMlIEmy6HUtBypC8zUWdo/P8T9NXXzPbOcHQAANN4kjl+V4Yfet/0F6uYEQNM1dem6gbduq77E8YuQE0DzpKeP0vd3HN34x3/F8VvQpppmcz5Co3Wmw6O4SUs/CznRFKnr2Dx3eAIAABpq0R+nueiVSvzQRQGvUTcnABqtcUGnnDK2vMP2pJvhPcsVADRf6vYUx3kc6Sb7P+N4HQp4QonW2YvngwNloInyvpvOq11MpHHfvXH8EffhyxzWAwAAmulCCR70ZdEfTwp4nR5kAaDRmrh0nYPv9qxCTpYoAGiZ/N0+CTdL3K2Wt0vDDXiacD44UQaaJIec3qoEDZc6kf0d9+c/43ZkrggAAI1zHixf95DWB8Hy9QnXfwFotCYuXTfwtm2FkBNAQeL3/UUcgzhS58T/xPEuLJcuhTo61FGEJon76yQIOdEu6cZI6u7UUwoAAGiO1PE96PD+kFEBr1FDCQAar1FBp9xt4sDbVrm0RrOQE0ChhJ5oCBdlaMocZhIsvU07pbn5h7iPn+cl5gEAgGY4V4I7vctBsNbKDw4eeqsBaLqmdXRyQ6t66Ub2iZATAInQEzV24sY6dSfkRCF0dwIAgAZZ9MezuPmoEt8ZFfAaB95mANqgMUGnznTYjZtjb1n1JznxJPdSGQC4TeiJmtkLLs5Q7/nLJAg5UQ7dnQAAoFk0FvhW67s5ZQNvNQBt0KSOTk66qvdnuomtDAD8yB2hp/eqgvNDWBJyomCpu9MsL4cAAADUVH7g/U+V+Co9yNn6a0xxnnYSlg8OAkDjNSnoNPB2VeoqlNGWE4ANy6GnNFH+Zxyvg9bXbM+BpZKom9TRJgg5UbbDOP6OnwVhVAAAqLdR0K39ax0W/fHnAl7nibcagLZoRNCpMx0OgpRx1QaFnMgBUJF0HIljEkcv/vFfcfwWlkFaqPQcRgmo2bzlV5WAr/6In4mZpewAAKCe8j2hQeFl+BjrcF7IaxV0AqA1mtLRycG3+hO5mTIAsClpTft0kSCObvzjv8OyFbYnxKjkPNFNdOogh5zeqgR84ziOue57AABQT6lTeyh3Cbt0rXJQwgvNczINJQBojdoHneLBtxs3r7xVlRopAQBVWfTHl3GcxZHCKGlpu/eqwgalizRC8ex6znIUN+cqAfd+T3+InxPzTgAAqKF03S5uPhX40tNKJ/NCXqtrZwC0ShM6Og28TZXSzQmArclL26WJtaXt2KQzJWBXckexdD7tyUh42Jv4ebnQhQ8AAGqpF8rqxv5b7mZVCkEnAFpF0ImREgCwbbeWtvsljneqwgsc5o46sAuzIOQEj5W6NV/6zgYAgHpZ9MefQzlhp3fpumQp721eOefAXg5Am9Q66JTXjHXwrc6Vbk4A7Fo6FsUxiD/+M+jyxPMNlIAdzFcmcXOoEvAkaY4/i58f39sAAFAji/74MrQ/7PQuX4csSc/eDUDb1L2j08BbVKkLJQCgLtKTY7o84byRpsghjVOVgGdJXdDexs+R5RMAAKBGWh52KjHkFIKgEwAtVNugU2c63A/WjK3aRAkAqCNdnniGPTfM2eJcpRs35yoBL+ZzBAAANdPSsFOpIacQBJ0AaKF/1Ph3Szeq9rxFlbnKJ6sAUFupy1NY3gQ9zyGWsziOVYYHzh91rGQbLsxVYCMOUnAwHu/nSgEAAPWR7h/Fc/WjPP9t+pLtr+PrmZT4PuamEgf26CdLIb90D3WW/zx75P+vm0eSPj/7eesaEsCG1T3oRHVmSgBAkyz643Rh5SJ3UkmBp4FJIrecxv3jLAfkoBJxHxuF5l/khTrxnQ0AADWUHkiIc+BeWD6E2MSl21NY5SR1ji/4bTyyJz/a+7AM9s2qeBgnf5a6+T1Jw8O8AC9Qy6BTvoH5yttTqZkSANBEeaJ5lsMGg7AMPXkyiZUUlp8oAxXNU9KFqDcqARtzJZwKAAD1lc/XB3E+nAIgk9Cchw5TaGVgvmHZuh/NSeMYxXFR9b5yV+AuX2fqrQ0P9QI8Ul07OunmVL25EgDQZJa144HzyIkyUBH7FmzWmRIAAED9pU7ruUlBmhfXuVFBCq6c5c7w6Oh0ny95P5ns+HOVlsdLI13jXgWfTvI4fMJrufSWAqX5uaa/18BbU/nBc6YKALTouJaeuunFH/8dxzsVKdqrfOENNsqSdbBx79x8AACA5kgPHcaRAhi/xPGxZr9eCnv8HseRecY3BJ3umIvG0d11yOmez9hlHKM40vv2zzheh2V3si8P/N/OdC4DSlS7jk75xpQbCNWf8AFA6+SnYAa3lrXT8rc86aLbuTKw4TmKzjOwOVc+UwAA0Ez5QfpenCsPwvL62y47rKf7XV87vgt73OlACb7xuo4Bp3s+Z2l/nuQR8ooGq5Gud3+KYyTYB5SqjkvXWbaueloYAtBqcYI3TxO9OAFMFzrSjdSBiX1R0vst6MQmpf1JaBI2OO93EwIAAJotB0YmnemwF5bXYk63+J9PIY+v/31zi7vl94WlL3keOmvw5y0FmoSaALI6Bp0G3hYAYEMTwHShYxSWoadB/lngqf0OUweeHHiDF8kXBl+pBGzM77kDIwAA0AI5PDKL8+f0sOGq40yaS2/6gaEUbkr/rYk5xaPsK8H/DJoccgLge7UKOsWToLTmqGXrAICNW3vKbBB231ab6lm+jk0ZKQFszMd4PPaZAgCAFrpjqa1e3Bzl0Q1PuxaXlrueh2WwKYWaZjo3PdmREnz1m+XdANqnbh2dBt4SAKBKt9pqj4LAU1ul80pBJ14kByN9R8BmfDHnBwCAcqw6Pd0x1+498H+b69C9MV0lCO/j/uT6IEAL1S3odOItAQC2IV9s6Qk8tZbl69iEkRLAxpz5TgYAACwhtjXdwl9/etjmzG4A0E4/1+UXycvWHXhLAIBtShdX4ujFH3+J46OKtIoQPS+ZnwzMT2Bj3ueOigAAAGxHt/DXf+5hG4D2+rlGv0vP2+HkBgB2ReCplQZKwAuMlAA24sr3MQAAwNaV/PBW6uZkyTqAFqtT0Gng7XByAwC7JvDUKl+Xr1MGnko3J9jsXD8eVz8rAwAAwHZ0psP9wktwbh4K0G7/qMkBtxs3h96Ordb8KB7kL1UCAO6WAk9x04vHzF5YdnY5VpVGSsvXeYKLpzpTgq1LXX/m+ef52s+P0Vv7Oc0thdTq4/d8PAUAAGB7jgp//RO7AEC7/aMmv8eJt2InJzmCTgDwA7cCT2mS7AZ6swg68ST5s+4hjOp8zPOQ+Wobv2fnFb6XSdru5zlQGnvehq34FN/bkTIAAACwRe+rus4AQH3UJeg08FZs3ZESAMDj5cBTNy9pNQoCT01xnNp1a1fNE+jmtDlf4pjlcbntzj5r/71v/ru5hf/RrSHctvn33gNNAAAAbNuFEgC0386DTvkis4vK29dTAgB4ukV/PImbSTyHSWGIUdAZpAnSzfaJMvCIuUk3bl6pxIukgEu6qHgRvy9reXExBx9nYS0AtRZ+6uVhudKXGXmCFgAAYGd6Bb/2mbcfoP3q0NHJU567cZhu5Lj4DADPE4+h5/FYOgnL7i9pCDzVl6ATjzVQgmd7F2ocbnrEd/pd4af03dHLw8M5j5eWCbBkKAAAANt25b4nQBkEncqWau8CNAA8U74xPsqBp1Ecp6pSSz0l4JEGSvAkX/J84ryNy0Pm0NbX4Fbu9rUKPun69fA+4XMEAADALsyUAKAMP9fgd+h5G3ZmoAQA8HLpSaE40nH133F8VJHa2cudWeBeeR85UIlHSWGW3+NIHWJHbQw53fM9nwJdaT/5Zxyv43hvV/jOSQn7AwAAALV0qQQAZdhpR6d8M8EyL7uTlq87WvTHDvxU+Tnfj5ujO/5R757/SzePHznewq//KY7H3KiZ3fP38zzWffaZg/bKn+9ePsdJXU6EJuojHXculIEHCMM9Tgo4nZccZsmvfZJGPtcd5FH68nZ/xtrMfEQAAAB2rlvo63bvBaAQu166ruct2LmzoLMTP9CZDnu3TpC7D3yOU6ipLQHGx96sOn5iPW//1VX4NhA1v/XndHK+upkoKAUNsFruKH7eR/lYK9i9eyf5vYCH9hHul7rVDVJnI6X45vs+naN9Xb4vL2+3ml+V9r3/KdbCdywAAEA9dAt93e6dABTip+vr6539xzvT4TzodFAH/3LDoiz5JszqRDcFk/bzz721/9mxSjXCx1sn8atA1CxvBaNg99+56Ts23QQ/VQ3nPNT2c5pCTn+pxJ3SMnVpebpzpXjSPjUIy8DTcSH7SM85JwDAVs4zZ6HM67a/6B4Kvit+JH5P/OTdByjDzjo65aCFkFM9jIKuTm06ge3lH1cBpm64CTUJL7XP8T0/v1nbJ1Y/rneOWl0YmOchEAXVTbBTAHEQP4uTsAw8HarKzqyWFIS79g2+l5bxHThHeNZ3f/rOn+R5b5pvtTnsOrKPAAAAsGMflQCgHLtcus7NhPo47UyH5y5O11/uCrIKMN3eunHOjxyEm4Dp8R371+0JwapD1Hw1dEKB58tPHh7Fz1pa2mcULGe3C70g6IS5yWOl84GTHNbk+d/96dxpkL/7V6NN3/8fdfsCAAAAALZpl0GnnvLXyiQsAzPs2NqycqsAUy8IMrFdx7e26/tn2qw6Q90el26Gwo+lG8K5ffTEd/vWvVIC7ji2pXMuwcNvvYvfVQNl2Oh3fzpHGqWRl7VLPze9w3Fask5IEAAAgDpwbwKgILsMOrnRVC+HnekwLTkwUorqrXVmEmaiiVadoe4LQq06Qs3y5CJ1htINCtakLop5qdHUBeNURbZ6DE4dai5UgjWCGt8Scqr+GDAJy2XtUp1HobmBp4GQOwAAADVh1RqAguwk6JRv7FE/b+J7c2EJu43u692w7M7Uy9s0jlWGlruzI9RaCOp/4aewDEDNlIwS5ZvDaTmjtP1VRbYmHZMFnbi9T7Ak5LTd48AkNDfw9KfQKAAAAACwC7vq6NRT+tq6SMt3eDL3aW51aOrmrUATfG/1uXi19vlJm9VyeJdrW0vhUYS4n5/Fz0Ha59+qhvNQdnpsKt0nIaedHQcmoVmBp0/59wQAAAAA2LpdBZ0sD1Ff6aL6LHXdEjC4W+7SdHRrHKgMvPi757vl8OLn7UtYhp5mQQcoWizd5M7HlzeqUbm0XO++8xzycaanCl+l461a1ONYkLokneWxV9Nf1ZJ1AAAAAMDObD3olDvfHCp9raX35zyOQemFuBVq6uXtnl0EtiZ93o7DWgAqd4BKnQTmYS0EteiP58pFk8V9eJSPO6eqUbkUup8oA0G453+fCcGV2hwL0vuQjgdpPjYK9Vva9DdLnQMAAAAAu7SLjk49ZW+E0xQmKGn5irXl53prW6EmqKfDPNISeG/yZ3i9+9Nq6bu5UtEk6biblpANQuHbOB+dKAPmJl/9qVtiLY8HKfB0lgNP6fuqDkssfoy/17l3BwAAAADYJUEnHnKab7a2chm7/NrWg01uKkOz3df96WNYC0AJP9EA6bg0D8K2zkfZhqPCX38KCY/sBvWVz1t6eZnFSdjdktlpXxl4RwAAAACAXRN04kdS+GfWmQ4HTV+iIN8cWAWb0nADGcqwCj/9mr8Lbnd+mlmuhzpJ+2M67sYf/1KNyhykZQIFH8uWl4os/Xxw5BjYmGNDOm/pxv12FLdnO9h3B74zafD3fboOsOrgnLbdPEL+83Mfevq49nOaV3zO4+vPlnmE2p33dde+C8Kt74LVtYOX+JS/A8Lad0Eyz8P3AgAAwIb8dH19vc1JZZpM/p+yN9LXp72btFRBDjatxrG3EHjAVfi269NMSajBcewiLJdnpBqv42d9ogxFf8bSOeKHks/v42dg357QyH23G7a7nN27kpY0p/GfjfXOzenPBzv+tdI8Y57nGWk7N9eASr8Duvnzvwo01eF74L7vhfn694NAMU/Y12ehzGvdvziGgu+KH/g9fk+MvPsAZdh2R6eekjdWemL4j3hydBJq+jTvapm9OE6CYBPwNAd5vMrfJ2mTntBOE0Jdn9iVsyDoVPV56UQZit8HSnZuF2imteXsTvL3WJXdna7y8Qhq59bDTUehnl36VvOM28trf7o115h7R+FJn//u2mf/qMbfAY/5Xniz9t3wMX8vfB06QAEAANxN0ImnSpPwyzj5TjdGznd543/tosZJsBQdUM333foNiXQzYtX1yc0IKpf2sbjf/R7yhW+cl7Jx3cJf/8Qu0PjjxEWeE41CXqK3AifC3tRFyx5uOgxrS+bF13a1mmeYa8Cdn/9euAk2pW1brwHevg6ROuyvX4eY2RsAAAC2v3RdmpgdKntrpMn2VgNP+anlXlhe2DzwFgA75GYE2zjupSUX0r4lzFuNf/nsFv35St/fpXYBfR/3/RN7Qav25zRHmmx4jlRM2/+15Y7a6HOTO4LkcNOgwGsAaa6RljG+EGyg0OOaru33W3WfvtDxqXZz96Mt/efS9fgS77H8FpbBv1Jc7uqBgy3vz6XVthe29+DdIJR3D83SdUDJ86f9O44xvTx3WPf1z2241rC1oFM+Ofo/u1prvcsT7IsN7zfdcHNhw/I9QJ0JPlHVOdQkbk5VohL/2fS5C436bKULm6WGCF/HfX9iL2jdPp3m3KOwme5On+I+clRAzdJrTMeBtt8A+PqQUlMu+ufrAGfBA07r798q9OS8hTYfw3r5c38SPOjx1O+HWf6O0IVxN8esdF4tkEcV3scx2OJD5um7OAXpSrgGle5nnW2xtqXMOyjPp3wOMlKKYs59Rvl8vYTQdbrnN6nb/r02d1qNwxd+hi+bOp/YZtApFfqDr4CiJthPvtG/9rRAr6AvSqC9J0Gz1XeiC4684ByqGzf/VYlK/Bk/m2fKUOxn67rgl6+bWbv37TSXmoTnX0RPc7qjtu8j+fiaLuaUdDO9tk8452sB6RrAmesAP/x8pvnFuU4utOB7ePW593Dj5rwPN8FI1yC2sw9fBsEFqrW1BxAKXJHlY6xtb0vfFfMgxEu7vYufp4EytP7cZxLKfCB7K8eLmsydUvApvc+TJswnthl0GsXNG18DxVmtJT/P4y6rcFPXxBBosXSCMAuWn+B551GW/63oc1lCxxLu/EylyWmpD2Fcxf2+ay9o/T6e5liT8LyLH0V0/Cr0At2X+N7u1+x9SN9HKdw0CG7+PPn7PCy7LkwEGmjY92/6vAs3VU/oqfp9OR2//lAJtqDy8/P83fy2wNpW3unbdwUF+cV9j9afw78tuAQ7uVaWr5mMwm6uX6Xuh5M6f67/scX/Vs/XQJHShcrjoH0vwGEev8aTk/TndNExnSBc6KrBI6STaBdFqvlcQml0AClAvqF5Es85TvIx5LEBkvcFLWvYLXF+noKedbhIlZfvSDd9LM/7fAf5/PCPWM/aX4CkbGufecvSbc+rPN76jqhMTwlo0Xlrt9DarpaUq9K+XZhCDMLyfgftdOK87+v1tW3On9KDTY/NVzym8czqeN/Nx78fzcvS9ZrT+Lt8jNtRHecS2ww6CboAwI3VRcd0Y+Iq3Cxxd6E03CHtF4JO1Uwaei74F6lb8GsXdCpIOq/IF0cmj5iTp/ORgapR9XE3LJ9GdI1os1YXIFMX2fOCAovU+/O+n48rKeCkg3s9viOuws1SFHNleTHhBQBYO99IHcx0kmzteX3p3Vj3t1jr8/Djh8LSef0sLO8bXT7n3D53i0rXDHthGWS7b86Wrt98iP/71LzhrE7ziH9s6U2xJAgA3C+dQPwadHviHmk/yDeudCDavF7wtFGJugW/dseVAo8h6bvuEcvJD1yQpCr5Alq6WGepqmqlc8W3+fNuWTt29XnXvam+DvK5wBtdngCACqy6StO+97V0lZ8z56VORw/Mob6Em4cWXvwga75emEYKS53ledwg3B96Stdz0vXF9HDVqA5vyrY6OvXs/wDwaOvdnj7lk6iNnLzQ+JNpQSfnqfBScyUoU7oIEc8r0rEkXcC4fdHktRudVOEJTyOyWatl7dLnPtX/XOCJLXze03n1KOjY1hTrS1FMdIIDADYgBTWcU7SPoFOFy5zm6yYXD8yjUvemUdXn6/n+Y/oMp9DTIM/tbgee0vXE9NBE2idOdt2o4ect/Xd0dAKA50nBltTt6e948pC6+kzySQTlEXRzngrwIjnM1I3jdRy/x/FbHP9yc5Mq5K5C8yDktEtfL0Km9yG/H1DFZ32Q5qrxxw9ByKmJ0nv2Nl9vGCgHAPACh1Z5at25vmXrQnhfVaAnf17m98yjUsApPZjY3fZ1u/TfS//dsLx+eHXXZz2Oy13fq9xWRydfagDwcik9vXrqMrWpvMhj5gntIsyVoBJ7aTkdy0QWp6cElCqfM0xUgqrkri6TcHerc3Z0vhOWT10OwhaeBKWYz/rX/clnvTXS+/h21QUu6AQHADxPOkc8U4ZWvZ+lq2T+nOdTb+/5x7/X4Xw8XzuY5Aen0ud6vUN8+vmv+M9e7+oaQ+UdnXLSzzIrALBZ6SQihZ7+iuP/4vH2Ij9Ju6807WRJoUoJ5QPAC6Xz0HyDPHV1EXyop1WQ4TIH0uA5n/VVB6e3PuuttN4Jzk1KAOCpBkrg/WyRL4v+eOPL1uXg0F0hp09x/Dv+N0d1eugg/T5heQ/l0x3/OF1jmOzi99rG0nVuHAFA9V7lEyOhJ3i6nhIAwPPlduXzsFxymfpLDyR+yPOGrnLw2M+5gFNRUuDpD0vaAQBPPYfY9XJWbOz8vxs0s5lUUNf073xzxz96F0dv0R9f1rEQaUWMOFLu5887/vHpLsJO2wg69XwVAMBWfRd6UpLW+KQElRDMB4BnWOvilLqM7qlII+cNl/lpUrjvc96LY5Y/5wJO5Vl1gpvrBAcAPNJACVpBYG25pPMm51Zp7n16xz9Ky78NmrB0dPwdU9fX13f8o62HnXR0AoB2+xp6iicYn9NJhqcpGu+zElTiWAkA4GnieWW63pOeNNTFqdm+LlOVl7NzDY/1z3g3X6j+4HyZsAw8pU5wM53gAIAfeOV8oRVKX8b4Y+pitMH51SDc3ckphZwmTSpM/n1T2OnLrX90us3GC4JOAFCGdAMjJcX/yqGnczcy4JuJhs8DpbCvA5s4bqYLnn8H3V3aJC1J8LfuTuTPeNoPLsPdTxtTthR6+2/aR1JXP+UAAO7hgetmzweOzPc3t2xd7oz69o5/1LiQ00r+vXt3/KO32+oE+3PFH4J9HwIAqJ0UekpP3v+d28+PPGEBwh8Uww0p4NnyUnWT+OMfqtFaujuV/RlPy9TNw/JJY8tR8uB3RVgufekmJgBwlzMlaLRB4a8/dSq62NAca/+ef1djQ04r8fdPD8fctYzdxTbuOVbd0clFEQCotxRIThco/5tb0A88lUmhukpAIczRgGfJF6lmQYeXEqy6O7k5Uc7ne39tmToPrfJYaV9JXaMvXEcAAG6fJ2yrqwuVKD3MfrHojz9v6t8Vvn+I5Lemh5xW8uv47dZfp9db+ev7R8X/fhfRAaA5jvNIy9qlk69JPEmZKUvt3iOqYeJNKbpKADxVvkB918U52u2P3K3lZIMXeanf5zu9xxOfb17gVRypW/QgfldcKAcAkA3C8mEZmjU/sGxdCOcbqmV6eOj2PZ338Zz5/An/jlEFry91Yprnjkwvll5P3m/WH4w7Tq//Ka/1qQSdAIDb9vIJyWk8EbnKJ3UTNzdoOeetlOIwPXHvOx14rHTjOm7eqkSx0kXZFGA48RBE6z7bqQPPJCxDKvBS6TpC6u70Pm4HzjUBgOjENahGKr2z79UmAkC5K/bo9r87PH1ZwDcVzglXS/RdbOCBhbTf9MK3IblRaqoQ/93zKn7/qpeu6/ouAIBGSyclf8Txf2kpA+1mdycn4qnOnuUWKIjvcuCx5x8p8C7kRAowfLCUXas+2+lcIF28F3Ji01bdnU6UAgDMI4Il0Jqo9PfsfIP/nttdc+v2QMCq6UF6YOFF5/D5dQ3u+PdX1tGp6qCT5VUAoD3SCc+HfMJzJhSydV0lqJwwGaXoKQHwIynkHje/qgRr/sgPP5gHNPuznS40fwiWo6A6q+5O574vAKB4HpZo1lzhJFjSerKBOvbC9w+V/FnzLskH+Rz+4rnn8Pn1vbv116+qaqDwc4UfBDeKAKCddHnaDXVWYzbnsvDX72k64F7pglYOOZ2qBndI+8VMeKGRn+1uHOkcSICRbfk1f1+4TwAA5TrMS3jRDKVfM3y3oY5Lo1t//nLH39XVqxfO+c/y632oHhtRZUcnX1oA0H6rLk+XcQyUo1I9Jaic89dyfC789R8IqQJ3yReyZkHIiYcdhuXSVMILzflspxsWl/m9g21/X8xcLwCAounq1BylB50uNjD36oXvVz07r9mSdY86h3/O/zG/ztvL1R1Xcf2gyqCTix0AUI504vM2nqx8jmPkKY3Nyjcd3ZSonv2WkoyUALjjfGPmnINHSssZzHKAhnp/ttNF5r+CJSjY7ffF29wtEAAojzlDM+YNg8LnDFeL/vhiA/+ewa0/p+5G5w2sR+rGNnrm//c8fN/VaeOBR0EnAGCT0onwmzj+a1k7k8EGOlYCStrfdeIAVoSceMG5/186tdT3cx3H/7N3d8lNHGsDgPujcg/nmgsrK8BZAcoCUnZWgLinCmcFKCvAVOWeYQUxxQIiryBmBZEvcn1gBeebF7WwEP6TPSPNTD9PVZchP7bVM9PTP2+/Hc+1o+roimc5G7SjLwGgLHs2SPRC6deoamAMNkrfZ8huM5vTeV1+36C8z//Pbb26S1KDK7I6PWt6HPBDizfDSHsAAEV7ljsvp9FJrDs3lSoxyOi66LjX9+pcTQzeLC2CMksXA86xaoDi332CnLivyNSS9Pc79VxHMHPsRt5TG3TM8ujLcd1mnKkOACjGJDVwLBitzgscFF4NTYxnL1vHaTOb07zuU0/vcL1HaZHt/9ktn93pHevz1SX109i8QZsZnUyQAQAhsuTE4kdMZh7ZvXmnTueBmtiakSqgpPbZjjoovp8hyImmvL1HWnuafa4P83MtyImuWh59OVEVAFCMA+sCnVb6/OBpQ5uf1/u371vM5nRn8VnrEr/r8zt8plv/jLTIIHXv73WVVgKdHIEAAFwiJtpfp8XuzamBzZ07x7RrrAqK8EkVfFVpj6FosbNQkBNNibT2lWrYnRw48mdaBJJAl8U9GgGSR6oCAIoxUQWd5di6+4/FRun7+ZVOj49zVuY3N/xne/eYO17P4va0yXnotjI6mSgHAK4SE5qRsjICnqq7nPFbitzpM/G7Xe7HAjgm47s2eaYaoMh+RpVul6YcNvFMsNPOnukIXHyrJuiZ19oMACiGee5ujiNGqewTJT43dAz7d8Fi9fftw3GN01v8N3dNcnRym3q6q7YCncaaBQDgBrG4Hotr/wh4unbwZzf2drkPCxrEqoKvnlhggrLkgAhBTrTlWb7H2N4zHe/xl2qCHrcZ+qIAMHx7ToXqJNmcmjFe+/v7Pnz4fLTexy1+78bagLYCnUbaBABgAwKe1sjmtDMG2+WQ1WmtHbbABMX0MSZJQATte5nvNVoeM8jOxoD6omeOVAaAwTPf3T2lj9uqhr7PeO3vfZp7/tTi957dUE93JtAJAOgSAU8Xpkk2p11Q5+WYq4Lv22DBTjB4sVPT0VZsy1vBTu3JASGzJMiJ4XgS97RgJwAY9pjUu75TY4pR7oOV6uO/v/xx1lA9rq8rzNxhl9ZDY/dbW4FOdsIDAPdRdMBT/ZnHSaaFXdc/wzdXBZe3v7ntNekEw6R/wbYJdmqnv7oMcnqiNhgYwU4AMGwRDHKoGjqj9GvR1JHro/V/8O8vf8x6VA9Pb/j398n4dHbJeLaRWKK2Ap3shAcAmlBcwFOe0K1c+p0yqV4GR9dd3/bOZNYDoCHHTU1kIsiJIgh2AoBhm6iCzij9KMGThr7P+nj3vEfjyxvvgftkvar/3/kl/7iRfv6DFipjrE0AABpWUsBT7CLYc8l3ykJcGeaq4FqxwHRWt7l22QFwX7EhcibY6f4EOVFYX1SwEwAM01Ob6zoxtojxWcnrEO/+/eWPTw19r/U+67xH98D0hv/sfQM/6uPa38dN/P4PPMYAQI+sBjwNbsIzR88/c5l3zkC7AE2cv16AWJj+s26bTiwyAdDAO8XRqPcbKwhyojSCnQBguI5Uwc5NCv/8VYPfa31Tz6euf/h8xPws3XxSWxNZr1qpjx9a+J5j7QIA0LIIBjqsO2OR/ei4wcj7XXcsX7u0nTBSBcU4TTefQU5KB3WZ1+3UtG5vj1UHAHcUQQsxSTpWFXdykgQ5UWa7EcFO4yGM+wGAryKDuGCn3V+DUp3XfctZg99vPTB/WxtsH2142tqjPB6Pa793y3qqunoR28joZIcFALANEWn+Ki0W33s9KMpBTm9d0s4YqYJiyOq0WZv7um6vzhxXDsA9PM2bFdhsvFAlwdmUK4KdKtUAAIOyV/dxD1XDzsYXpR9bN5S+ZfST/9qg/FmXlxtc+06vu7WR0Wlf8wBk5+n7c0jn6eqzSa/7d217dE37ddW/M8kI3bBcfI9O19G/v/xx0qdfXpBTNwfaqqAYAp3uOICu267T3OaqQwA29bJ+j8z61m/f4XihSo63hoN4Fup2Y6IqAGAwItDJmGA3Ss+mVbkFbvSm62P2NgKdZHSCYVkNVooU0auLWWdp5VzNhtP87cK9GuzHH16M0rdZQPZX2sT1YClBUtC8CE75s0+L73EMVFpkpaJ712ZU30NzNTF4M1VwZ9GX+bt+Vt7F5MAA+oEAbFeVj6ISMHt9nzQWIAQ5wcKz+pmY1+3GVFUAwGDe7UeOp92JkrNpvTfvf6N3dR11PhiujUAnZ8VD931OFwFLy2Cl1SCmuUZ+c7nOVuttdpv/b+34l+WfR+kiaCoCpB6qYbi11cX3Tg6U6t8tgh+ruhy4XJ01SrvLMsgW39318xhB3bJ43V0svj7LQaZTAU8A3FKMcZfBThY2Lh8zTOovr9UEfONVDnaqVAUADEL0eR1tvd1xxmEqe81RP/JqET9w1Je+9g+uFwyyEVoGLM3Wvp6ZQOyetQXB2TWdj1G6CH4a56/LrFGCoeB7sfh+WD87x13a8ZmDG6OjKLCi20aqoBizJFNCEyLI9K8cOBZt7ol+JwA3eJLfGUeq4rsxQ4zxHW8Nl3tbPyNnMsIBwCBMkkCnbSs5m9PnLR3H1rcT0D7n5/C4T/O5jQY6rWUlAdpzmr/O0kUmpk8G+MO2ljFqdkU7PEoX2aCiCISidHHfv8q7oSe7zDSSszhFZ1FART+MVEExZp7LRkUQZyzMHtftXpUHyHPVAsAVXtbvi9mWJpt7IY/rZ2oCru/DR0CgfiYA9N6T/E63vrk9JQc6VW31TdNiE+jSfo/q5E1aZOlvM8BptPb3Rn6WjE7QXR/zgx6N4zwXGZm41iXH531jJSA1vi4DoOIFI7MMQxf3+F+7OFopBzgd5SLgsD8eqYJixMKqjAnNi/buZVosYEe/NgI9ZXkC4DJxhN3IO+Lr2OHEuAFu1dc8cfwlAAxCzJtPVMNWxhuTwsca28oetq21hdVTnq7y9IZ/H/fEtOXfc30NupHAxqYDnfY1EbCxWHSf5zKLr3Yj0ZaV4I7ZJR2ccboIflpmgnqq1hiY5dFK0fYet7lzPO/EXg7SLFT0j35tOe/GTzkQ54naaE3UbQSTxTEj79Ii4EnmDgCWoq9cpbJ3Fi8d65PARn3M42RhFAD6zjhAXW/DxxbX388u6aduQyRIGV/3H+SM+892NR7Px7Kv62RGJzvf4ZoGNDd00YjOkoAmOmYlCOpk7SU0SousT+N0cSSeACj6Lu7hp/X9fZ7v+ZMmsjzl5yU6hJNkgQL6JAZzr1XDVsTA+lndXn5eaX8FPQFwUL8bDkt+J9Sf/yg5Thc27lvWz04s8ByrCgDorYeRaah+n1eqotXxRsRxHBRcBW32F+eX1HdXjmSMceY4XX+yT4zHj1rqU38X6NRUvQh0guYt08TN0sVxc86WpbdWjsObrb2kR+ki+9PyCDyBHfRNdO6WRyuttt/x9dN1wU8rQYDLZ+CmziL9IqNTWWJRVaDTdsVuIUFPAKwq9gi7vMtVXwTu5nX9DM3MvwJAr03SYiMi7Sk5m9Ny7rEV0Q+t+6Pr/zjGeDvvn+bTDOLa/33DfzptqU+9vs5y2tQ3dnQd3L9hXF0UP5OliVKsBECtZ4Aap4vAp/gq+xN98TDfr09X7me1Uvb9QEHvNMfX7fx5+y7oKfrYJS52AxT+PqhSYRPweWe1QF+4n5O8a17fEQD66Wne9DBXFa0pOdDpZAv9xAjgWV0PHaeOBO/lQKzf6z++usV4vOl4n/Ha3xsLpPrBMw23JqgJbvfCnKXvsz+tZn4S/AT0Qiw6mSgvSgzkZFLYva9BT/k5fJ/7FSf63gBFiJT54yaOle5ZH0RmWLifvVRgoCQADMykLlPV0Lx8OoVj69oVY9j1QKfOqMfY05zZ6bqNvk/q/+a4/m+PGrzvnlxST42Q0QmuFrv6vwY2SX8M93qBnqW1KN214KdxkkUD6J79JjvedF6VBDp10UEucSTJebrI9CTzBcCA38mlZGapP+dRKnvBARrtN8YzVbcdx6oCAHppkgQ6taXkYPDzLa3xz9K3GZP28rj2rGP3Qfw+151m8bL+vU8a2nx0eEU9NaLpQCdHfNBnp/nhinImgwO064rgp3G6CHyKr3a1ArCt91KcV/4u5UxCdFL0C17mAXf8fZntaWZTAsDg2vsIAJoO+UPm3a1TlxsaNc0LM3NVAQD9GwdExhmb21oxKfizbyUIPgKD6vs3Tod6uFbvR12piOgj179jjEFv2ux7ko+S/NTwffe+yfgLR9dRqmhoZsnCCHTKyrF3XzoeeeJ3GfgURdYnYJtGqqA4VRLo1CfLbE8pZ3ta9iNObFqAYkQm5nlabKD4lL+mTXYe5s0WKY87HuVxR/QBbLrYraP62lQDD1aIBRybRrvRjnzKbcnq/bb+95TbiP0r/v5UVXbCw/xsOXkCAPrpML/LacgVx4eVpNryGG91bnmSOhToFCL7aZ4HObihT12le2QCu+K+a/TZ/qHBh2SsqaDDBDZBD+VJ7fnqyy+/b5bFRCLQppEqKO69M8sBMxa3+2cvTyREeVtfx49r/X+BTzCscf1ZQ2nUV4Oivvt+K2OP5eYLQSnbE3U9TQPdeZx30drIs13LoOj58usdA+lOrrmuy8Cn1eI6b9+TeMbq6ztt+efEfWReim0wlnH9oCTP8lG0np3mlHxs3fst30uRxGE10OlhfT9P6t+h6li9TPK46Lo5jvseC73eF/+cuhroBB10mh8YgU0wICtZn75YO+5unCw+AHA/MQh7qxp670kuL3N/QeAT9NPy2a12Ma6/YuxxmIug2PY9y1mdZkP6UPVnivHrK5d3a+3H1t79+Wd8026stB3L9kPg03a82kJWuCotduibh6JNn9N2M1HQTlsx1VbARg61fY06Kvizb/U+inmLSzbRHnXtfo5xSwRg1X/884b/NI6F3jjOIm8AWQ+wazwDv0AnhmQ5gXEytEkw4NoX8ix9e9zdMugpXqJ21gH3MVIFRb5XqpxlwQL2sAh8gv6IScEqLYKb5h0dexzlccckCXpq2zSP74bk2GVtzcfcfpx0qf1YaTumK5P+UQ5cslZVbbYfcY/lILYT7wFa7BMdGqv0fo7hk7YCNta5wJC+yuPWUtue87oN3sUxiDGGXd1EG9lGx12LXYi6qX+vNynPlV5heYTd/h2e4YeX1Euj/u9///tfUw9K/HJ2I7FNyxRn0TCc6PADV7yfYiC5LAKfgE2c1v2LsWoo8t1hbFOeWBg9SxeBT3NVMvjnfKZv2Dnv0iK4adbD+ykCFo7cU635eSgb2iL1f/3ltUvaqAgEiOCxk769v1eCnibaj9b8do/jNja5ltscN8bnKTEz2G+5v16Mbb77Ch4D/76FYy61FdqKu4j+wcvC3+E/Oa2nkXbnuOB7aatt/Fq9x7hkNcDsY/277N/xe10XzHOv9Ys8HjlLNwfDval/ztEtv+cof8/VQKd39f8/abqeZXSib2IBIoKbTrzggA0mBWYrL+1xusj4ZBcNAJeJSQDHUJRlmfHpWe4znKeLjE82VUB7Puc2t+pzgGHeJXqSJ/Smy7aERt/L+33/EHk8OnU5G9Pb4MiVtiP6F1WU3H5E/3OiD9qoaT7C7lPL13Jr92H9eUrtl545xYG+01ZoKza4frH+WXqg0ySVfeRaUw4L/uzVLvug6fusTkfbCMDfdDySN279fcN/+rL+7257otZx2kI2pyDQia6LSc94aJbBTRYYgHu9tJftSVocNzFKF0FP42QyEYCLQd7R2oCUskQw9LNc3jrqDloZ68fk1/GQnqccrDXJWRGmScBTU2JSeBLHy/b8cxwbczbWdlRDy76YP89Rbj8mabGwZ3PW/T3M98xEVQDQo35BzEu9K3w8sewPcUeFH1t3usvxQoxdc79+tf7vGoD/+zX/bt7A73pW/16/pps3F41ucc9ddjz3u7auRZOBTiNNBg16nxaTFieqAmixsxEv1yqXZfrgZdDTEzUExXN8RNnviMsGpJRrmfHpZe4znKZ8jLZMs7CxN3WZDjlgcC3gKRbYD1z2e5um3e7IvZc81hT4dneDDI68ov34tPysEeCX73390ft5lheVZqoCgB45Lrz/+HAgmx12qeRAsS7cN9GX/2v1ns6/10ZZtrZx/N4yS/U9x7yPLqn3z23ehw8a/F4j7QX3FDd7THj+WD9Qh4KcgG2LSa84ZzaflftjXZ6nReAlACYEYFUEQr6uy99xJEAsnsWupTyoBy53msf7R6VkRYuAp5jfqP/4c13O3QL3speDPvrq2CW8s8hmMIoJ/tIyKsbCXl1GabGL+7Nb4V6mqgCAnvUDYlPVx8Kr4dCdoP7u4HMXAuRykP36+uJBPkVgiKLO1zMYT9ocwz3wjNMRMWmxnyc856oD6EAnZJ4nFSPw8v/qf/RrbqssUACU8y6IwPtTNcENYhAfuyz/rMt/H394MYtJi3xELrBYnP+1blPHpY7384aKaBN+dzvcy6SPv3QO0JIxeHPRB/upfnYmpR8Zm3dxRxvyxm1xZ097HiwJQJlKD5Y/MLdy5zFIBDmVemx2lxKpRP9zfcPC63ys4JDutxivrGeyft92UhuBTuxaBAz8nCct5qoD6Kp4Iee2KjrWP6XFBKOgJxj+oFB2FiaqgA0tsz39U7chcc798dAmMGADsXtxJGPz1zHFNI8lPqqNu7Wv+Qi4vvUlZXPaTCwEPM/BkY6HvWg/PsUGUW3IvUyN7wDo2fu/SrI6TtwJd1JyNqzjDj3Dn664h2dDmSvMmwlerf3j8208u00GOhkksKnYmbXvfHSghwOMs5yBbpQWR9z9lkw0wlAJTtDmz5MMHNxdZPB4mRZH3M0FPVGQZaDCYemZWC4bS9RfxmmRLZbNTXv2+0ZgykOX7daWwZGVqri6DanLvv7pnewlR1MD0D+l94smboE7KTXQ6WPXNkvkjV/rffcYI/Y+2CkHOb297P7bxlxQk4FOUjCziXd5Z5YJT6DX8hF3x3miUdATwDDb+qm2nQbE4pqgJ0oQ7eVYoMK175XIzDKp//g82aG9qad9Ob4iZ44RVHE78Rz8Jjhy4/6p7E6bO5LVCYCeKT076F7fsrp2YBwSY82HnpfO9d3XNzv1OtjpmiCn59sKNnN0HbvwW57QAxgUQU8Ag6b/SpMuC3oaqRYGILKxOG7q9uOHKi2yOwl22sy0R7+nbE43WwZHOuJv8zZEhrjNxTMpABGAPr3v53mcVbKJO2EjJR9bd9Lh3+0ofb9e2MtgpxuCnKpt/R4Cndi2NyYugFIGIIKeAAbVrp/lthyatgx6+ufxhxdndZFpgL76XTaWO79fRsYKGznsejuZg1dfulQ3Ehx5/zZEhrjN6WsB0DeV/r939y3HIVFPB4V+/Hddno/Iv9s4XR3sNOnD/VWXaI/eXlH/W22rBDqx7QbGjhmgOIKeoNcMolltzyNg/72aoEVxJPzruvz38YcXJ3U5VCX0xPOcip27vV+umvDkcjER3PX20fNwszeCIxttR6okQ9wmbYg5agD69J6PLDXn+v/cQsn1VPV47B/3+NsIIupqUF/OOjWry7NL/vXzXZzmJdCJbfloAAlwadDTm8IHKdB1+6qANRPtNlsSO/D+dLQdPfB827v2BjpOWE54OoLqdjo7x5Tb62cu0Y3thnnC5tsRGeI2aENkhgCgZ0o/LUff8XZKDXQ6r/vCswGM/WMcGdnexx0b407rL3+nxQbNy8Z21S5+rwcNfbhxgqvFTqKJHVoA33VoIujpqC6j+q8/5Y6N3ZcA3R+MHmqv2aLVo+1msjzRsbH+T4Kcmn3H5F2Qgp1u9iTvKO2iictzLcGR7fdVx0mw001kdQKgb0rvPz2xAex6uX4OPB+9Gvu/ueRfxzzgXznT+2jH91QcGzmv//jqkn8dc0I/73JsJ6MT23CcdxQBcHXH5iw6NnWJHYW/JkcjAXS6zU4WRtiNp+kiy9NUJgJ2KCa0xsb6rb1nJvWXUzVxo869i3O7rI9wdbshOHI7bYgMcT1tQwDghvd76e927+7rObauf8913NO/pss31EbQ2j/5OLutbvKpf96kLjHf82daBF6ti/mK0a6zaAl0om2RKm6qGgA26tyc1CU6pf+py2/JTkyALrbVVW6jYRdikiF2U83zhMdIlbBlR4KcWndoHHCrOurcs5EWmWL4luDI7fdVZYi72cNYxFENAPRI6cfXeW+rn8u8j9NTetxvP0mL46evSn4Qx9n9nbO8T9ra9Bhzi3lTZdTl23T5MXUxrvut/p3HXTjJS6ATGlWA7nZwYmIysuJFtLaj7QC6104fJ4tH7FYspseExz85pfVYlbAFjp3a0lggOX7qxjawg0EKE5flUoIjd9eWTPRXrzVVBQD06L1+Vvj4IPr/h+6E7+UNcE8K/fjVEMb/OflBZHc6v+I/iyzvEYD03zwHeHSfTE8RMBXziHU5ztmb/kmLTZV7V/wvEYi1n+fDO+EHjz4tOt91yjKAgQ1iJrkDMsl/fqpmAHbePsdOmvjjM7XBjkVK64P6foz00VNjMVrymyCnrb5jPuW+fzzPsgRdLiaDO3FP5mu155J8R3BkN/qrsQjyRG18Zy8WePSbAOiRCDJ4W/Dnjz73idvg0nFRiT7njEhD6bfHZ/kSxJQWAflXzQMc5JLyvHTMBc5zSXkOYVVkgVoGRY3z3287NujsPKOMTrRpqgoAWunsVJEasv7jj3V5k2R5Ath1uzxJdsrTHREI/VdOaT1WHTToXZd27hX0jokND3YtX+2grdT9d3DkcnxHcGR3RJ9AhjjPLgD9Hx9E36rk9YCDnL0I/ZlQDfQ5j7mXuM+fp6szPK2KucDYhPsql7/Wyp8r/y7+29sEOUUGp5/zMXWzLtaTQCfa8tlEBkDrnZ15XeIIgEe5w3OqVqBxBs7ctk2eJMFOdIuAJ5r0Mbdz7OYdM6u//K4mrrTzQDDZci4lOLJb7cjyOEwbpb5nwRSAvqn0/1kbi5SaWXaw4418nF0kPYh+6s9pMe/cdl8+Nkb8Vpcf4yi9rmc9FehEW6QNBNhup0eWJ2jHSBWwQVs8SYKd6B4BT9xX9CtNJO/+HTNNNjZcpQv3p4ww3xIc2c12RLDT1dyvAPRJ6cHk+t76Mcsxx7yQfvwsxlc56UEEPf3e0PxAjAsic9MyuGk/Nqv0pV5/8OzTEoFOALvp8EQH5OjxhxfTtJjwj06/ncUA22uHJ/ls9Gdqg45ZBjzFBMZRKZNBNGLifumM6N/HtXioKr7x5fi6HMSxdfnoPMGAFwRHdruvelbfszFP8FZtfPuuq8tUNQDQk/f5PI/tDwqtgr3YyNX1bDNbHieW6LjQ5z/u+9nKeDQyeo3qsp//0fiK/3WeS4ybz+LPfZ/raSrQaaQNYY2XC8BuOzvRWami5OwNk2TRHWBbbXAEO0U7/FJt0EExERpBAZEBcrqrwAB64019j9jI1KE+fv3sRr/+T7XxnRjz7OpejYUFwWcXBEd2vy2p8oKIvuqFWDA99M4DoEeqVG6g05c+Z7IWXfKxdZ+TpCvLvn0ELZ2VWB9NHV03chux4qPJcoBOdXRm+diAONbu9yRNPcA22t7YKf9cTdBhsbg5z0ETcNXY3pEA3Xu/xOTlezXxnV3uYvacXBAc2a++6kc10Zl2BADuMi44L/m9nTOrlq7UsciJWAQeqAJacKYKADo5+IlUlNO0CFB+XvhACGAb7W6VFuemCzClqyIDydvHH17M8i5AWDVRBZ2+Nt4t39pJgELddsbYylHhCzG+nKoGbUmPPbNgCkDPHBf82R8mQcopObaOggl0og1zVQDQXRHpHovvdRmlxQL8qVoBaK3NnaXFGel2zNNlT+vy9+MPL6YW+Mje5PTndLQ/n2QRWvdwRwGbFlcuTOyq7l1bEu38VE14pgHorar0/mfJHz6O3U1lHqF9br6CINCJNsxVAUA/5GPtxvUff6rLOzUC0EpbG/3jsXaWHnhVl7PHH16MVUXRZGXpx7ulSjYsrNtFgIKAs4U3Obib/rUlx9qSnbcjAHDX93gEmZc81/Q0Z1jVbymLbE58IdCJNsxVAUDvBkVndZnUf/yxLm+S9PUATbezn3I7+1wbS8ft1eWvxx9emDgq15GsLP25VqrgG+Nt/rCcQWpPtX/p10xVQ69N9E+/OpDdEoCeKX3sXvKYqNRAp8pjTxDoBAB8FVlH6hKDg1Fdfk8mOwGabmdjMD5OjrKj+14+/vDibEdHQbE7p3U7daIaevNOiXT9sgVeeLrlnyfzy4LgyAHMAySLpJ5tAPo8Jih5jqnI9/bjDy8mqcxj694be7Ak0AkAuGyAFJlHpmkR8BTZR87VCkBjbWxk0Yvgkd/VBh33pC5/P/7wQtaYckxVgWvWZ1s+elMwxCI4slINg+ifTo37PdsA9FbJAct79RigxHe3bE4UT6ATAHClHPBU1WWUBDwBNN3GTusvPyXZnei+148/vDhxlMvgvavbpZlq6N27ZJ5kdVo13sYPqdvDGB89Ud0C7QZGYPPCgSoAoGdjgiqVfTLDpKQPm+dmSuyvnMtAzSqBTrTB0QYAAx0wCXgCaLxtld2JvohJtJmj7AZtqgpcuwEYb+nnyPiyyOY0Uw2D6pfGwtGpmviygOgZB6BvqoI/+0FhG7Nkc4LUXKDTmapkhV2+AAMm4AmglbZ1Wn/5MVlcotsie8nM4t8gvcuZgejnOySunaxOC0+39HPGqlqAnes6aJ5xAPrmuPDPPynoswp0gtRcoNMnVckKO3wBCiDgCaDxdnVel3H9x1+1q3TYw7r8+fjDC8fbDMtUFfTesSpY2FLmudKPtpLNabj90biuAu9lbQOgf+/wef3lfcFVUMQcRT5Cu8SxyKnNWaxzdB1tEOgEUNYgSsATQLPt6kluV+M4u89qhI56/fjDi0o1DIIJw2G8OyLbuuCEhXGb31xWuy+mqsD1Hbi9vJAIAH1S8hh9b0sbHnZNNifIBDphIAhAIwQ8MVAzVcAO29Vp/SXa1Tdqg456Vo/9Turi+PJ+kwloOCpV8EXbCxzjwuv3XDanwfdB4/oKnPSsA9C/d/hJKntevoSsTpMCr+vnWHvyhLNOoBMGggA0PaAS8ATQXJv6qS4xUfNjXd6pETooUqbPBDv11nmeDGcg/fAkE2AQ6NSuqVusCIJgPesAeIf3zaCzHeUkI08KvK7mLLjUD6qAFl8mlWrghpdyTD5etyAyyqVpkdL/0zX/fu7oBri/vNBS1c/6NC12UzxUKwB3blOjbzLJbWqUZ2qFDomJtgh2GkdwnuroFQvZwxN98JfapHbkoM4nBddtBNJZaCij7xkZG2Pj0l7B1TB2JwDQ0/HA60I/+8O6/zIZcPafUo+tM2/BpQQ60ZaDmPwxyT1csYix8tdR+jYgaT2AqXcTgfXnu+wfr6ftjvv7bOXv81y+kModvj4L0/qZis7oURLwBHDfNjX6GgKe6CLBTv1UqYJBXtPSA52+bKyq26KzFr71uPCqPdHGFyXG8a8L/vx7kTnBZkgA+iT6avX7KzKClzpfNBnwOPeowOv5saVxHQMg0Im2G9ypauiHvCtxmd59NVBpvPKfPS28mi77/AfX1Ok3L+N0kUVqNaPULH/95GXN0AdY8U7IAU/HycI8wH3b1Xn6NuApdnUJJGXXBDv1y3vXaZDvh7P6GfyYys46FPbTtxuTmvy+JbObuixVKjvQafnMz90KAPSwz1bq/PvTIQYq5xNy9gq9l+FSAp1o0yQJdOrSS3Cc/zheGahHMNMolZ2GeltWJ5lXA6ZerVyj5R+XQVHzXL5mjpIlir7Li2nLhfnopB6oFYB7tavz3K5Gv07mPLrS7xXs1A+OnxquKglOGLX0fccF1+m5DVrljd8LzwixfOa9LwHo2zu89M0PkzS89elJoddSP4wrNRXoNFeVXCLS+x7VL1TRlluQo3kfpYtJt+XXp2qnd55cde1WgqGWx+jNVr7KCkWfBlvRdzjMQZhTbRXAvdvVT7k9jex5k7QIeHqiZthhfzbGgRNV0WkmDId9bUsPdBq39H2fFn5fUeZ1LznQad8tAEBPxZj8baGffZKGF+h0WOB1fGcDHddpJNApFivXjmiCpVhoqTREzYh0i2mxK3F/7auMTOV5uvb1Vb5H4svntMgANc/ly1F5skHRRfm+HOdF+an2jA7Sh6GPbWtVf6lyIHwEPDkulF14Fn3T+n6cqIpOcmzdsN8DMU93Xnjf+lHT3zC/V0tWebqKbE9O6ns/5plKzRhqUxYAfX2Hx7zQcaHv8EjEcRj9mCF8mIKPrTP+4FqOrqNt8QKdpsUCC7d/aY3SIoBpnL+ODKzZ8Ll7un7P5CComOyep4tAqPh6ZpGDjgy8TpJjl+gemfLoc9sa928caxft6iS3rwJK2aYIdprl4Du6RWaWMq7xy4I/fxtZDUsOdHJsnfak2MD5WFx0/wPQU1XBY4LDAY17S1xjP5e8gZsIdGIbXubJbROp3w+UY4fh/koZJQFNtGsvl8uCoOI4vHnKwU9JABRbtjx2KTIBpkWQrAwkAM21r7GL73gly1NM+AgqZRve1vfd3ARV5xifD188cyUHOn3ZRJaPzG5KyYFO2gzvjJLH56NkAwwA/XRc8JggNl4dDWSNq8Rj6yqPLzcR6MTWGqS8+2VeagWsBDWN00Vgkx31dMkyC9Szlft2eQzeLOUgKLvYaFt+V0xywFMMxp6oFYDG2thllqfomx7mcqBmaNlJ6ePBjvloQ0MR7f1J3tBSslEexzal5ECnmaeq+Pak5OPr4tkX7AdAH9/hcaT1+1TuvM8kLdYXeiuO4Cu0D1Z5grlJk4FOJQ92uFncGzEoHpcwoSqoiYE9u98cg5cnyz+mbzM/zVQVLQzE4r7az0cuTfUzABptYz/lSYMqH5scEyeTJLiUFseDqewggS7Rdy/HaSo7a/R+w/d7sW2YLO3kZ6nURdKxyw9Aj1VJoFOflZjN6b2NctxGk4FOsdjtyC2uE4smsyEGO+UjQFYDmywQUcLzHOVZfgbii+AnWlHfS8cr2Z0cZ8e2yXhBCe3sPF0cbTdKgp5oqf9Y31/T+n6bqoqdE7BQjhiTlTxX96ipb5Q3tJW68eLUo0QqO9DpkcsPQF/lzIznqcxkDE9yduk+n1Li2Dq4gqPr2PpLJQ0g2Cl+/7QIaooSgU2yjMDlwU8xIboMfpqJwuYeA7J4ZzjOjl3ce47rpLR7fp4EPdGeV/V9NRMQv3Peba51KfY7+r36RptNiCDZ14V+dv1gAPruuOD3eJwWMenjL/74w4v4vUtbf/4smyy3JdCJXQ0OexPslHftjdNFUJPMZXB768fexTGns3QR+DRTRWzCcXYAW21z50nQE82r8o5KGfN246O6L0rp460ms7CM3EeU3i/MczpFjsEHkA0CgMLH4ancufRDv3vv7lW4lQeqgB2JxZF5zozUxcHrYV1iQScGsP+ty591eZkEOcF9RUc6Up2/qstf9TP2v9jVH8eY5OdOOnBuJY6zS4vg049qA2Ar7e482t66RNv7n7o8r8v7unxWO2wo0uVPVcPOWKQtq+2OoLbzgqtAoJN2g2bNtCcA0NtxQalZch7mzEi9ktfKSjw2+NgTy201mdEpBjqCQNjo5ZIWgQ5v6q/TXe4qjV05aREZO3Yfw9atZ336mN8pX4od51wzQJunRXanKuUjE6Fh56oALm1/491c5fJlk0DuR8fXPTXELbyM97fMCDuhzsszL7htbjIDYalH150bk7P2Djko9LNHGzBzCwDQYxFAUuocesxXVT38nUvzMa/5wK04uo4uiExJkcklgp228qLJR2+M00Vwk6OPoDue5PIyP68Cn7hWfU9M6vskOsCv1AYNM7CC27XDsSswytHKEXfRxz5QO1zjON8nbJdAp/LEOMqGrvsrNZuLNoP19uSVNgAA+ic2Gj3+8OK00LHBQcxX9SyIpsRAJ9mc2IhAJ7oidhe+jWCntMjuVDX9A/IxectFlyeqHHrjqsCnk7qtmKke8kBtmoOd3qoNgJ22x9EWH+eymu1JH5x1TyN9/LY2u/D1GdV/Ls+85A/f4IJGqRmdBDrhfii7DQBgWGL8XeomiEldpn0Zw6TyNg9+TuUer8gdNRnoNFedNGAZ8HScG7STvEP8Li+C2GmzeoyGrE0wDF8Dn+rnPP7+Pl1kezIJW7BYKM1BrY6xA+hO27zM9rTePx8nx9yRUgQqn8jYuTWOZC3TvPDPP2qoDkqdUzLGZrVf96l+b58X2oeT0QmAIbzLq7z+WmLfdpJ6EuiUyszmZG6IjQl0oqviJRsL1c9yIEOkU5zl+yzKp9WAhrywHWJ3zSjZMQ4lOcgl5Qm3aCtiQdUxd2UO1iZ5Id1xSTRhpgqg0TY63stVLqvHSS+LwKfyxDU/Sv2ZbOy7uSookkCVe8rji1IZU3PZu0SfDQD6KwKdSjyKdi/WknuS5XhS4PWpPJpsytF19MXTtJZOMQdAAXzTWU05SDK3ExEkuQx6MsFfjhgInCWTrwCdlo8SqtJF4FNsWhinxeaFsXa8GEexo1SA+lboD5fZ1n4yf3Jv+wXfPzOXnzVxT5R45M1Tlx6AgahSmYFOYZI6vrE1bwosLZHHuXEHd/Ggwe81V50AdExMRL2uy991B3Eei2h1OVQtw5YXSidqAqB37fdZXSLgZVKXUf2PfqzL87q8S47cGrLI5nukGrZCMFm5Phb82ccuP3iXAAALedPZ+0I//rMeZGstcf3q2JPJXTQW6JQbRgDoqsgK8bIuf9ad2djVHOdRTwo/hmDIA7ZZWiyMw33MVAHstC2f16VaCXz6T11+rcubVPai/RAd6ZNtxVwVFEtgwv2MCv3cpy49l5AdEAD6r+TAkq4HEpW4EazySHIXD1QBAAWKzAFxvN3buvz38YcXJ4KeBikGBZ9VA8AwRMa+upzU5agucYyQwKdh9c0mqqF1c1VQLIFO9zNSBUA+ZhkAei9vEi41c3ZnA4lyX2OvsOvxPp/QARtrOtDJ5DIAfXSQLoKezupylM9Cpt8DtuggS3vKfRhkQcfbeYFPg+L4OmiPDCzoC9NU/2tW8Me3OQ6AISl13vxJh4OXJwVej8qjyF01HehkAAxA7zu6dXldl38EPRmwUbZ/f/nDoiD065m9LPDpeVocZXquhjpvr+5zHaqGVnmvAdoMAABClco9DWHS0d+rtDmR85jH8yhyVwKdAOBq60FPjrfrmZzV6Z2aACjzHVCXqi6Tuozqf/RTXX6ry6na6ayJKmi9XwSlMX4DAIDLx4elBplMuvYLFXpsnSAn7qXpQCc7fQAYqgh6Wh5vdyLoSYeZwXPsFQxMZGmry3FdxunimLsIhv2sdjrjQCZNaMW84M/exLEUY7cQfEPQOAAMQ6mnITyM9Z2O/U5H7j/YzANVAAAbO0gXQU+VY1a6Lac/tYjNpmS9gGG/G5bH3EW2pwhcjmxPb5Ij7rpAvwqaN1cFAADAqtgQlsoNYD70++zUaX3/GadyLzI6AcD9PKvLn48/vPhUl+OcYpTukdWJTQl0goLkbE9H+Yi7H9PiiDuZ3XZjogoA9IcBANiKqtDP3ZmM0nkj/UP3HWym6UAnA2AAShUd0Zd1+bvumJ7V5cjRdp0iGBv3DHArsaMsH3EXwcsR9PR7kulpm544vg5Afxg6aKwKABiaf3/5o0rlnoZw6PfYic/5voN7aTrQaa5KASA9qcvrtDja7sTRdp1gkh6AjeWgp2nO9LQ83s5xqO3TdwIAAIDtOC70cx915PcobQ7E6Rs0otFAJ2cpAsB3DtLiaLt5PtpupEq2r+6jzNQCG3LPAOvvkuXxdpGx8de6vFcrrZmoAgAAANiKqtDPvff4w4vxLn+B+udPUnnH1h175GjCgxa+p5T+AHBJpzktjrb7p+68znIHlu2SgQOARvz7yx8ndYkdd8uj7bxjmvXEEcAAOzdSBfCNmSoAYIhyIpNSN3NNdvzzS8vm9DE2EnrqaEIbgU5z1QoA13pal7ePP7z4VJepLE9bowPNJgP8mVoAbtFWLI+2i6Cc58nGnyY5vg5gt4xTAQDKUWqWncNdbbTKP/egsPquPGo0pY1Ap0+qFQBuJVKSvkqLLE8nu06TCgDc3b+//FHVZVT/8ee6nKqRe9MvgubIkAYAAFwpb/oscfNWrNHsaqNViRu8Kk8bTWkj0Em2BADYXETu//X4w4t5XY4c1wI7JUABuLOYHKzLOAl4uq+xKoDG7Bf82ecuPwAA3EqpWZ2OdvRzSwt0evfvL39ImENjHF0HAN2yV5fX8T59/OFF5Vg7AOintYAnR9rdoU+kHwQ0YK4KAADgVqq6fC7wcz/Z9vxD/nmOrYN7EOgEAN0UKVOfJcfawS7MVAHQlBzwNKr/+Fsqc8LwPvZVQXP0J0HfUBtMQ56qAgAYnpxt56TQj7/trE6lZXM6z8cjQmMEOgFA960eazdRHXdmMpbbkkIXaNy/v/wRKeBHdXmvNm5trAqgEY7Fxn0DAMBtlHp83WTgP2/XKo8WTWs80OnfX/6Yq1YAaEUca/c2BzxN62Li+ZbUFRs6UwVAG2J3ZF1i196vSXan25BNpFn6Q54lAO7ej5upBQAKeN/FvOhpgR/94eMPL7aSZSkfW/eksPqtPF007UFL3/ejqgWA1kTA06u6LAOeRqrkRhZ32MRcFQBt+veXPyIVfLy/T9WG97f6BDpKRly+4xhUAChCVejnnmzp55R2bN17iXJoQ1uBTo77AID2PUyLgKd/Hn94UQl4upaFPW7NwAvYUlsT2Z3G9R/fqI2r+zr6N6AvfE9nHfkeAADQC//+8keVysxCfbClkyGOCqvXE08VbWgr0GmmagFgq54lAU/XGasCbklmUmCr/v3lj5jgeq4mrqRfoz/E/T0s+LN/6sj36CXZe7hEqYGTxokAlOa40M89abl/HX2pvYLq83MOnIPGtRXoNFe1ALATy4CnE5PSXwcPsQvjQE1wSzKTAluXJ30EO11OVsbmPFIFRfaFPUPcx0gV4F1inAhAkapCP3fb2ZYm7iNohkAnABimCOz56/GHFzMBT8Wdec39zFQBsAuCna4kOKc5T1SBZ6hATQQnlHx03cgjxJqxtgQAhu/fX/6Y11/eF/jR91reLFLaWsWxp4m2tBXo5Ox6AOiGp0nA08RtwAbmqgDYlRzs9Jua+MZYFTRHdh/PUIHt6lkD3+OT+we+KjV40noHACUqNUillaxOBR5b9zEHzEErWgl0yhMAn1UvAHTGasDTqJQPnT/rU5efDRh8ATtVj6djIvG9mqAlAp3KM1IFjTh3/8AXsgMCQCH+/eWPWaH94MPHH160Edx9VFg9yuZEqx60+L3tcgCA7omgn3/qjnpVSMDT1CXnDgN4gF2bpHIX1S/ru9AcgU7lGRX82ZtsR+eF1uFeS4s89FDBWaKDcSIApSoxWOVhaueIuZKOrYuEOCceH9ok0AkAyvQsDTzgKaeCfeZSswFBBUAn5CzJEzVBCwQ6lafkYMF5R79X34w9RniHpE8uPwCFqlKZpzhNmvxmjz+8iCCnhwXV30nhR4CzBW0GOs1VLwB0XgQCndUd7ekAd+pKjYr+K9BbOcPcqZr4MiEom0hzZMgq69kpPbCtyYn1kvuJY08TWbFtSt0vs6kbgFLfgdGnLjEzz9OGN4gfFlZ/laeHtsnoBADEToJXdZlHwNMQPlD9OeK8awt5bGqmCoCOmaqCL2QharafNFYLnp1CNDk3OS+4HrUZlH4vyPwLQOlK3VB81NAYPDZvlRTodJ4370GrBDoBAEtfAp7qjncEPE36+iHyzvWpy8kdzFUB0CWyOtGSsSpwrdFP3MATmfXI98Ce5x8AypMzG5Y4N3HY4Pcp6dg6J22wFa0FOuVUdnY7AED/xOTl28cfXsz6tuM/T75WhQ0caI5AfaCLKlVAw8aqwLUuxKypb2RHsnaD4o5baaUtAYAeqwr8zHuPP7xoog/k2DpowYOWv/9cFQNAb8XRb3/Vnfmq4fOoW5GDnGZ1eeLScRd5dxJA19qmqv7yufBqGLkTmu3jyc4yfLn/vld4NXxq+PuVvKHz0FNVvHHBn33u8gNQuoLnJib3HJfF2PugoPp6n5PhQOvaDnSaqWIA6L1ndTmrO+XTji+KRUpUQU7c1UdVAHRY6WPrkVugcWNV4BoPXQtB7HP3E+6BIs1dfgD4osQjyQ7uuSYimxO0pO1AJ7viAWAY4ii4V2kR8NSpznkMNOoSfY5nLhP6rcBAzVQBDZOdZfjGhX/+NrIvldwWx7Ed+x6rMuVrX2yGOEdXAsBXVaGfe7Kj/7d3Y7C633TiMWFbHF0HAGwiJjf/fPzhxawLx9nlCddZksmJ+xPoBHTZTBXQMIFOrvHQzfUXGzfxWLn2BZL5FwCyf3/5I/rY7/WFbievnzwtqJ4EObFVrQY6tZAiGgDohuig/7PL4+zqnxsDjFkS5EQz9FuBzjK2pgUPu5alk0b7yXFtHxZeDTP9xcZpM1x740QAoMTj657cMbvpoXsD2vNgCz/jVDUDwGBt/Ti72AkRGaXqP75NFnBojglsoOtkFKBpghZc2yGbN/0N8w72zwXX6Z4AyfKUfmxdklUTANb7xPFuPC/wox/d4f+ZFFQ/p3m8BFvzwxZ+RiwaPVXVADBYy+PsIrh5mgc7jcupXqd1eabKaVicH/5JNdBQWxULgMtdXpVBPg3STtG0w8jM6R04zGurClo5ui7EWOeg8HvLkRRlmRT++W2IAYDvReae18ZYV8trGSWdRFF5LNi2bQU6Aaxnd/t0Rftwlq5ZxGkrgGKl8zG+5l+Pclm3/v/E4qYsM5QoApv/qp+jj3mwc9LEwll+LidJgBP6q3RYPsYz+imrkxiv6n/+pm4Lj9QQDZgnm4hoVoxZYrK2UhWDeh85tq7duYPoN5Yc6PSsvseOBEgWZVLwZ//s+GAAuFSMIaeFjTvi+PdJ3Te47fi5pD7U5w3qBRoj0AnY1Ona872c3JqnlR2TbQcktaWN33steGqULoKlVv8sOIohiUX+OFbubX3/v0+Lhf/ZbScI826HeCZikSaenz1VSstmqoB7vusvC3Jaepn/vUVB7muuCmhBBGJWqmFQZHNq96jPeN+/0m58Wdhi+H3cSSp7rso4EQAuEfNbdT8hsnyWtjF5ssH4eVJQvcj4yk60HugUi5p1Y/c5WcCHLovzdOdrg/j5yj87szB3r3Zwtsl/vxIYNcolFkeXR+DYxU/fHOQS93Z8iUWHZUa31XZled8L+mMXBOZzX1W6Ph11TPzsxztenwromCd127QvY8Uw5MBaWVBb7NvF+D6Pa0o2SQKdSrrWJZu5BQDgStMCxx5PY5N2PSaY3zAuizWOkjZvH3sc2IUftvRzYoLB4jzsxjKIaVm+HhnX16xLQ3eb65I7SssAqNWv2lq6bhkI4F6lV+0uXPNOjsH8bY6wifZvnoOdBBQAXRLZWSaqYRBcx4W237OnhY9n9jY8toN+9nFHxu0CnQDgKhHsU/cXSuwXx5hralz21UfznOzKtgKdZgZG0Jr1QKZllpT5TVHF9LoTebbSvn4nZ4VaBkCNctEOA1wyGFMF3FU+zuPlBv9LZKyLTBBHFgdhI8Y17XpWt0tT48dBOFIFX7Q90T4zvv6yuKMvM/xrXLJzi3YAcKMqCXS6zGFh9wDsxDYzOgF3tzzqaZZWjnwy4OYqK9lJvjkbNx9lsJ8uMkCN0yIIak+tAYWaqQLuImdXfHuH/zWCnd7mVNdTNQm3MlcFrYv2aKIaev1eOjSu+2483JYYZ78qvJr3cpZKfelhtiej5BhM9zYA3NzvrmLTTGHjkOgHH9af/eSKftS4sPqoPAnsyjYzOgHX+5wWAUzLjEzx3MjKRNMdz+W9NbuiA7bMALUMhnqo1oCBEzTMxnKQ033HOK/y95nk9zPALsnq1H+yOS2cbmFcfVY/L5+Nl9NxnjdgeKaqwHoGANxSlcrbBBCbTE6u+HeTgurhnTlNdmkrgU5xkz/+8CKO17KzDC6Ompvlr3M74OiCfB9+cy/mXXz7a0VbDgyJdzAbydkRq9TM4uZBWhxlN5Gpk1t4pApo2TTJ6tTXd9M4OUptaVvv01jYKD3jzZPch6ncdoNqT0bu7a/POABws+gLlhboFBuFjq4I8nFsHWzJD1v8WTODJAojoIneyzu6o3yd4Fk5/m6cBD8B/fZZ5gruIN6JTxr8fvG9lsFOFlS4TslZM7TV2yGrU39NVcFXsy3+HPOci3uvUg3ak4E5lZ0AAG4nxo/1OPJdgX3jw/V+cD5OvJSsr+fWvNk1gU7Q0AA4LXYNzuOrxp2Bd1y/O/5uLfPTONlNDPSD9zUbqd93VUvvuJgE+bP+/m/q96yjh7hKsRmdBN5s1TTJ6tS3d5Px1276dxGc/FZ1p70cIDlVFYNoT2JOx/y9bE4AsKmqwD7EUfo+4F82J9iibQY6OYqBIfic7+VZ/npm0h2uzPy0mvUpvsr6BHTNTBVwW5FxKbU/afMyL1gf6mNyiSeqgC2IrE6VzTu9MlUFX33cVhaW+Dn1s/I+LY6hLd1RXRfHMuAMwrEq+EKgEwBs1jeOTOVxyk1Ja0BxjPN+/dm/xD/kk1AEOsEWbS3QKR70+iGPIJGHqp2eiJfyWVoJbDJpA5u1+2klyDVnfRqni+Ani3XArgnE51Zy8NG2sjbE+/HMUXZccg+W6tQdsHXHqeyjEvvUNkySbE6rZlv+efGeFui0mOutUlkLO0NsTw61J198tOEAAO5kmsrLeBrjsWVm9pKOrXuvv0QX/LDlnzczAUBHfU4XWZq+fBXUBM3KHZ8ql2WE+3ilCHwCtt0uzdQCN8kZCrcdcOQoO9YJOmGbYmfqUd3+yOzR7fdTjKemauIbJzv4eY6vWziIQBlB2r1uT7T5C5UqAIA7942jP1FSwpNJ+jbQybgLtkigE6U6TY6fg53KwYQny07RWsanKI66A9ruC8C18qJPvKd2NUmzPMpuskyFTbHGBX929/5uTOv258RYudOOjJm+8XnbQeyOr/vOcV0fMxsH+9nma0++snAHAHfvG8d79FlBH/thzrJbUqbXGHdV7ni6YBeBTrBtH9O3mZpMlEM3O8Lz9G3Gp1FaRMGPk4ljQL+U3d0nu170iYyHs/q9OJVdpUw54K7kvpAF891YHkU1VhWdbBciy9srNdGJvp3j6y7sJUfY9bE9iXb+pZr4wjEsAHA/01RWoFMqsO9buc3piq0GOkWAST14iiPCHqp6WrTM1hTFEXTQU3ly6TiX5eTbMvDJMXfAfc1UAdep3ztVh943MX56vZLdSf+2LKUvGGuvd+epI+w6q1IF3znZ4c8t7YiO68QRdhO7vHvT332kPelEOwIAgxBrOnX/ItZon5bU/63LqKDPa36AzvhhBz9zlux0olnneSBaydYEg+4kz/I7RLYnoKk2BS4VC/upmzvQ4p03zwuIFmLKMSn888/dAjv1Oh9FZazdnXfUNNn4cZmdvBcLPaLjJnGEnYzq/VAlR9YtOYYFAJrrXzwt7DOXMj77KPslXfJgBz9zptppSAQ4Pa8b1VFdjkygQDmiMxU7y+tyWJf/q//Rr3V5V5fPage4hVNVwFUef3gRgbSvO/wrRsaIP2NRNe/CZ9j3YxxP9bTkOjCJ1gmV9qZTbYIj6y7p2+0422HlEnzXV9FudL89icB+G8cu2EQAAM2M4aNvfK4mBkk2JzpFoBN9FIEMywCnSnUAkdWiLpHdIiZSf6rLG51pQH+UTeUF5L70L79md3LlBu2o8M8vMLUbniSBHF14R8VYx0L85XZaLzlTqPHn9+2GhZBu93lfq4lvuF+7b6wKAHrD+HF4PhuP0jVbD3TKWXdk3OCu3tdFgBNw7XsmZ3kbJUFPwOUMyvhOXkCepUUWgr6I3/VtHCuVj3VlWPfkODkKSdbe7jjIR6axO1VyxFSX+3aCJL73TLvRyf7FKNn4se7USQEA0PjYhYGNuXacRRe+82BXD4Oq5w5+z8dUaUiBW1kLevqxLr8lQU9Qus8msVnX0yCnVXG02ZnFxMFxPVOaq4JOeSWL3M7eU9EeOGLqcqcdOeKycim0Gz3p8570uM/r+S3bSBUA9EPun79TE/pL0KZdBTrNVD0biqPqpqoBuE/nui7HMj1B8fRDuUxkYXjS888QC1axmDjPmYDosfoaxpF1T9WENruL7WU+8ojttQeTaN/VxJWqjow3Y1OexZzLvdU36YyTAfR5m3bu5IDeGKkCAP10dtZfmqkGukagE33w3IATaJLj7aBo+qF8I2fJGNLxYHGs0V/15zpxnF1v78m4blM1seizqYXOiaDKmWCnrbUHUc9v1cS1upQ13vF111wn7cbO25MqCaK+TKUKekMbAtCv8fwsWXMZCuMcOmkngU45ZZ3Gjdt4I8gJaPmdtBr09Gta7ML9rGZgsByhzFcDz5IRRxz9E4Fc+ZgS+tVOOVImpVNV0FmCnbbzjor6namJa73LmZQ6M7bUdmk3OtqeVGlYgf1NibkfC3c9akds5ADonakqGIRKFdBFD3b4sy0ycZOPEXygGoBtqduck7pM0iId9vNkkhqG5jwH3MNyAbmEhY0I5Jrno9Do/n1ZJUfKLM1UQacJWmj/HTVLgh5v0sW5xanLot3oYN9CkNMVbUiXgiW5Fe0HQP/66zaV99t7/SW6apeBTjPVzw0mqgDYhei4RTa5uozrv/5Yl9+TTIQwlME1LI8Gi/FIKQvI8Tlf1597nrNY0c37MgLvLESaM+hb2yJoofm2QJDT7UQAe+f6do7ouHW7cagqttKeVPoW15qqgt7RdgD0SA6QMR/bb5UqoKt2FujUxckIOuX3nPIbYNed8Xldpvlou5/T4mg7oJ9mqoB8jFupR4Pt1eWtgKdO3pdxPV6qia8+52ABuk+wU7NtgSCn26s6/LtNXZ4b240/9UXa7e/WJeZVBTld7Z1sv700VgUAvaNv3F/n4jnosgc7/vnvXQIu4Xx0oJNiwS0fbfefuvyW7NSFvj3DBmaEKjkaTMBTh+RsC2/VxDdmqqBXImjhb+3JvduCcRLktOn7vKt9zspY8Vbe5myGNNuWjHJb4ijc601VQT/HMTLCAfRLDiw+VRO9ZC6dTtt1oNPMJeASlfM+gY53zuNou2NZnqBXBNizPBrsQE189U3AU852xfbux0eOlLmSybR+ivZkqhru1B5M6i9/JUFOt9WHTCyehdt5Wd//J/ogjbUl4/pLZHIS5NT/NoSrCXQC6J9KFfSSTQl02q4DnUxeouEEek2WJ+iNmSoom6PBrvUl4KkuEfA0zZkAaPd+HOV2SZCTNntoXgla2Lg9qJKsbpuqejBOrIwNby2C0M8cgXnvtuQoCZi8rakq6LVnxisA/aJv3EunAsPpup0GOuUH5KPLwIqPGk6gp5311SxPvybpWKFrBNgXLC+cWUS+WSyMvarLP7HwnrMC0Pz9OEmyLRgTDpughdu1BaO6RFsg4HEzMeE+68nveuRy3VoEXf+dg3XYrC2JDJHxTLxWG7fyZgD9jDOX0UZpgB6qVIHrBU160IHfYeYysMIiJNB7//7yx0ldxvUff0yLY+0+qxXYKYvmBcsL7cYcm4uF97/ysXZHsrM0ci9GUEOMdyLoTraFq1WqYBCWQQtTVXFpexDH7gh4HHgbEePCZAPMpl5H0I5sLRu1JTHOeao2biXmZobwXvrkUqaDfP8DoB9PC32mnIULOu2HjjRsjpBgaaYKgKHIgRWTvDg8SYsdvXtqBvQv2I7c/sZ4Q1DJ3cV7KzIExMLj+6jPvHDLZvfhUS7uxZu5v4blVV6InNRtx5n24Ot76cCtcSfnPZxwn6bFcWLcXgTtRFa4aWRNVh3akgZFFm5BQsMRGWj3h7CpaWW8MMnjr/P8jLtngcGI9rpu72JTuIy23Wdehl7YeUanPNEl0wVLUu8CQ+zErx5r9zzZ1QvbVqmCogfmsmU0JxbT/nz84cWnfLSdXdQ3yMfUzdPiSEBBTjc7lYFvkKIdjuxOxyVnh8tHcs2TwIT7mPZwLDirv7x36TYW78xldqex6tCWNCACJaeqYXDtxEmf+xb56MnpynhhuTlyL/995jIDA1Opgl6w2YBeeNCR30NkIF/YoQAU0M5V+Vi7n5MJb9iGcxkkyhSBOMkxHm2JRYXYgSfo6fJ778uCRdRNckzdpipVMGiRzXueAwBLahPGdYm+yGvtwb37dH1tI45cvjuLvtxfua8xKrx/EW3JXFviOUyCX1ZFMPWsb8FO+UjreKfFM33dhognpfWbgGHLmwDO1USnfTSXTl/80JHfIwKdpKpDhhOgtE79LE/WTr0HoTUzVVCePBmsXd2OZdDTs7re4+/v83M3K21iJGeccO/d3edkE1QpbcbbnL1g2uPAldu0CdHPj88n6LYZ0x6P/SLA7/e0WMzmbpZ9jajHoo5yyv2LqbbkXk4dvTxoEewUx10ednn8kYOxDvN4YZPn+TDZDAAMr1//VjV0lncOvdGJQKcYaNQdvZjUtBsFgKLk41kmebEndhhOvA+hUSa0C5MXg0yY7M5BLimP8eIZjAWHQQY+1Z9xP7+7YwFiz+W/X3stw29R4nkZZMBTfg8dJcdKNel8APfIcX5feFfcTwSLHdXP2UluO+YD7tMe5rZEgNP9TQb2efSXLu9X/N3FYMj8LC/LXeb7Hrm8wNDG/rlvbA2kmypVQF/80KHfRVYnAIqVJ2iPVgKejnT24d4+27lblhx04pp3x9dsT/n6RODTl6Cn/PWsbwuUOUPLOJe7LlZwuWNVUKTVgKcqSl8DF3I2wSiCEpo3HcB4L456jTHeny5nc/2Luk7f5XZjNpC+7DLjyzQJimvK70MLiIvNAzmTKt+LYMjlZsKdBNGvjBcO81fjBYDv+8ViArrpnQ1o9IlAJwDoWEe//jKtO/ux2CfgCe7fv6QQeWHoRJvZaXFtnqaVIIC8SBNHWM9zmdXlUxeyP+VFiijjuuwnCxVtOi3tqEO+Ewv6sTj5qn724gjMqg/ByitZ3Sbah9acDyXjV85of5oEwzVpGfB0nhYBsyd9DGppIOMLV7QfabiB1E7HuL5PERl+j/NC+kmbfYrcF1iOFcZJkCLAbUyTmIAuMpdOr3Qp0GnmchTPRA9AJuAJDM6403jCpHJ/xwHLsUAEOiwDoJYZoFbHi59W/lmY32VBMwfG7ee/rv55bGyyE7I5serLEZgrx19GmXVlZ2k+mm4ZkOC9077JAD/PmbFd4+JZfB2lfkY/pkWGuE4HPeXgprG2pN3nbcBZCc70V2+0mv0t/n6a622ev95qc8XK5oeUxwzLsUP8syeqGWBz0UezAaBzzp2MQN90JtApp6qLXXsHLku5YsFBWjyAb9+PScAT3IVj68rqQ0YbaZJ5eJYZoFK6ZvLL0R29ZzKN69qA1eMvYyJ8lsvZtuYOcmDTaqYGffHtOR3KkWQr47t5PlLptcvbmifp26CnZbux04DJnPVlrC3ZmjdDaz/WmD/f3NP1MYVxBMBOVUmgU9euB/TKDx37fWJyU6BT2WLQP1MNAN8S8AR36ldSgJyZ56WagN6aqgJuablAucz8FkcSna2ULxnf7hLIsJLlbTVLQ3wVRLtbRwMd2x3nbD4Wdtr3JJeX+Vn/uNZutBI0mYOalu3IOH81ft+e8wL6F3H/WkcBoM994ipvAJDZshsqVUDfdDHQ6djAr2gx+J+pBoArBwACnuD2/UrKsK8KoLcim1OlGrijvVy+Wehdyc5weovvIdCku97c5kihHpskR9jtwjLw6dlam7FsL2Yr/+0ygPIyj9b6oMtAyVGyWNeJ56uAEwPOXGYABiDmA16php173+Ujn+EqnQp0ysfXnawONilO7GibqoZy5GMA1o3SxdnnVxk3+GvMc9no3w88BTYdd0nAkwEBXHBsHUA/GPvRJkFMPe7LDb19cIRdZ9sL7Ub/vSlkvm7uUgMwAFWyrtEF5tHppR86+jAJdCrXk8cfXoxEjvbHSor/pfHKn0fp24Cl+HMXd7Y9veNnX/9HkQJ9uWPsy7EJK/9utvyDACmatBLwFIOCqXcoGJwV2A7O6jYwFkRlRIB+kc0JuMpRAdlYlkfYjZPjp6ApH+vn6qiEDxoZ7y6ZlwSAvr3PIvj/XbKmsUufzc3QV50LdIrd9xYqirc8iokdWsm0NEoXwUrjlf/ELrfvPVn7++pk5auVuv3agUgXwVDLlOhfA6QERLHpoKD+Msm7go+TyXLKJtCpPJO6/KkaoFemqgC4xGlhE+3Rh4mxnHlQuJ/P+XkqSWy4fOLSA9Bz0fcX6LTb+ode+qGjv5esTmX7slBfwu69XVkJYlp+jYxMkZlplLqZcWmoYiLzyvToKwFRp/nrMhjqy1eBUFwmBzwd5ud8mgQlUp5zx9YV2fbFZolf8+DcQiF036kdg8AVJoX1YT7VfZjD+o9/ufRwL5EJ7qywzxyfV6ATAH3vD0em9vNkbXJXKlVAXwl0ooticSoyOk1Vxd2sBTItj5Z7ZPDbW5cGQ+VAqGVWqHkugqD4OkCINqC+Tya5PTVQoBSCnMpt905yH2iWBDtB1xnrAZf5PW/cKG7sVvdhfk8rmaCBjbwrNIA6xj3WUAAYgmld3qqGrftYYKA4A9LJQKe8SCF6s2yv6nvgRAN7tbyQtwxiGuUSf7awV5ZlVqjLgqCiHZ2nxcRHfJ0LgCpPnuyr8pF2R9oIClCpgqLbvLO6vYv+UAS8CfCGbnqnTwpcIibZpwX3Yaa5D+MIcti87ZgU+tnNmwMwFDGPd5ysXWzbsSqgz37o8O8WjdpLl6hoVVoE7hQrT3JFMNM4CWZic3u5PF25p+LLagDUl2xQggqHL0+cH+fOqx1/DNW59ozIBJEDwk+S4zuhayIb6ZFqAC5pGw5Vw5dj+86SjZ+g7bjduCc2eUQdmCcGoO/vtDjO2WlP2+9HORmBXutyoFOVBDqV7kn9YqtK2JWTA5pGaRHEtPyzLAS05aoAqNO0mFT9UgQLDHPAUH+ZrAQ8CQBgaOxCYbW9i+M7Y0xhkgS6Y5qfT4D1tmGu//JlgSeCNmZJ4ALcxqG240t7IRMcAIMYEyRzeNt0Yn6GvutsoFPekfAxCfYo3bP6PpgN5Zz1+rOM0iKIaZwENNE93xyBtxb8NEuL4Ke5auq/HMQ2zpPoERhixzCDGaCpAtbauwjujHfYW7UBO3daP5MCUoF177UN347V6r7Lkb4L3Oi5o3C/joEFOgEwhH5wZGiP9Sibs7ejUgX03Q89eMheu0zFexsBF30LdspHpqxmavJypo+WwU8v830d6SxnKQc/mVTq/eDhJAcAxET6KzVCz50KxuSKtq6q27pl0K7sCLAb0YecqAZgzbm24cq+y8gYDa70biibYhswUwUADIhTKLY0DrO2xxAIdKIvIthpVDe80679YvXv9SgtApnG6SKoSZYmhioWiA9yeXVJ1qeZdJf9kq/XNB/vVBlI0GOVKuCatu4sHxV8op8GO+FYKuAyh8aPV/ZdpjnYyfEd8K0Icpqohq9txdypGAAM6L0WG7NjM4QTKNoloy6D0OlAp3w2/fsk/SoLr/IC1WRXE2FrQU37uXjhUrr1rE8xwTJLAp/6NoiYJ8fZ0V+f7ejllu3cfg7stGgI2+NYKuAyv+Ujtbm67zLJwU42o8BCzDcdqYbvzJJAJwCGo0oym7btRBUwBA960qDBUgS9xU6VyTZ+WBw/V5ejWBCry7z+R/+ty1/5JRu/i0AA+F5MrkTQ05/xzMRxQXU5zsc50nGxayItgjjfqA0MzhhoOxf9yOdpcZQW0C7HUgGXeScA8tZiI8pH1QBfnoOxzXSXqlQBAANinNCu9zJuMxSdD3TKC67nLhUr4uisOMqu0YCn2CUX3y8HZMzq8r+0CGqK4xNj17+gJribZeDTX/Fc1eUkBxDuq5rOvns/1SV2SQoEwACYobZzVVpk6DTOgHY5lgpYJyPLhmOz3GcR7ETJYl5CkNPV7cSZcQ0AA+v/vlMTralUAUPxQ09+zwh2eulysSYCjyLgaZrvkZP6BTi77f+cs8tEWR5F91CVwlYc5JLyecuz/Aw75q57g4rIZneWr5E2kq766NgT7tjGneWg2yo5Khva4FgqYF0EKwiA3LzP8ilv9DMuo9R2Q5DTzWLzz2vVAMBAVGmRgIJmnecEMzAIfQl0io66QCeuspfvj5ePP7yIv5/WJSbULxsAj9IisMm55dCd5/fZstNaP8PvUw58kj6zG3IgwDiZVKfbA1+4axsX/cXDyDRYf51q56AxjqUC1i2DFYzzjMtg03ZD4PTNYtFSoBMAQ+n7xqk7kdHUWm7z/QUYjAd9+CXzJMipy8UtPU2LwKdXl5RnXozQaZFRIyZm/olMQpGxzRF3nXgPx6TioZqgoypVQAPtXARkjJNjYaAJkWlvohqANUeCFRoZl0V/xfHilECQ02btw7z+8l5NADAgNk+pU7jWgx79rpXLBVCUCEqMAMW/H394Ma/LsaCn3clHg/6uJuiYd44woMF2brl4+EZtwJ2d5+cIYNXzOBZbNTTaXxHsxJAJcrob7SwAQ3Kiz9uoU9l1GZreBDrlCRENGkCZlkdUCnra7bt4mmRYpFsqVUDD7dynusQxdj8be8DG4pk5FIAKrHknyKnx/opgJ4benxDkdLe2IRaEz9UEAAN5r8XcgnFEc9Qlg/OgZ7+vlGoACHrarSNVQEd8zJnGoHH53holxz/AbVmUBC7zzlGWrfVVBDuhP8FlpqoAgAERF9BcH+tENTA0fQt0qlwyAFZcFvQ0Ui3tyROO79QEBroU0N5FdqfD+o+/JouIcBOLkv0hOyfbIshpO2Oz2PTzUW0wAHEf7+tP3LtdqJKsTgAM5702N4ZtxIns2wxRrwKdcoNmVzUAl1kGPf3z+MOLs7oc1eWRamnFVBWwY3ahsM0xSNxrI+MQuNJzi5K968cJWqdtgpy210+Zp0VmJ8FO9Fncv+N8P3N/NgUB4L2GOmTwHngYARigJ3V5XZf/Pv7w4qQuE1XSHDsp6AC7UNh2uye7E1zuec4cQL/atOgbC3aiLYKcdtBPSYtgJ2M0+ig2E4yN7xptE2L9RFYnAIbyXjvxXruXjzanMVS9C3SqH8aZBg2ADRzU5e3jDy8+5aPt9lVJIypVwA5NVQE7Gossszu9URsULgL+fhXk1Ov2bJIEO9E8QU67e6YjKHvsuaaHbcahICdjZgC4QaUK1B2se9DT31tWJwA29TAtjrb7Ox9tN3G03b04NoxdOXWkAbuUFxKP6j/+nBwTQ5kiyGmcA//od3s2SYIiaI4gp+4817+pCXrguTaj1bagSrK8ATAc4gLurlIFDNWDHj+UjowA4K7iaLu3dZk//vCikuVpc3nHpQV+DGwpuR2c1SXeH78Zm1CQZZCTtOfDacsmSbAT9/dGwEKnnuvoLztuly73JX6WFXIrjlQBAAPp334ybr2TdzJnMmS9DHTKD6XBEAD3FVmenqWVLE+qZCMWOdm2cxlE6ODYJBYTI+DJhAtDFwHO+4KcBtmOTbRh3MPznOmQbj3X0WceJ5tT6GZfYqYqttIORJ/NkdsADEWlCjZmHp1Be9Dj391ufgCa9CXL0+MPLz7V5bguI1Vyo7kqYMumqoAuiuMUc6CA4+wYqjj6ZOzo0EG3Y9GGCXZiE5GV5VdZWTr9XEeQw7gu79UGHfBOX2JnY+hz1QDAAPq2s2TObRM2DDN4vQ10yoMiA3UAmhZZnl7W5Z/HH16c1GWsSq40UwVsUSymGZzR9THK8ji758mCAsMRR1KNpTsvog2bJMFO3L5fNjZx3ovn+lNdDus//q422GF7EZnfJvoSu2kD6i8TNQHAQEiCcnuVKmDoHvT899egAdCmg7r85Vg76MbgzMQ4fZGzW0TAUywqflYj9NRyYdKRVGW1X9Hn/U1NcI3YRT1yjGXvnu1pWmSeFIjNttuLscxvO3/+Z0mwIwDDEBstzLPdjv4Xg9frQCdp6gDYkuWxdvO6TOvySJXA1glwp29jlU95UXGUZEihfyxMlt1+xTv3uZrgEu8ic6Hg894+27O0CMSWIZ9teJP7EoIiu/H8x7jkVE0A0PP3WYxDKjVxo/eOC6YEDwbwGSx6AbAte3V5VZcIeDquy0iVwFa8Mzijr3LA06T+449JwBM9aXOThUlt1yLI7adktywLX4+eUhWD6JfEUXbPPd+02F78GhkhBUV2Tjz7sroB0HfiAm7miHGK0PtApzz5poMOwDY9rMvLuvzz+MOLquCAp5FbAQNYuPW4ZS7giY5bLkxOLEyS260IdovsLzJpl02Gt2E+31V+vmV4oUmRLSyOtrS41s3nPvp3h0mQIwD9fp/N9WGv9dnYjVI8GMjnmLqUAOzIs7QIeDqpy7iwzz5y+dmCU1lFGBIBT3SUhUmubLPqL+PkqKtSOXpq+H2SeL5/SwIfuJ9lsPShYOnOP/dn+b0OAH1mU+zVKlVAKYYS6HRiQA7Ajh3U5a/HH17MCgp42nfZ2YKpKmCIBDzRERYmuU17tTzq6je1UVzb4OipMp7x4yS7E3cXAZGCpfv1zEew03M1AUCP32XR73Da0+UqVUApBhHolCddRG8C0AVPUzkBT2OXm5ZFNqeZamDIBDyxQ3G/WZhkk/Yq5l1+SiaUh06Gt3L7IzG++9Uzzi3FsZY/C4js7TNfJcFOAPRbpQq+75/JxktJHgzos8SEm6xOAHTFoAOe6s8UO34fuswYsEIzVgKe/lOX341taNFyYXJiYZI7tFUxaRr9QEfZDY8Mbyx3x+/nvghc1Vb8Vt8r+zal9P55j/G2YCcA+koCFHVC4QYT6CSrEwAdNdSAp4lLS8vO88QrFCUfETWty6O0WHiQVYGmxMLkcwuTNNROHeY2SlDmMDh6iu/6ImmRbdJxdlzWVpiDH87zHmPun7zPAehjnzXJjL4q3uXGcxTlwcA+T+WSAtBRqwFPowF8nolLSsumqoDSxcJDXeKd8XOSPYW7i8muyMwxEkBK021UWmR+EQjRX46e4rpnfHmc3c/5XqFc0Q/9UVsx2Gc9sjWOPeedNVMFAFeqVMFXJ/pplGZQgU4xAE+iNwHotgh4+ufxhxdVXwOe6t97khxbR7tkc4JvxzmznD0lMitEwIosT9xWjI9HOUuYCS/aaJ+WgRCyO/WLDG9s2g/ZTzJNligCWX/OR1rOVcegn/NlsJPg5e69ryvVAHB1PzUJ1F3yvqA4Dwb4maYuKwA98CwtAp6O6/LIuxbcY3CTHFAwzVmefk2yPHG1CHCKzAsTAU5sqX2q6i+jZPNZ18nwxr2e89wHEfA0fMsAp7FgyKKe8U85ePl3tdEJ0c6OBRkC3MiRuotNw/psFGdwgU6yOgHQMy/rMn/84cW0DwFP8XvWX/ZcNloemFWqAW4c95zkLE//qctvyQ42LgIY/pMDnOaqhC23S7FAOkmLY65khOiemCvbl+GNBp51AU/DJcCJeMan9ZefPN+77dNHO5szbQFwvZMku7BgL4r0YKCfa+rSAtAjcQzcq7qc5WPhOqn+3eK4giOXC/046I4cWHCcj5SJBYk3yaJEaeJ6R7CbI+roSrs0WznOTnu0e6sZ3uaqgwaf9dWAJwHX/RZZQgU4sfp8R4BNjC9kd9qe1ayLU9UBcOt3VsyBVIVXw4k7gRL9MNBGLTJjxETOM5cYgB6JTElv63dYBBMddWmCMWebigHDQ5eJFsnmBPcbB8WCxJd3SA5OndTlMMnEN1SxKBmLzCa06GqbFO/0KgfyH+tHbl3Mi00FN7HFZ32c+yEHaqUXIqjiRDvBNc92LBxH9vGT/B5/qlZaexajfo9tWAC4s2hHXxb62d/ry1GqHwb82aZJoBMA/fSkLn89/vAiFjCPOtJRPc6/F7TdfwMaIOhpsCI7TpUWAU5z1UFP2qMqL5Ie5bZIO9Qei6Xs8lmf1V9m9fM+WnneBTh2sy9xnPsS2gluO64Y18/2Yb53vMe9swG69q6KBChxBG+JQbmVO4BSDTbQSVYnAAYgdsLGZNJOJz7qn195n7IFsjlBe2Oj9aCnw1wEsPbDMuNC5TgZetwOfckKkRaZISb5zxZKm/Mxjxf0pejC8z7PfY5p7m/EMy8TzO6905fgns929EdPvMfvLYINp97ZAI07K7DPeS7LNyX7YeCfLzrcFmYB6LPYAfuqLpM40m7bHVdBTmy53wa0LAc9RZnmY0ljAXKcv8q60B3L4KYTk1YMsB2K/mWVM0NEEKYAiPu1E8e5bYeuPesR4Lh83kf5eZddcrtO8zU4kTGGFt7jkySQcRNdDzYstY2YD/iznRX6fHrfFSjPb00K/Ojmiyja//3vf/8beuMWHW8LtAAMRUxUTto+riZPREdHWbYPtiF2n4xUA+x87BTZnsYrReDTltvC/O6dCW7ayv0+S2VO/P/ctQU2ARAbe58uAiEt5NDX/sbymdfXaF5keKtyGzFXHXimd6o3wYY5SGBe2DUc9FxU7mOfFXZNT+trOtb0FPkumqbFZvHS/Ki/R8lKCHQqsYMGwPD9nlo6zi4yR6VFdh3vTrblubTt0MmxlMCn9kXAwiwtgptkZNnu/R31LtCpe9dlebSmxdJvCVxgqG3xamZJgY7aCPr9PD9aeYcfeB779zzm8d9JIe1xXKfJ0Mdg9TUd52taQr86AgsPbQQo9v0zL3D8KLCP4g0+0Ck3ctNUZiQnAMMWmR+mTQWI5MHvcZLFiS3fx7I5QW/GVfGsxrtiPxfHVGwmjpmKifRZWgQ2zVTJTu/nWRLo1OXr8yhdBD+UGvS0zNw0E7hAIe3y/spzr49xc5/iJPcpZHejq+/x5Tt8PPD3+OCexzw/OGSfSttk4poy8Pt7msqMAbBxmOKVEugkqxMAQxYBT9GprTZdBMmL1jHxFFmc7KBlF3622A+9Hmstg57ifTLOfzbuWogdpWfLYuK1c/duvHsEOvXneo3TxWLpUIPyI7NAXJsTfSO00V+DHccDf+5v63NuH74UfQp6+h5flr73v87Tt5sXPI8Au+0zzlN581DRNxwJdqd0RQQ65cZummR1AmD4YsJlli4WVtNyoSQvRkfnf5QWC9HjZMKY3ZJiF4Y59nqULoKfRvl98ygNOzjh08r7d27Boxf3aVwvgU79bWPGqd8BEKsZ3r58NUkNt+pbLJ/7oQdWf1wZ0wukYIjP9PI5Xo4ZutonO195FpebF+auIEBn3idxOsXLAj/6u/p9NHEHULqSAp0e5c6obBUAAN0gmxMUJmcSjLJcsFx+Tam7i5axwDFPi2Cms9WvFh57fS/G+0eg03Cu5zhdLJbud6w9WbYhsyQYEpruUyyf93F+/vs473ua24hlEIXxEaWPE/bXxgptbphYvqNTfk8vv+rnA/TjvfFPoR//J+8p/p+9+0lqI8nbAJzt6D3sa2H6BGZOgOYAiuYGyPuKaPoELd8AR2hvcYLBUQf4xAkGbiAW2sMJ/GW6SgO2sRGSSqo/zxORkW5PT8/oFS2pXK9+SY+KTtWL3ihunzztAAB7Z5oT8Ktrt6evD0fVemp542MTy9LS0rLA9JUbjZ3/GUvPr6JTt5/j7wuVT4uV6TVlW4WI5VS3p68hKWM3SWF/nyGe+/d/X9PfHsJ3RenwWHqce8Zgrff2ja4BTFEEcE3fYrfxfezYTwD0rOhUvfClC0hTnQAA9usPf7APwL4oOvHdz8NR+LFQ+TNukEK7/31/WpZ+rjg9WPW1IHxbmE5mXisAAGr/PHcat//09OH/HT9jXvgpgBB+7+FjPu/xix8AQBNcKjkBAE1RfS7x2QT68e/700lrM4kAALRHNd1v2uMIpn4KoPSmhxezV6E8+xwAgN1LRzeciwEAAAAAgFeYxnXQ08d+aWIoPHrT08c99tQDAOzFhQsyAAAAAABWlRX5KG5/9jiCqZ8CeNTLotNiOJnF7dLTDwCwU3dxOUMcAAAAAICVZEV+HPr958p3Vb8BqPze48c+jus09He8HQDAzj9/meYEAAAAALB9WZGne9/H1V/OulCOiY/pMG5Xod/39Md+uuFbfT26Lk11mgcTBQAAduU6fv6aigEAAAAAYHtSGSiuWfzlf+L6p1r/l34vrkGbH1fc0uN62+On9yGURS/giTc9f/yp6HTnxwAAoHZjEQAAAAAAbN04rpNnfj/9XisLT09KTu96/txeOSUBftTrolP1ojD2YwAAUKtLZ4gDAAAAAGxXVQj664W/rVWFJyWnb4xFAD/q+0SnUB2hcu1HAQCgFg8uxgAAAAAAanH+ir93WXiaxzWqCkWNEv8/HcdtHpSckuvFcDIXA/zojQhe/QYAAMDqLlyMAQAAAABsV1VUWuc+99u4PsWVCk/TqlzUhMczjtt/4zrw7H41FgE873cRfJ3qdBNfOD+Gl8f6AQCwurv4OcvFGAAAAADA9p2GzUpB6b97llZW5Hdxv4prmu6d7/JBxP/t9DguQlnAopT+bH0mBnieotOjcVyjoCEKALAtIxEAAAAAANRivMV/VioZpaEgf1Wlp9ly1TGxv5pGdVo9BgWnep9b6BxFp0p8gb6PL6hptN8naQAAbOyzb5wAAAAAAGxfVuSjUF9BKP1zz6oVquLTTbVmcc3XKT/Ff84gbumYvLT/6Vn8qYeY71QM8HOKTk+kF4zqTeFEGgAA61+IhfXOhgcAAAAA4GWjHf5vva1WKif9k34jK/K0pQLU/Mnfl4pQ99WvB09+P5WbnKq0ugsRwK8pOv0o3ZT7rxgAANa/EKtjnDEAAAAAQN9Vk5GaMLhjWYBaMkxkc+lLxIpO8II3IvjWYjhJTdOPkgAAWMtt/Dw1FgMAAAAAQC1M0++u9CXiezHAryk6PW8cylF7AAC4yAYAAAAA2LusyI9CeYQc3WOaE6xI0ekZVUvSTToAgNf5GD9HzcQAAAAAAFCLsQg6yzQnWJGi00/EF5GruH2WBADASh5cZAMAAAAA1CMr8sO4nUmis6YigNUoOv3aKJQ37QAAeOFzk2+bAAAAAADUxolE3fVhMZzMxQCrUXT6hepm3VgSAAC/9LmahgkAAAAAwJZV05wUnbopDV65EAOsTtHpBYvhJL2oXEsCAOCnF2EusAEAAAAA6nMa14EYOunCaQnwOopOqxkFR9gBADxnbKQuAAAAAECtxiLoJNOcYA2KTiuobt558wAA+NZ1Nf0SAAAAAIAaZEU+ittbSXSSaU6wBkWnFVU38W4lAQDwVfqmyUgMAAAAAAC1Gomgk+4Ww8lYDPB6ik7eRAAA1uHIOgAAAACAGmVFPojbiSQ6aSwCWI+i0ysshpObuH2QBADQc46sAwAAAACo31gEnZT+jH0qBliPotMrVePjHGEHAPSVI+sAAAAAAGqWFflRMM2pq8YigPUpOq3nNJQ3+QAAencB5sg6AAAAAIDajUXQSZeL4WQmBlifotMaqpt73lgAgL5xZB0AAAAAQM2qaU5nkuicNEzlXAywGUWnNVU3+a4lAQD06AJsJAYAAAAAgNqNRNBJ6cSEezHAZhSdNn+DcYQdANCLzz2OrAMAAAAAqFdW5IfB1J8ucmICbImi0waqm30jSQAAHfc5fu65EgMAAAAAQO1GcR2IoZPPK7AFik4bqm76fZYEANBRdy7AAAAAAAB2xjSn7vngxATYHkWn7RiF8iYgAEDnPuc4MxwAAAAAoH5ZkY/i9lYSnXK7GE7GYoDtUXTagurm30gSAEDHpG+ZzMQAAAAAALATpjl1y0PQI4CtU3Takuom4AdJAAAd4VsmAAAAAAA7khX5IG7vJNEp48VwciMG2C5Fpy2qbgZeSwIAaLn0LZNTMQAAAAAA7MxYBJ3yeTGcXIgBtk/RaftGobw5CADQ2s8z8QJsLgYAAAAAgPplRX4UtxNJdMZdcGQd1EbRacuqm4JetACAtrqMn2euxAAAAAAAsDNjEXTK6WI4uRcD1EPRqQbVzcGPkgAAWuY2rnMxAAAAAADsRjXN6UwSnfF+MZzciAHqo+hUk/jilW4S3koCAGiJdPTuyLdMAAAAAAB2aiSCzkgnJkzFAPVSdKrXaShvGgIANN25b5kAAAAAAOxOVuSHwZT9rrhdDCcjMUD9FJ1qFF/I5kEDFwBoPt8yAQAAAADYvVRyOhBD66WTngZigN1QdKrZYji5ittHSQAADb4A840hAAAAAIDdG4mg9dIJT6eL4eReFLAbik47EF/U0s3Da0kAAC7AAAAAAADIinwUt7eSaLX0Z+yD6qQnYEcUnXbntHqhAwBoipELMAAAAACAvRiLoNWWJacbUcBuKTrtSDUpYSAJAKAhPlRH7AIAAAAAsENZkR8H05zaTMkJ9kjRaYeqF7q/JQEA7Nl1/FwyFgMAAAAAwF4ciqC1lJxgzxSddiy+4F3E7VISAMCe3IXySF0AAAAAAGB1Sk7QAIpO+3Ee160YAIA9XISdVkfqAgAAAACwH6ko8yCGVkn395WcoAEUnfagurl46s0LANixcxdhAAAAAAD7Vd0vHkmiNZScoEEUnfb35jVPL4aSAAB25GP8/DEVAwAAAADA/i2Gk6u4/RHXtTQa7TI+V8dOSoDmUHTa75tXany+lwQAULPP8XPHuRgAAAAAAJojDceIaxB/+e+g8NQ06XSm9/H5GYkCmkXRaf9vXtO4XUoCAKhJGqnrQgwAAAAAoKEWw8lM4alRlkfVTUUBzaPo1Iw3rpE3LACgBukbJ6dG6gIAAAAANJ/CUyN8qI6quxEFNJOiU3OchrIZCgCwLekbJ3MxAAAAAAC0x3eFJ6cD7Ua6V/+vmPtYFNBsik7NebNKkxZGoZy8AACwqfe+cQIAAAAA0F5V4WkUf/lHXB+De8l1SJn+bYoTtIeiU7PeqNIL50ASAMCGPjo7HAAAAACgG9Lk/rjO4y+P4nof151UtiJNyzqK2V6IAtpD0al5b1I31ZsTAMBaF2bVBS8AAAAAAB2STglKX3KN6yj+5b9CWdQx5en1Um5/pGlZ1clLQIsoOjXzDWoatw+SAABeKZ0hruQEAAAAANBxaYBGdazdUSgHaXyWyi+lQtjTgtNcJNBOv3358kUKDZUV+TRuZ5IAAFaQSk4D3z4BgJWut2dxO+nhQ/93/Kww8xMAAADQ2evdw7idVutPiXyVjvlLR9NN/fk5dIOiU/PfjNJRdu8kAQD8QvomyqA6AhcAePlaexb6WXT6wzdWAQAAenPtuyw9Dar9oEcPP/2Z+VUoy00zPw3QLb+LoPHSG0968VV2AgB+dsGm5AQArzMN/Ss6XSs5AQAA9Ec1vWharVR8Og6Ppaf0664Vn9LkplRumsXHfuUnALrLRKcWqNq289Cvli0AsJr38aJtKgYAePW1dnr/7Mtx8YrRAAAAfH9dvCw+HVerbYM3UrEpXefO4rry5R7oD0Wndr3RpBdpZScAYEnJCQA2u9YehfIPdY86+hDTt3dnoRzVf+8ZBwAA4IXr5OU18lF1vZwGcjShAHUbysEgN8ul2AT9pejUrjcWZScAYOlDvJAbiwEAAAAAgDpVJxAdV385qPanv7f02mPiU4Hp6RdzZtU+Xy6FJuB7ik7texMZxe2TJACg1y7jxd1IDAAAAAAAAPTJGxG0S3U8zXtJAEBvKTkBAAAAAADQSyY6tZTJTgDQS9eL4WQgBgAAAAAAAPrIRKeWqiY7XUoCAHojnVV+KgYAAAAAAAD6StGpxapja5SdAKD7UslpEN/770UBAAAAAABAXyk6tZyyEwB0npITAAAAAAAARL99+fJFCh2QFfk0bmeSAIBOuYvrWMkJAAAAAAAATHTqDJOdAKBzHuI6VXICAAAAAACAkqJTt5yH8ngbAKDdUskpHVd3IwoAAAAAAAAoKTp1SDXxYRCUnQCgzZScAAAAAAAA4BmKTh2j7AQArabkBAAAAAAAAD+h6NRByk4A0EpKTgAAAAAAAPALik4dpewEAK2i5AQAAAAAAAAvUHTqMGUnAGgFJScAAAAAAABYgaJTxyk7AUCjKTkBAAAAAADAihSdekDZCQAaSckJAAAAAAAAXuG3L1++SKFHsiKfxu1MEgCwV0pOAAAAAAAA8EomOvXMYjgZxe1SEgCwN2nCopITAAAAAAAAvJKJTj1lshMA7MWy5HQvCgAAAAAAAHgdE516ymQnANg5JScAAAAAAADYgKJTj1Vlp4+SAIDaKTkBAAAAAADAhhSdem4xnJzH7b0kAKA2n4OSEwAAAAAAAGzsty9fvkiBkBX5KG6fJAEAW3VZTVAEAAAAAAAANmSiE18thpNpKCc7PUgDALZCyQkAAAAAAAC2yEQnvpEV+XHcZnEdSAMA1vb3Yji5EAMAAAAAAABsj6ITP1B2AoCNvK8mJQIAAAAAAABbpOjEs7IiPwxl2emdNABgJen419PFcDITBQAAAAAAAGzfGxHwnMVwch+3QVzX0gCAF6WS00DJCQAAAAAAAOpjohMvyop8GrczSQDAs25DOclpLgoAAAAAAACoj4lOvGgxnIzi9kESAPCDNPlwoOQEAAAAAAAA9TPRiZVlRT6K2ydJAMBXl1UZGAAAAAAAANgBRSdeJSvy47jN4jqQBgA99vdiOLkQAwAAAAAAAOyOo+t4lcVwchO3QVy30gCghx7ieq/kBAAAAAAAALtnohNryYr8MG5XcZ1IA4CeSCWnQVX6BQAAAAAAAHZM0YmNZEU+jduZJADouDTJMJWc7kUBAAAAAAAA+6HoxMayIh/F7ZMkAOioy8VwMhIDAAAAAAAA7JeiE1uRFflx3GZxHUgDgA75ezGcXIgBAAAAAAAA9k/Ria3JivwwlGWnd9IAoOUe4jpdDCczUQAAAAAAAEAzKDqxdVmRT+N2JgkAWuo2lCWnuSgAAAAAAACgOd6IgG1bDCejuL2XBAAtdBnXQMkJAAAAAAAAmsdEJ2qTFflxKI+yO5AGAC3w92I4uRADAAAAAAAANJOiE7XKivwwbldxnUgDgIZ6COUUpxtRAAAAAAAAQHMpOrETWZGP4/aPJABomOu4ThfDyb0oAAAAAAAAoNkUndiZrMhP4zYNjrIDoBk+LIaTsRgAAAAAAACgHRSd2KmsyI9CeZTdO2kAsCfpqLo0xWkmCgAAAAAAAGgPRSf2Iivyi7j9JQkAdsxRdQAAAAAAANBSik7sjaPsANgxR9UBAAAAAABAiyk6sVdZkR+G8ii7E2kAUBNH1QEAAAAAAEAHKDrRCFmRj+P2jyQA2LLPcY0cVQcAAAAAAADtp+hEY2RFfhzK6U5vpQHAhtIUp/FiOLkQBQAAAAAAAHTDGxHQFIvh5CZuqex0KQ0ANnAb10DJCQAAAAAAALrFRCcaKSvy07hN4zqQBgCv8GExnIzFAAAAAAAAAN2j6ERjZUV+GMqy05/SAOAFd3GNFsPJTBQAAAAAAADQTYpONF5W5OdxGwfTnQB43sf0PrEYTu5FAQAAAAAAAN2l6EQrZEV+FMrpTifSAKDyENepKU4AAAAAAADQD4pOtIrpTgBUPofyqDpTnAAAAAAAAKAnFJ1oHdOdAHotTXFKBacrUQAAAAAAAEC/KDrRWqY7AfTOx/S6b4oTAAAAAAAA9JOiE61muhNAL9yFcorTTBQAAAAAAADQX4pOdEJW5KehLDyZ7gTQLaY4AQAAAAAAAF8pOtEZWZEfxu0irjNpALTebSinON2IAgAAAAAAAEgUneicrMgHoZzu9FYaAK3zENfFYjgZiwIAAAAAAAB4StGJzsqKfBy3fyQB0Bqf4zpfDCdzUQAAAAAAAADfU3Si07IiPwrldKcTaQA01l0oC05XogAAAAAAAAB+RtGJXsiK/DRuF8FxdgBN8yGUR9XdiwIAAAAAAAD4FUUneiMr8sO4nQfH2QE0wXVcI8fUAQAAAAAAAKtSdKJ3HGcHsFeOqQMAAAAAAADWouhEb2VFPghl4clxdgD1ewjlEXVjUQAAAAAAAADrUHSi97IiH4fySLsDaQDU4jKusWPqAAAAAAAAgE0oOkH4WnY6jNtFXGfSANia61AeU3cjCgAAAAAAAGBTik7wRFbkR6E8zu5EGgBruwtlwelKFAAAAAAAAMC2KDrBM7IiH4RywtM7aQCs7CGUR9RdiAIAAAAAAADYNkUn+IWsyEdxG8f1VhoAP5UKTqncdLEYTu7FAQAAAAAAANRB0QlWkBX5eSgLTwfSAPjGZSiPqVNwAgAAAAAAAGql6AQryor8MG7n1VJ4AvouFZzSMXVzUQAAAAAAAAC7oOgEr6TwBPTc51BOcJqLAgAAAAAAANglRSdYk8IT0DPXoZzgNBMFAAAAAAAAsA+KTrChrMiP4jaO60waQAcpOAEAAAAAAACNoOgEW1IVnkbBhCegGxScAAAAAAAAgEZRdIItc6Qd0HKXcU0VnAAAAAAAAICmUXSCmig8AS2TCk5pgtNcFAAAAAAAAEATKTpBzarC0yiUhae3EgEaRsEJAAAAAAAAaAVFJ9ihrMhHcRsHhSdgvx7iukhrMZzciwMAAAAAAABoA0Un2IOsyAehLDydSAPYobvqtedKwQkAAAAAAABoG0Un2KOsyI9DeaTdmTSAGl3HNV0MJ1NRAAAAAAAAAG2l6AQNkBX5UdxGoSw9HUgE2JLLUB5PdyMKAAAAAAAAoO0UnaBhsiIfhbLw9E4awBrS8XTTUE5wmosDAAAAAAAA6ApFJ2iorMgHoZzy5Fg7YBWOpwMAAAAAAAA6TdEJGi4r8sPweKzdW4kATzzEdRUcTwcAAAAAAAD0gKITtEg15SkVnv6UBvTabVwXcV0thpN7cQAAAAAAAAB9oOgELWTKE/SS6U0AAAAAAABAryk6QctVU55GcZ3GdSAR6JzruKaL4WQqCgAAAAAAAKDPFJ2gI6opT6nsNIrrRCLQandxTUNZcJqLAwAAAAAAAEDRCTopK/KjUJaeHG0H7eFoOgAAAAAAAIBfUHSCjsuK/Dg8Hm2n9ATNcxnX1WI4uRIFAAAAAAAAwM8pOkGPZEU+CI+lpwOJwN58DuX0plRwuhcHAAAAAAAAwMsUnaCnsiJPZaflUnqC+ik3AQAAAAAAAGxA0Ql4WnoaBMfbwTYpNwEAAAAAAABsiaIT8I2syI/D4/F2Sk/wOg/hsdh0JQ4AAAAAAACA7VF0An4qK/Kj8Hi83YlE4Fl34bHcNBMHAAAAAAAAQD0UnYCVZEV+GB6Pt0v7gVTosXQk3SyU5aa5OAAAAAAAAADqp+gErKU64m5ZfDLtia5bTm2aOZIOAAAAAAAAYD8UnYCNVdOeBuFx2tNbqdByD6Ga2BTKctNcJAAAAAAAAAD7pegEbF1W5EfhsfiUluITTbcsNn1di+HkRiQAAAAAAAAAzaLoBNRO8YkGUmwCAAAAAAAAaBlFJ2Dnvjvq7jiuE6lQs9u4UplplnbFJgAAAAAAAID2UXQCGiEr8kEoS0/L3dQn1pWmNS1LTWmlYtO9WAAAAAAAAADaTdEJaKRq6tPT4pPyE895WmpKeyo1zcUCAAAAAAAA0D2KTkBrPCk/PV3vJNMbd6EqMwWlJgAAAAAAAIDeUXQCWi8r8lR4OgqP5af0awWo9kqFpnkopzSlfb4YTmZiAQAAAAAAAOg3RSegs6oCVJoCNaj2ZQnKEXjNcB3XfXic0HSv0AQAAAAAAADAzyg6Ab30XQkqPNlPpLM1t+GxyPS/XZkJAAAAAAAAgHUoOgE840kR6qhayaDa0+/3+Wi85dFyybLEtCwyBUUmAAAAAAAAAOqg6ASwgazIj8JjEWp5PN7S0/9sqUkTo5YTl5b+V1aqzMNjoSlNYrrxjAMAAAAAAACwL4pOAA3wZILU1pmwBAAAAAAAAEAXKDoBAAAAAAAAAACN90YEAAAAAAAAAABA0yk6AQAAAAAAAAAAjafoBAAAAAAAAAAANJ6iEwAAAAAAAAAA0Hj/L8AAjo5uet0pI1YAAAAASUVORK5CYII=;" parent="1" vertex="1">
                    <mxGeometry x="842.22" y="624.58" width="151.29" height="45.42" as="geometry"/>
                </mxCell>
                <mxCell id="62" value="" style="shape=image;verticalLabelPosition=bottom;labelBackgroundColor=#ffffff;verticalAlign=top;aspect=fixed;imageAspect=0;image=data:image/svg+xml,PHN2ZyB4bWxucz0iaHR0cDovL3d3dy53My5vcmcvMjAwMC9zdmciIHdpZHRoPSIzMTMiIGhlaWdodD0iODgiIHZpZXdCb3g9IjAgMCAzMTMgODgiIGZpbGw9Im5vbmUiPgo8ZyBjbGlwLXBhdGg9InVybCgjY2xpcDApIj4KPHBhdGggZD0iTTk4LjQ2MDkgMzAuNDYwMkg4Ny4yMTA5VjIzLjc0MDJIMTE3LjMzMVYzMC40NjAySDEwNi4wODFWNjQuMDYwMkg5OC40NjA5VjMwLjQ2MDJaIiBmaWxsPSJibGFjayIvPgo8cGF0aCBkPSJNMTI1LjI5MSA1OC41OTA3QzEyOC4zNDMgNTguNTc2MyAxMzEuMzc3IDU4LjEwNzkgMTM0LjI5MSA1Ny4yMDA3TDEzNS40NDEgNjIuNzYwN0MxMzEuOTU5IDY0LjAxNzcgMTI4LjI4MyA2NC42NTQgMTI0LjU4MSA2NC42NDA3QzExNS4zMzEgNjQuNjQwNyAxMTIuMTIxIDYwLjM0MDcgMTEyLjEyMSA1My4yNjA3VjQ1LjQ2MDdDMTEyLjEyMSAzOS4yMzA3IDExNC45MDEgMzMuOTcwNyAxMjQuMzQxIDMzLjk3MDdDMTMzLjc4MSAzMy45NzA3IDEzNS45MDEgMzkuNDcwNyAxMzUuOTAxIDQ1LjgyMDdWNTIuMTIwN0gxMTkuNTgxVjUzLjYzMDdDMTE5LjU4MSA1Ny4yMDA3IDEyMC44MTEgNTguNTkwNyAxMjUuMjkxIDU4LjU5MDdaTTExOS41ODEgNDYuMTkwN0gxMjguOTYxVjQ0LjczMDdDMTI4Ljk2MSA0MS45NTA3IDEyOC4xMTEgNDAuMDIwNyAxMjQuNDgxIDQwLjAyMDdDMTIwLjg1MSA0MC4wMjA3IDExOS41ODEgNDEuOTUwNyAxMTkuNTgxIDQ0LjczMDdWNDYuMTkwN1oiIGZpbGw9ImJsYWNrIi8+CjxwYXRoIGQ9Ik0xNTUuNjYxIDQwLjc0MDdDMTUyLjk0OCA0MS45NjY3IDE1MC4zMzcgNDMuNDA0NSAxNDcuODUxIDQ1LjA0MDdWNjQuMDYwN0gxNDAuNDcxVjM0LjU3MDdIMTQ2LjcwMUwxNDcuMTkxIDM3Ljg0MDdDMTQ5LjU4OCAzNi4yMTMxIDE1Mi4xOSAzNC45MTE3IDE1NC45MzEgMzMuOTcwN0wxNTUuNjYxIDQwLjc0MDdaIiBmaWxsPSJibGFjayIvPgo8cGF0aCBkPSJNMTczLjY4IDQwLjc0MDdDMTcwLjk3MiA0MS45Njg5IDE2OC4zNjQgNDMuNDA2NiAxNjUuODggNDUuMDQwN1Y2NC4wNjA3SDE1OC41VjM0LjU3MDdIMTY0LjczTDE2NS4yMSAzNy44NDA3QzE2Ny42MTEgMzYuMjEzMiAxNzAuMjE3IDM0LjkxMTkgMTcyLjk2IDMzLjk3MDdMMTczLjY4IDQwLjc0MDdaIiBmaWxsPSJibGFjayIvPgo8cGF0aCBkPSJNMTk4LjM2MSA2NC4wNjA3SDE5Mi4zMTFMMTkxLjc3MSA2Mi4wNjA3QzE4OS4xNTkgNjMuNzU0NCAxODYuMTEzIDY0LjY1NzMgMTgzLjAwMSA2NC42NjA3QzE3Ny42MTEgNjQuNjYwNyAxNzUuMzExIDYwLjk3MDcgMTc1LjMxMSA1NS44OTA3QzE3NS4zMTEgNDkuODkwNyAxNzcuOTIxIDQ3LjYwMDcgMTgzLjkwMSA0Ny42MDA3SDE5MC45ODFWNDQuNDkwN0MxOTAuOTgxIDQxLjIzMDcgMTkwLjA4MSA0MC4wODA3IDE4NS4zNjEgNDAuMDgwN0MxODIuNjE0IDQwLjEwOTQgMTc5Ljg3NyA0MC40MTA5IDE3Ny4xOTEgNDAuOTgwN0wxNzYuMjgxIDM1LjM2MDdDMTc5LjU3IDM0LjQ0OTYgMTgyLjk2NyAzMy45ODIxIDE4Ni4zODEgMzMuOTcwN0MxOTUuNjQxIDMzLjk3MDcgMTk4LjM4MSAzNy4yMzA3IDE5OC4zODEgNDQuNjEwN0wxOTguMzYxIDY0LjA2MDdaTTE5MC45ODEgNTIuOTAwN0gxODUuNTgxQzE4My4xNjEgNTIuOTAwNyAxODIuNDkxIDUzLjU3MDcgMTgyLjQ5MSA1NS44MTA3QzE4Mi40OTEgNTcuODEwNyAxODMuMTYxIDU4LjgxMDcgMTg1LjQ5MSA1OC44MTA3QzE4Ny40NDEgNTguNzc5NSAxODkuMzUyIDU4LjI2MDQgMTkxLjA1MSA1Ny4zMDA3TDE5MC45ODEgNTIuOTAwN1oiIGZpbGw9ImJsYWNrIi8+CjxwYXRoIGQ9Ik0yMjEuMDUgMjcuODYwNUMyMTkuNjU3IDI3LjU1NDYgMjE4LjIzNiAyNy4zOTA1IDIxNi44MSAyNy4zNzA1QzIxMy45MSAyNy4zNzA1IDIxMy40OSAyOC42NDA1IDIxMy40OSAzMC44ODA1VjM0LjU3MDVIMjIwLjk5TDIyMC41OCA0MC40NDA1SDIxMy41MVY2NC4wNjA1SDIwNi4xM1Y0MC40NDA1SDIwMS40MVYzNC41NzA1SDIwNi4xM1YzMC40NjA1QzIwNi4xMyAyNC4zNTA1IDIwOC45NyAyMS4zMjA1IDIxNS41IDIxLjMyMDVDMjE3LjY0NiAyMS4zMTI2IDIxOS43ODIgMjEuNTk4NiAyMjEuODUgMjIuMTcwNUwyMjEuMDUgMjcuODYwNVoiIGZpbGw9ImJsYWNrIi8+CjxwYXRoIGQ9Ik0yMzUuNDQgNjQuNjQwN0MyMjUuMzQgNjQuNjQwNyAyMjIuNTggNTkuMDYwNyAyMjIuNTggNTMuMDYwN1Y0NS41ODA3QzIyMi41OCAzOS41ODA3IDIyNS4zIDMzLjk3MDcgMjM1LjQgMzMuOTcwN0MyNDUuNSAzMy45NzA3IDI0OC4yMyAzOS41MzA3IDI0OC4yMyA0NS41ODA3VjUzLjA2MDdDMjQ4LjI3IDU5LjA2MDcgMjQ1LjU4IDY0LjY0MDcgMjM1LjQ0IDY0LjY0MDdaTTIzNS40NCA0MC4yNjA3QzIzMS41MSA0MC4yNjA3IDIzMCA0Mi4wMTA3IDIzMCA0NS4zNDA3VjUzLjI2MDdDMjMwIDU2LjU5MDcgMjMxLjUxIDU4LjM1MDcgMjM1LjQ0IDU4LjM1MDdDMjM5LjM3IDU4LjM1MDcgMjQwLjg5IDU2LjU5MDcgMjQwLjg5IDUzLjI2MDdWNDUuMzQwN0MyNDAuODkgNDIuMDYwNyAyMzkuMzggNDAuMjYwNyAyMzUuNDQgNDAuMjYwN1oiIGZpbGw9ImJsYWNrIi8+CjxwYXRoIGQ9Ik0yNjcuMjYgNDAuNzQwN0MyNjQuNTUyIDQxLjk2ODkgMjYxLjk0NCA0My40MDY2IDI1OS40NiA0NS4wNDA3VjY0LjA2MDdIMjUyLjA4VjM0LjU3MDdIMjU4LjMxTDI1OC43OSAzNy44NDA3QzI2MS4yMDQgMzYuMjEyIDI2My44MjQgMzQuOTEwNyAyNjYuNTggMzMuOTcwN0wyNjcuMjYgNDAuNzQwN1oiIGZpbGw9ImJsYWNrIi8+CjxwYXRoIGQ9Ik0yODcuNTggNjQuMDYwN1Y0My40NjA3QzI4Ny41OCA0MS44OTA3IDI4Ni45MSA0MS4xMDA3IDI4NS4yMiA0MS4xMDA3QzI4My41MyA0MS4xMDA3IDI4MC4yMiA0Mi4xOTA3IDI3Ny41NCA0My41OTA3VjY0LjA2MDdIMjcwLjE1VjM0LjU3MDdIMjc1Ljc4TDI3Ni41MSAzNy4wNTA3QzI4MC4xODQgMzUuMjE3MiAyODQuMTk5IDM0LjE2ODMgMjg4LjMgMzMuOTcwN0MyOTEuMTUgMzMuOTcwNyAyOTIuOSAzNS4xMjA3IDI5My44NyAzNy4xMTA3QzI5Ny41NTUgMzUuMjMwMiAzMDEuNTk4IDM0LjE1OTYgMzA1LjczIDMzLjk3MDdDMzEwLjYzIDMzLjk3MDcgMzEyLjM4IDM3LjQxMDcgMzEyLjM4IDQyLjY4MDdWNjQuMDYwN0gzMDVWNDMuNDYwN0MzMDUgNDEuODkwNyAzMDQuMzMgNDEuMTAwNyAzMDIuNjQgNDEuMTAwN0MyOTkuOTM0IDQxLjM4MzUgMjk3LjMxOCA0Mi4yMzE5IDI5NC45NiA0My41OTA3VjY0LjA2MDdIMjg3LjU4WiIgZmlsbD0iYmxhY2siLz4KPHBhdGggZmlsbC1ydWxlPSJldmVub2RkIiBjbGlwLXJ1bGU9ImV2ZW5vZGQiIGQ9Ik0yMS4xOTkyIDE2LjU1MDhMNDAuMjk5MiAyNy41ODA4VjQ5LjY0MDhMMjEuMTk5MiAzOC42MTA4VjE2LjU1MDhaIiBmaWxsPSIjN0I0MkJDIi8+CjxwYXRoIGZpbGwtcnVsZT0iZXZlbm9kZCIgY2xpcC1ydWxlPSJldmVub2RkIiBkPSJNNDIuMzkwNiAyNy41ODA4VjQ5LjY0MDhMNjEuNTAwNiAzOC42MTA4VjE2LjU1MDhMNDIuMzkwNiAyNy41ODA4WiIgZmlsbD0iIzdCNDJCQyIvPgo8cGF0aCBmaWxsLXJ1bGU9ImV2ZW5vZGQiIGNsaXAtcnVsZT0iZXZlbm9kZCIgZD0iTTAgNC4yNDAyM1YyNi4zMDAyTDE5LjEgMzcuMzMwMlYxNS4yNzAyTDAgNC4yNDAyM1oiIGZpbGw9IiM3QjQyQkMiLz4KPHBhdGggZmlsbC1ydWxlPSJldmVub2RkIiBjbGlwLXJ1bGU9ImV2ZW5vZGQiIGQ9Ik0yMS4xOTkyIDYzLjA5MDNMNDAuMjk5MiA3NC4xMjAzVjUyLjIwMDNWNTIuMDYwM0wyMS4xOTkyIDQxLjAzMDNWNjMuMDkwM1oiIGZpbGw9IiM3QjQyQkMiLz4KPHBhdGggZD0iTTk1LjAyMDkgMTMuNzhWOC4xMkg4OS44NTA5VjEzLjc4SDg3LjIxMDlWMC4xODk5OTlIODkuODUwOVY1Ljg5SDk1LjAyMDlWMC4xODk5OTlIOTcuNjYwOVYxMy43OEg5NS4wMjA5Wk0xMDcuMzUxIDEzLjc4SDEwNS4yNTFMMTA1LjA2MSAxMy4xMUMxMDQuMTYyIDEzLjY3NDIgMTAzLjEyMyAxMy45NzU1IDEwMi4wNjEgMTMuOThDMTAwLjIwMSAxMy45OCA5OS40MDA5IDEyLjc1IDk5LjQwMDkgMTEuMDZDOTkuNDAwOSA5LjA2IDEwMC4zMDEgOC4zIDEwMi40MDEgOC4zSDEwNC44NTFWNy4zQzEwNC44NTEgNi4yMSAxMDQuNTQxIDUuODMgMTAyLjg1MSA1LjgzQzEwMS45IDUuODM5NzIgMTAwLjk1MyA1Ljk0MDE4IDEwMC4wMjEgNi4xM0w5OS43MTA5IDQuMjZDMTAwLjg1MyAzLjk1ODU0IDEwMi4wMjkgMy44MDM5NiAxMDMuMjExIDMuOEMxMDYuNDExIDMuOCAxMDcuMzYxIDQuODggMTA3LjM2MSA3LjM0TDEwNy4zNTEgMTMuNzhaTTEwNC43OTEgMTAuMDZIMTAyLjkwMUMxMDIuMDcxIDEwLjA2IDEwMS44NDEgMTAuMjkgMTAxLjg0MSAxMS4wNkMxMDEuODQxIDExLjgzIDEwMi4wNzEgMTIuMDYgMTAyLjg0MSAxMi4wNkMxMDMuNTE3IDEyLjA1NTggMTA0LjE4MSAxMS44ODA0IDEwNC43NzEgMTEuNTVMMTA0Ljc5MSAxMC4wNlpNMTEyLjcwMSAxMy45N0MxMTEuNTA3IDEzLjk1MTIgMTEwLjMyMiAxMy43NjI2IDEwOS4xODEgMTMuNDFMMTA5LjU0MSAxMS41M0MxMTAuNTE4IDExLjgwNTEgMTExLjUyNiAxMS45NDk2IDExMi41NDEgMTEuOTZDMTEzLjY3MSAxMS45NiAxMTMuODQxIDExLjcxIDExMy44NDEgMTAuOTZDMTEzLjg0MSAxMC4yMSAxMTMuNzExIDEwLjA1IDExMi4wNjEgOS42N0MxMDkuNTYxIDkuMDkgMTA5LjI3MSA4LjQ4IDEwOS4yNzEgNi41OUMxMDkuMjcxIDQuNyAxMTAuMTcxIDMuNzYgMTEzLjA4MSAzLjc2QzExNC4xMSAzLjc2MDQ5IDExNS4xMzcgMy44NzQ1MSAxMTYuMTQxIDQuMUwxMTUuOTMxIDYuMDZDMTE1LjAwMyA1Ljg5NjUgMTE0LjA2MyA1LjgwMjkxIDExMy4xMjEgNS43OEMxMTIuMDExIDUuNzggMTExLjgyMSA2LjAyIDExMS44MjEgNi42MkMxMTEuODIxIDcuNDEgMTExLjg5MSA3LjQ3IDExMy4yNzEgNy44MUMxMTYuMTIxIDguNTQgMTE2LjM5MSA4LjkgMTE2LjM5MSAxMC45MUMxMTYuMzkxIDEyLjkyIDExNS43ODEgMTMuOTggMTEyLjcwMSAxMy45OFYxMy45N1pNMTI0LjQxMSAxMy43N1Y2Ljk0QzEyNC40MTEgNi40MSAxMjQuMTgxIDYuMTUgMTIzLjU5MSA2LjE1QzEyMi42NTggNi4yNDg3NyAxMjEuNzU0IDYuNTMwODMgMTIwLjkzMSA2Ljk4VjEzLjc4SDExOC4zNzFWMEwxMjAuOTMxIDAuMzc5OTk5VjQuNzJDMTIyLjA5NiA0LjE1MTI2IDEyMy4zNjYgMy44MzExNCAxMjQuNjYxIDMuNzhDMTI2LjM2MSAzLjc4IDEyNi45NjEgNC45MiAxMjYuOTYxIDYuNjdWMTMuNzhMMTI0LjQxMSAxMy43N1pNMTI5LjExMSAyLjU4VjAuMThIMTMxLjY3MVYyLjU4SDEyOS4xMTFaTTEyOS4xMTEgMTMuNzdWMy45N0gxMzEuNjcxVjEzLjc3SDEyOS4xMTFaTTEzMy43MTEgNC4wNUMxMzMuNzExIDEuNTkgMTM1LjIwMSAwLjE2IDEzOC43MTEgMC4xNkMxMzkuOTg3IDAuMTYyNjIxIDE0MS4yNTkgMC4zMTM2MzQgMTQyLjUwMSAwLjYwOTk5OUwxNDIuMjExIDIuOEMxNDEuMDgyIDIuNTk1NTQgMTM5LjkzOCAyLjQ4MTg1IDEzOC43OTEgMi40NkMxMzYuOTcxIDIuNDYgMTM2LjM4MSAzLjA2IDEzNi4zODEgNC40NlY5LjYxQzEzNi4zODEgMTEuMDQgMTM2Ljk3MSAxMS42MSAxMzguNzkxIDExLjYxQzEzOS45MzggMTEuNTg4MiAxNDEuMDgyIDExLjQ3NDUgMTQyLjIxMSAxMS4yN0wxNDIuNTAxIDEzLjQ3QzE0MS4yNTkgMTMuNzYzIDEzOS45ODcgMTMuOTEwNyAxMzguNzExIDEzLjkxQzEzNS4yMzEgMTMuOTEgMTMzLjcxMSAxMi40OCAxMzMuNzExIDEwLjAyVjQuMDVaTTE0OC4xMjEgMTMuOTdDMTQ0LjYyMSAxMy45NyAxNDMuNjgxIDEyLjEyIDE0My42ODEgMTAuMVY3LjY0QzE0My42ODEgNS42NCAxNDQuNjIxIDMuNzggMTQ4LjEyMSAzLjc4QzE1MS42MjEgMy43OCAxNTIuNTgxIDUuNjMgMTUyLjU4MSA3LjY0VjEwLjExQzE1Mi41ODEgMTIuMTMgMTUxLjU4MSAxMy45OCAxNDguMTIxIDEzLjk4VjEzLjk3Wk0xNDguMTIxIDUuODZDMTQ2Ljc2MSA1Ljg2IDE0Ni4yMzEgNi40NCAxNDYuMjMxIDcuNTVWMTAuMTlDMTQ2LjIzMSAxMS4yOSAxNDYuNzYxIDExLjg4IDE0OC4xMjEgMTEuODhDMTQ5LjQ4MSAxMS44OCAxNTAuMDExIDExLjI5IDE1MC4wMTEgMTAuMTlWNy41NkMxNTAuMDExIDYuNDUgMTQ5LjQ4MSA1Ljg3IDE0OC4xMjEgNS44N1Y1Ljg2Wk0xNTkuNzYxIDYuMDJDMTU4LjgyNyA2LjQyODk0IDE1Ny45MjQgNi45MDY5MyAxNTcuMDYxIDcuNDVWMTMuNzdIMTU0LjUwMVYzLjk3SDE1Ni42NjFMMTU2LjgzMSA1LjA1QzE1Ny42NjUgNC41MDk2OCAxNTguNTY2IDQuMDc5NDUgMTU5LjUxMSAzLjc3TDE1OS43NjEgNi4wMlpNMTY5Ljk4MSAxMC41MUMxNjkuOTgxIDEyLjY4IDE2OC45ODEgMTMuOTcgMTY2LjYxMSAxMy45N0MxNjUuNjk0IDEzLjk2MTEgMTY0Ljc4IDEzLjg2NzQgMTYzLjg4MSAxMy42OVYxNy42OUwxNjEuMzMxIDE4LjA3VjMuOThIMTYzLjMzMUwxNjMuNTgxIDQuOEMxNjQuNTI3IDQuMTM4MjIgMTY1LjY1NiAzLjc4ODYgMTY2LjgxMSAzLjhDMTY4Ljg2MSAzLjggMTY5Ljk1MSA0Ljk2IDE2OS45NTEgNy4yTDE2OS45ODEgMTAuNTFaTTE2My44ODEgMTEuNjFDMTY0LjYyNyAxMS43NzIgMTY1LjM4NyAxMS44NjI0IDE2Ni4xNTEgMTEuODhDMTY3LjA3MSAxMS44OCAxNjcuNDMxIDExLjQ1IDE2Ny40MzEgMTAuNTdWNy4xMkMxNjcuNDMxIDYuMzEgMTY3LjExMSA1Ljg3IDE2Ni4xNzEgNS44N0MxNjUuMzMgNS44OTY3NCAxNjQuNTIzIDYuMjA2ODUgMTYzLjg4MSA2Ljc1VjExLjYxWiIgZmlsbD0iYmxhY2siLz4KPC9nPgo8ZGVmcz4KPGNsaXBQYXRoIGlkPSJjbGlwMCI+CjxyZWN0IHdpZHRoPSIzMTMiIGhlaWdodD0iODgiIGZpbGw9IndoaXRlIi8+CjwvY2xpcFBhdGg+CjwvZGVmcz4KPC9zdmc+;" vertex="1" parent="1">
                    <mxGeometry x="350" y="300" width="135.16" height="38" as="geometry"/>
                </mxCell>
            </root>
        </mxGraphModel>
    </diagram>
</mxfile>
